{"glyphs":{"0":{"ha":833,"x_min":0,"x_max":0,"o":"m 340 403 l 490 403 l 490 568 l 340 568 z m 69 474 b 418 -19 69 206 160 -19 b 764 474 675 -19 764 207 b 418 979 764 740 675 979 b 69 474 160 979 69 742 z m 225 474 b 418 850 225 663 254 850 b 608 472 581 850 608 661 b 418 110 608 283 581 110 b 225 474 256 110 225 282 z "},"1":{"ha":833,"x_min":0,"x_max":0,"o":"m 368 713 l 368 129 l 97 129 l 97 0 l 749 0 l 749 129 l 519 129 l 519 960 l 400 960 b 97 789 388 831 328 790 l 97 667 b 368 713 233 667 317 675 z "},"2":{"ha":833,"x_min":0,"x_max":0,"o":"m 88 0 l 739 0 l 739 129 l 286 129 l 286 132 b 476 324 311 208 365 250 b 746 692 613 417 746 508 b 446 979 746 875 615 979 b 108 621 215 979 108 825 l 261 621 b 442 850 261 751 310 850 b 590 686 557 850 590 764 b 368 421 590 561 511 514 b 88 0 182 297 88 174 z "},"3":{"ha":833,"x_min":0,"x_max":0,"o":"m 415 -19 b 735 271 607 -19 735 85 b 574 507 735 383 688 467 l 574 510 b 706 715 657 549 706 614 b 411 979 706 885 568 979 b 85 671 199 979 85 849 l 238 671 b 410 853 238 765 276 853 b 550 708 510 853 550 785 b 392 560 550 604 490 560 l 335 560 l 335 439 l 394 439 b 579 274 500 439 579 406 b 406 107 579 169 535 107 b 214 328 261 107 214 194 l 63 328 b 415 -19 63 108 190 -19 z "},"4":{"ha":833,"x_min":0,"x_max":0,"o":"m 496 0 l 646 0 l 646 219 l 782 219 l 782 349 l 646 349 l 646 960 l 496 960 l 43 358 l 43 219 l 496 219 z m 181 349 l 496 767 l 496 349 z "},"5":{"ha":833,"x_min":0,"x_max":0,"o":"m 428 -19 b 754 328 613 -19 754 115 b 467 646 754 511 638 646 b 263 563 375 646 308 614 l 263 565 l 310 831 l 711 831 l 711 960 l 197 960 l 100 438 l 251 438 b 425 524 292 496 356 524 b 599 328 533 524 599 463 b 419 110 599 186 528 110 b 240 281 299 110 249 193 l 88 281 b 428 -19 94 119 210 -19 z "},"6":{"ha":833,"x_min":0,"x_max":0,"o":"m 432 -19 b 753 314 629 -19 753 128 b 458 633 753 501 633 633 b 235 504 361 633 281 588 l 232 506 l 232 521 b 432 854 232 689 275 854 b 575 717 526 854 567 793 l 728 717 b 432 979 710 861 597 979 b 83 476 213 979 83 792 b 432 -19 83 185 174 -19 z m 244 303 b 435 507 244 425 318 507 b 600 306 536 507 600 432 b 428 106 600 183 540 106 b 244 303 310 106 244 186 z "},"7":{"ha":833,"x_min":0,"x_max":0,"o":"m 210 0 l 367 0 b 742 844 367 306 476 663 l 742 960 l 89 960 l 89 831 l 575 831 l 575 828 b 210 0 360 676 210 317 z "},"8":{"ha":833,"x_min":0,"x_max":0,"o":"m 415 -19 b 767 271 613 -19 767 76 b 599 510 767 401 683 469 l 599 513 b 721 718 661 549 721 613 b 415 979 721 883 592 979 b 111 718 240 979 111 883 b 233 513 111 625 156 557 l 233 510 b 67 271 149 469 67 403 b 415 -19 67 76 219 -19 z m 224 279 b 415 450 224 386 294 450 b 610 279 539 450 610 386 b 415 106 610 169 539 106 b 224 279 294 106 224 169 z m 258 713 b 415 857 258 808 317 857 b 574 713 517 857 574 808 b 415 569 574 615 517 569 b 258 713 317 569 258 615 z "},"9":{"ha":833,"x_min":0,"x_max":0,"o":"m 401 979 b 81 646 204 979 81 832 b 375 326 81 458 201 326 b 599 456 472 326 553 372 l 601 454 l 601 439 b 403 106 601 271 558 106 b 258 243 307 106 267 167 l 106 243 b 401 -19 124 99 236 -19 b 750 483 621 -19 750 168 b 401 979 750 775 660 979 z m 233 654 b 407 854 233 776 294 854 b 589 657 524 854 589 774 b 400 453 589 535 515 453 b 233 654 297 453 233 528 z "},"\r":{"ha":833,"x_min":0,"x_max":0,"o":""}," ":{"ha":833,"x_min":0,"x_max":0,"o":""}," ":{"ha":833,"x_min":0,"x_max":0,"o":""},"A":{"ha":833,"x_min":0,"x_max":0,"o":"m 33 0 l 193 0 l 254 239 l 574 239 l 636 0 l 800 0 l 496 993 l 335 993 z m 294 368 l 413 851 l 418 851 l 533 368 z "},"Á":{"ha":833,"x_min":0,"x_max":0,"o":"m 33 0 l 193 0 l 254 239 l 574 239 l 636 0 l 800 0 l 496 993 l 335 993 z m 294 368 l 413 851 l 418 851 l 533 368 z m 350 1100 l 458 1100 l 592 1292 l 432 1292 z "},"Ă":{"ha":833,"x_min":0,"x_max":0,"o":"m 33 0 l 193 0 l 254 239 l 574 239 l 636 0 l 800 0 l 496 993 l 335 993 z m 228 1278 b 415 1086 232 1150 310 1086 b 601 1278 522 1086 596 1154 l 508 1278 b 415 1182 504 1211 475 1182 b 321 1278 356 1182 325 1211 z m 294 368 l 413 851 l 418 851 l 533 368 z "},"Â":{"ha":833,"x_min":0,"x_max":0,"o":"m 33 0 l 193 0 l 254 239 l 574 239 l 636 0 l 800 0 l 496 993 l 335 993 z m 210 1100 l 339 1100 l 414 1224 l 417 1224 l 490 1100 l 621 1100 l 489 1292 l 342 1292 z m 294 368 l 413 851 l 418 851 l 533 368 z "},"Ä":{"ha":833,"x_min":0,"x_max":0,"o":"m 33 0 l 193 0 l 254 239 l 574 239 l 636 0 l 800 0 l 496 993 l 335 993 z m 221 1119 l 375 1119 l 375 1267 l 221 1267 z m 294 368 l 413 851 l 418 851 l 533 368 z m 454 1119 l 608 1119 l 608 1267 l 454 1267 z "},"À":{"ha":833,"x_min":0,"x_max":0,"o":"m 33 0 l 193 0 l 254 239 l 574 239 l 636 0 l 800 0 l 496 993 l 335 993 z m 240 1292 l 357 1100 l 464 1100 l 393 1292 z m 294 368 l 413 851 l 418 851 l 533 368 z "},"Ā":{"ha":833,"x_min":0,"x_max":0,"o":"m 33 0 l 193 0 l 254 239 l 574 239 l 636 0 l 800 0 l 496 993 l 335 993 z m 232 1119 l 599 1119 l 599 1226 l 232 1226 z m 294 368 l 413 851 l 418 851 l 533 368 z "},"Ą":{"ha":833,"x_min":0,"x_max":0,"o":"m 33 0 l 193 0 l 254 239 l 574 239 l 636 0 l 704 0 b 600 -140 656 -24 600 -75 b 733 -246 600 -204 646 -246 b 829 -232 767 -246 801 -240 l 829 -139 b 764 -151 810 -146 789 -151 b 714 -111 736 -151 714 -137 b 800 0 714 -82 746 -43 l 496 993 l 335 993 z m 294 368 l 413 851 l 418 851 l 533 368 z "},"Å":{"ha":833,"x_min":0,"x_max":0,"o":"m 33 0 l 193 0 l 254 239 l 574 239 l 636 0 l 800 0 l 496 993 l 335 993 z m 286 1183 b 414 1056 286 1107 342 1056 b 543 1183 489 1056 543 1107 b 414 1311 543 1260 489 1311 b 286 1183 342 1311 286 1260 z m 294 368 l 413 851 l 418 851 l 533 368 z m 351 1183 b 414 1250 351 1222 378 1250 b 479 1183 453 1250 479 1222 b 414 1117 479 1143 453 1117 b 351 1183 378 1117 351 1143 z "},"Ã":{"ha":833,"x_min":0,"x_max":0,"o":"m 33 0 l 193 0 l 254 239 l 574 239 l 636 0 l 800 0 l 496 993 l 335 993 z m 208 1108 l 300 1108 b 336 1157 300 1126 304 1157 b 510 1106 376 1157 440 1106 b 617 1253 567 1106 617 1146 l 525 1253 b 490 1204 525 1232 521 1204 b 315 1256 449 1204 386 1256 b 208 1108 258 1256 208 1213 z m 294 368 l 413 851 l 418 851 l 533 368 z "},"Æ":{"ha":833,"x_min":0,"x_max":0,"o":"m 21 0 l 176 0 l 238 239 l 421 239 l 421 0 l 783 0 l 783 132 l 567 132 l 567 447 l 721 447 l 721 579 l 567 579 l 567 861 l 768 861 l 768 993 l 314 993 z m 269 368 l 396 857 l 421 857 l 421 368 z "},"B":{"ha":833,"x_min":0,"x_max":0,"o":"m 110 0 l 486 0 b 764 290 654 0 764 100 b 606 533 764 435 692 514 l 606 536 b 732 743 672 564 732 622 b 468 993 732 900 635 993 l 110 993 z m 261 132 l 261 460 l 474 460 b 607 296 557 460 607 400 b 461 132 607 201 569 132 z m 261 581 l 261 861 l 456 861 b 575 721 529 861 575 810 b 449 581 575 632 536 581 z "},"C":{"ha":833,"x_min":0,"x_max":0,"o":"m 432 -19 b 750 361 631 -19 735 140 l 593 361 b 432 113 583 239 554 113 b 249 497 283 113 249 301 b 431 881 249 692 283 881 b 593 656 540 881 576 783 l 750 656 b 436 1013 732 858 632 1013 b 92 496 210 1013 92 793 b 432 -19 92 197 208 -19 z "},"Ć":{"ha":833,"x_min":0,"x_max":0,"o":"m 432 -19 b 750 361 631 -19 735 140 l 593 361 b 432 113 583 239 554 113 b 249 497 283 113 249 301 b 431 881 249 692 283 881 b 593 656 540 881 576 783 l 750 656 b 436 1013 732 858 632 1013 b 92 496 210 1013 92 793 b 432 -19 92 197 208 -19 z m 372 1100 l 481 1100 l 614 1292 l 454 1292 z "},"Č":{"ha":833,"x_min":0,"x_max":0,"o":"m 432 -19 b 750 361 631 -19 735 140 l 593 361 b 432 113 583 239 554 113 b 249 497 283 113 249 301 b 431 881 249 692 283 881 b 593 656 540 881 576 783 l 750 656 b 436 1013 732 858 632 1013 b 92 496 210 1013 92 793 b 432 -19 92 197 208 -19 z m 232 1292 l 364 1100 l 511 1100 l 643 1292 l 513 1292 l 439 1168 l 436 1168 l 361 1292 z "},"Ç":{"ha":833,"x_min":0,"x_max":0,"o":"m 407 -275 b 560 -167 485 -275 560 -243 b 422 -76 560 -90 482 -68 l 422 -74 l 469 -18 b 750 361 644 1 736 154 l 593 361 b 432 113 583 239 554 113 b 249 497 283 113 249 301 b 431 881 249 692 283 881 b 593 656 540 881 576 783 l 750 656 b 436 1013 732 858 632 1013 b 92 496 210 1013 92 793 b 394 -17 92 215 194 6 l 322 -103 l 343 -133 b 399 -124 357 -128 382 -124 b 451 -165 432 -124 451 -135 b 383 -214 451 -194 428 -214 b 289 -193 347 -214 319 -206 l 257 -232 b 407 -275 294 -256 347 -275 z "},"Ĉ":{"ha":833,"x_min":0,"x_max":0,"o":"m 432 -19 b 750 361 631 -19 735 140 l 593 361 b 432 113 583 239 554 113 b 249 497 283 113 249 301 b 431 881 249 692 283 881 b 593 656 540 881 576 783 l 750 656 b 436 1013 732 858 632 1013 b 92 496 210 1013 92 793 b 432 -19 92 197 208 -19 z m 232 1100 l 361 1100 l 436 1224 l 439 1224 l 513 1100 l 643 1100 l 511 1292 l 364 1292 z "},"Ċ":{"ha":833,"x_min":0,"x_max":0,"o":"m 432 -19 b 750 361 631 -19 735 140 l 593 361 b 432 113 583 239 554 113 b 249 497 283 113 249 301 b 431 881 249 692 283 881 b 593 656 540 881 576 783 l 750 656 b 436 1013 732 858 632 1013 b 92 496 210 1013 92 793 b 432 -19 92 197 208 -19 z m 346 1119 l 531 1119 l 531 1294 l 346 1294 z "},"D":{"ha":833,"x_min":0,"x_max":0,"o":"m 101 0 l 425 0 b 768 496 640 0 768 179 b 419 993 768 813 633 993 l 101 993 z m 251 132 l 251 861 l 406 861 b 613 496 565 861 613 689 b 406 132 613 303 567 132 z "},"Ď":{"ha":833,"x_min":0,"x_max":0,"o":"m 101 0 l 425 0 b 768 496 640 0 768 179 b 419 993 768 813 633 993 l 101 993 z m 154 1292 l 286 1100 l 433 1100 l 565 1292 l 435 1292 l 361 1168 l 358 1168 l 283 1292 z m 251 132 l 251 861 l 406 861 b 613 496 565 861 613 689 b 406 132 613 303 567 132 z "},"Đ":{"ha":833,"x_min":0,"x_max":0,"o":"m 25 463 l 115 463 l 115 0 l 425 0 b 768 496 640 0 768 179 b 419 993 768 813 633 993 l 115 993 l 115 565 l 25 565 z m 265 132 l 265 463 l 457 463 l 457 565 l 265 565 l 265 861 l 406 861 b 613 496 565 861 613 689 b 406 132 613 303 567 132 z "},"Ð":{"ha":833,"x_min":0,"x_max":0,"o":"m 25 463 l 115 463 l 115 0 l 425 0 b 768 496 640 0 768 179 b 419 993 768 813 633 993 l 115 993 l 115 565 l 25 565 z m 265 132 l 265 463 l 457 463 l 457 565 l 265 565 l 265 861 l 406 861 b 613 496 565 861 613 689 b 406 132 613 303 567 132 z "},"E":{"ha":833,"x_min":0,"x_max":0,"o":"m 124 0 l 754 0 l 754 132 l 278 132 l 278 447 l 682 447 l 682 579 l 278 579 l 278 861 l 742 861 l 742 993 l 124 993 z "},"É":{"ha":833,"x_min":0,"x_max":0,"o":"m 124 0 l 754 0 l 754 132 l 278 132 l 278 447 l 682 447 l 682 579 l 278 579 l 278 861 l 742 861 l 742 993 l 124 993 z m 369 1100 l 478 1100 l 611 1292 l 451 1292 z "},"Ě":{"ha":833,"x_min":0,"x_max":0,"o":"m 124 0 l 754 0 l 754 132 l 278 132 l 278 447 l 682 447 l 682 579 l 278 579 l 278 861 l 742 861 l 742 993 l 124 993 z m 229 1292 l 361 1100 l 508 1100 l 640 1292 l 510 1292 l 436 1168 l 433 1168 l 358 1292 z "},"Ê":{"ha":833,"x_min":0,"x_max":0,"o":"m 124 0 l 754 0 l 754 132 l 278 132 l 278 447 l 682 447 l 682 579 l 278 579 l 278 861 l 742 861 l 742 993 l 124 993 z m 229 1100 l 358 1100 l 433 1224 l 436 1224 l 510 1100 l 640 1100 l 508 1292 l 361 1292 z "},"Ë":{"ha":833,"x_min":0,"x_max":0,"o":"m 124 0 l 754 0 l 754 132 l 278 132 l 278 447 l 682 447 l 682 579 l 278 579 l 278 861 l 742 861 l 742 993 l 124 993 z m 240 1119 l 394 1119 l 394 1267 l 240 1267 z m 474 1119 l 628 1119 l 628 1267 l 474 1267 z "},"Ė":{"ha":833,"x_min":0,"x_max":0,"o":"m 124 0 l 754 0 l 754 132 l 278 132 l 278 447 l 682 447 l 682 579 l 278 579 l 278 861 l 742 861 l 742 993 l 124 993 z m 343 1119 l 528 1119 l 528 1294 l 343 1294 z "},"È":{"ha":833,"x_min":0,"x_max":0,"o":"m 124 0 l 754 0 l 754 132 l 278 132 l 278 447 l 682 447 l 682 579 l 278 579 l 278 861 l 742 861 l 742 993 l 124 993 z m 260 1292 l 376 1100 l 483 1100 l 413 1292 z "},"Ē":{"ha":833,"x_min":0,"x_max":0,"o":"m 124 0 l 754 0 l 754 132 l 278 132 l 278 447 l 682 447 l 682 579 l 278 579 l 278 861 l 742 861 l 742 993 l 124 993 z m 251 1119 l 618 1119 l 618 1226 l 251 1226 z "},"Ę":{"ha":833,"x_min":0,"x_max":0,"o":"m 124 0 l 658 0 b 554 -140 610 -24 554 -75 b 688 -246 554 -204 600 -246 b 783 -232 721 -246 756 -240 l 783 -139 b 718 -151 764 -146 743 -151 b 668 -111 690 -151 668 -137 b 754 0 668 -82 700 -43 l 754 132 l 278 132 l 278 447 l 682 447 l 682 579 l 278 579 l 278 861 l 742 861 l 742 993 l 124 993 z "},"F":{"ha":833,"x_min":0,"x_max":0,"o":"m 133 0 l 288 0 l 288 431 l 672 431 l 672 563 l 288 563 l 288 861 l 763 861 l 763 993 l 133 993 z "},"G":{"ha":833,"x_min":0,"x_max":0,"o":"m 400 -19 b 617 138 501 -19 574 31 l 619 138 l 643 0 l 749 0 l 749 519 l 425 519 l 425 392 l 593 392 b 418 113 592 219 528 113 b 229 497 272 113 229 311 b 424 881 229 683 276 881 b 582 686 510 881 568 813 l 738 686 b 425 1013 717 878 604 1013 b 74 492 197 1013 74 793 b 400 -19 74 199 188 -19 z "},"Ğ":{"ha":833,"x_min":0,"x_max":0,"o":"m 400 -19 b 617 138 501 -19 574 31 l 619 138 l 643 0 l 749 0 l 749 519 l 425 519 l 425 392 l 593 392 b 418 113 592 219 528 113 b 229 497 272 113 229 311 b 424 881 229 683 276 881 b 582 686 510 881 568 813 l 738 686 b 425 1013 717 878 604 1013 b 74 492 197 1013 74 793 b 400 -19 74 199 188 -19 z m 231 1278 b 418 1086 235 1150 313 1086 b 604 1278 525 1086 599 1154 l 511 1278 b 418 1182 507 1211 478 1182 b 324 1278 358 1182 328 1211 z "},"Ĝ":{"ha":833,"x_min":0,"x_max":0,"o":"m 400 -19 b 617 138 501 -19 574 31 l 619 138 l 643 0 l 749 0 l 749 519 l 425 519 l 425 392 l 593 392 b 418 113 592 219 528 113 b 229 497 272 113 229 311 b 424 881 229 683 276 881 b 582 686 510 881 568 813 l 738 686 b 425 1013 717 878 604 1013 b 74 492 197 1013 74 793 b 400 -19 74 199 188 -19 z m 213 1100 l 342 1100 l 417 1224 l 419 1224 l 493 1100 l 624 1100 l 492 1292 l 344 1292 z "},"Ģ":{"ha":833,"x_min":0,"x_max":0,"o":"m 400 -19 b 617 138 501 -19 574 31 l 619 138 l 643 0 l 749 0 l 749 519 l 425 519 l 425 392 l 593 392 b 418 113 592 219 528 113 b 229 497 272 113 229 311 b 424 881 229 683 276 881 b 582 686 510 881 568 813 l 738 686 b 425 1013 717 878 604 1013 b 74 492 197 1013 74 793 b 400 -19 74 199 188 -19 z m 293 -331 l 385 -331 l 496 -68 l 344 -68 z "},"Ġ":{"ha":833,"x_min":0,"x_max":0,"o":"m 400 -19 b 617 138 501 -19 574 31 l 619 138 l 643 0 l 749 0 l 749 519 l 425 519 l 425 392 l 593 392 b 418 113 592 219 528 113 b 229 497 272 113 229 311 b 424 881 229 683 276 881 b 582 686 510 881 568 813 l 738 686 b 425 1013 717 878 604 1013 b 74 492 197 1013 74 793 b 400 -19 74 199 188 -19 z m 325 1119 l 510 1119 l 510 1294 l 325 1294 z "},"H":{"ha":833,"x_min":0,"x_max":0,"o":"m 101 0 l 253 0 l 253 446 l 581 446 l 581 0 l 732 0 l 732 993 l 581 993 l 581 578 l 253 578 l 253 993 l 101 993 z "},"Ħ":{"ha":833,"x_min":0,"x_max":0,"o":"m 14 740 l 115 740 l 115 0 l 267 0 l 267 446 l 567 446 l 567 0 l 718 0 l 718 740 l 819 740 l 819 844 l 718 844 l 718 993 l 567 993 l 567 844 l 267 844 l 267 993 l 115 993 l 115 844 l 14 844 z m 267 578 l 267 740 l 567 740 l 567 578 z "},"Ĥ":{"ha":833,"x_min":0,"x_max":0,"o":"m 101 0 l 253 0 l 253 446 l 581 446 l 581 0 l 732 0 l 732 993 l 581 993 l 581 578 l 253 578 l 253 993 l 101 993 z m 211 1100 l 340 1100 l 415 1224 l 418 1224 l 492 1100 l 622 1100 l 490 1292 l 343 1292 z "},"I":{"ha":833,"x_min":0,"x_max":0,"o":"m 113 0 l 721 0 l 721 132 l 493 132 l 493 861 l 721 861 l 721 993 l 113 993 l 113 861 l 339 861 l 339 132 l 113 132 z "},"Í":{"ha":833,"x_min":0,"x_max":0,"o":"m 351 1100 l 460 1100 l 593 1292 l 433 1292 z m 113 0 l 721 0 l 721 132 l 493 132 l 493 861 l 721 861 l 721 993 l 113 993 l 113 861 l 339 861 l 339 132 l 113 132 z "},"Î":{"ha":833,"x_min":0,"x_max":0,"o":"m 113 0 l 721 0 l 721 132 l 493 132 l 493 861 l 721 861 l 721 993 l 113 993 l 113 861 l 339 861 l 339 132 l 113 132 z m 211 1100 l 340 1100 l 415 1224 l 418 1224 l 492 1100 l 622 1100 l 490 1292 l 343 1292 z "},"Ï":{"ha":833,"x_min":0,"x_max":0,"o":"m 456 1119 l 610 1119 l 610 1267 l 456 1267 z m 113 0 l 721 0 l 721 132 l 493 132 l 493 861 l 721 861 l 721 993 l 113 993 l 113 861 l 339 861 l 339 132 l 113 132 z m 222 1119 l 376 1119 l 376 1267 l 222 1267 z "},"İ":{"ha":833,"x_min":0,"x_max":0,"o":"m 113 0 l 721 0 l 721 132 l 493 132 l 493 861 l 721 861 l 721 993 l 113 993 l 113 861 l 339 861 l 339 132 l 113 132 z m 325 1119 l 510 1119 l 510 1294 l 325 1294 z "},"Ì":{"ha":833,"x_min":0,"x_max":0,"o":"m 113 0 l 721 0 l 721 132 l 493 132 l 493 861 l 721 861 l 721 993 l 113 993 l 113 861 l 339 861 l 339 132 l 113 132 z m 242 1292 l 358 1100 l 465 1100 l 394 1292 z "},"Ī":{"ha":833,"x_min":0,"x_max":0,"o":"m 233 1119 l 600 1119 l 600 1226 l 233 1226 z m 113 0 l 721 0 l 721 132 l 493 132 l 493 861 l 721 861 l 721 993 l 113 993 l 113 861 l 339 861 l 339 132 l 113 132 z "},"Į":{"ha":833,"x_min":0,"x_max":0,"o":"m 113 0 l 369 0 b 265 -140 321 -24 265 -75 b 399 -246 265 -204 311 -246 b 494 -232 432 -246 467 -240 l 494 -139 b 429 -151 475 -146 454 -151 b 379 -111 401 -151 379 -137 b 465 0 379 -82 411 -43 l 721 0 l 721 132 l 493 132 l 493 861 l 721 861 l 721 993 l 113 993 l 113 861 l 339 861 l 339 132 l 113 132 z "},"Ĩ":{"ha":833,"x_min":0,"x_max":0,"o":"m 210 1108 l 301 1108 b 338 1157 301 1126 306 1157 b 511 1106 378 1157 442 1106 b 618 1253 568 1106 618 1146 l 526 1253 b 492 1204 526 1232 522 1204 b 317 1256 450 1204 388 1256 b 210 1108 260 1256 210 1213 z m 113 0 l 721 0 l 721 132 l 493 132 l 493 861 l 721 861 l 721 993 l 113 993 l 113 861 l 339 861 l 339 132 l 113 132 z "},"J":{"ha":833,"x_min":0,"x_max":0,"o":"m 376 -19 b 694 310 619 -19 694 142 l 694 993 l 540 993 l 540 310 b 374 113 540 196 504 113 b 208 310 242 113 208 197 l 208 350 l 61 350 l 61 310 b 376 -19 61 142 136 -19 z "},"Ĵ":{"ha":833,"x_min":0,"x_max":0,"o":"m 376 -19 b 694 310 619 -19 694 142 l 694 993 l 540 993 l 540 310 b 374 113 540 196 504 113 b 208 310 242 113 208 197 l 208 350 l 61 350 l 61 310 b 376 -19 61 142 136 -19 z m 408 1100 l 538 1100 l 613 1224 l 615 1224 l 689 1100 l 819 1100 l 688 1292 l 540 1292 z "},"K":{"ha":833,"x_min":0,"x_max":0,"o":"m 111 0 l 261 0 l 261 297 l 383 461 l 632 0 l 808 0 l 474 582 l 782 993 l 614 993 l 261 499 l 261 993 l 111 993 z "},"Ķ":{"ha":833,"x_min":0,"x_max":0,"o":"m 111 0 l 261 0 l 261 297 l 383 461 l 632 0 l 808 0 l 474 582 l 782 993 l 614 993 l 261 499 l 261 993 l 111 993 z m 317 -331 l 408 -331 l 519 -68 l 368 -68 z "},"L":{"ha":833,"x_min":0,"x_max":0,"o":"m 151 0 l 761 0 l 761 132 l 306 132 l 306 993 l 151 993 z "},"Ĺ":{"ha":833,"x_min":0,"x_max":0,"o":"m 151 0 l 761 0 l 761 132 l 306 132 l 306 993 l 151 993 z m 156 1100 l 264 1100 l 397 1292 l 238 1292 z "},"Ľ":{"ha":833,"x_min":0,"x_max":0,"o":"m 151 0 l 761 0 l 761 132 l 306 132 l 306 993 l 151 993 z m 494 722 l 596 722 l 682 993 l 526 993 z "},"Ļ":{"ha":833,"x_min":0,"x_max":0,"o":"m 151 0 l 761 0 l 761 132 l 306 132 l 306 993 l 151 993 z m 326 -331 l 418 -331 l 529 -68 l 378 -68 z "},"Ł":{"ha":833,"x_min":0,"x_max":0,"o":"m 47 258 l 165 339 l 165 0 l 761 0 l 761 132 l 319 132 l 319 444 l 518 579 l 518 699 l 319 564 l 319 993 l 165 993 l 165 460 l 47 379 z "},"M":{"ha":833,"x_min":0,"x_max":0,"o":"m 79 0 l 219 0 l 219 757 l 222 757 l 354 222 l 479 222 l 611 757 l 614 757 l 614 0 l 754 0 l 754 993 l 586 993 l 418 363 l 415 363 l 247 993 l 79 993 z "},"N":{"ha":833,"x_min":0,"x_max":0,"o":"m 100 0 l 250 0 l 246 764 l 249 764 l 563 0 l 733 0 l 733 993 l 583 993 l 583 229 l 581 229 l 271 993 l 100 993 z "},"Ń":{"ha":833,"x_min":0,"x_max":0,"o":"m 100 0 l 250 0 l 246 764 l 249 764 l 563 0 l 733 0 l 733 993 l 583 993 l 583 229 l 581 229 l 271 993 l 100 993 z m 351 1100 l 460 1100 l 593 1292 l 433 1292 z "},"Ň":{"ha":833,"x_min":0,"x_max":0,"o":"m 100 0 l 250 0 l 246 764 l 249 764 l 563 0 l 733 0 l 733 993 l 583 993 l 583 229 l 581 229 l 271 993 l 100 993 z m 211 1292 l 343 1100 l 490 1100 l 622 1292 l 492 1292 l 418 1168 l 415 1168 l 340 1292 z "},"Ņ":{"ha":833,"x_min":0,"x_max":0,"o":"m 100 0 l 250 0 l 246 764 l 249 764 l 563 0 l 733 0 l 733 993 l 583 993 l 583 229 l 581 229 l 271 993 l 100 993 z m 292 -331 l 383 -331 l 494 -68 l 343 -68 z "},"Ñ":{"ha":833,"x_min":0,"x_max":0,"o":"m 100 0 l 250 0 l 246 764 l 249 764 l 563 0 l 733 0 l 733 993 l 583 993 l 583 229 l 581 229 l 271 993 l 100 993 z m 210 1108 l 301 1108 b 338 1157 301 1126 306 1157 b 511 1106 378 1157 442 1106 b 618 1253 568 1106 618 1146 l 526 1253 b 492 1204 526 1232 522 1204 b 317 1256 450 1204 388 1256 b 210 1108 260 1256 210 1213 z "},"Ŋ":{"ha":833,"x_min":0,"x_max":0,"o":"m 529 -247 b 733 15 663 -247 733 -167 l 733 993 l 583 993 l 583 229 l 581 229 l 271 993 l 100 993 l 100 0 l 250 0 l 246 764 l 249 764 l 575 -19 b 444 -126 568 -114 521 -136 l 444 -237 b 529 -247 469 -244 497 -247 z "},"O":{"ha":833,"x_min":0,"x_max":0,"o":"m 418 -19 b 769 497 635 -19 769 172 b 418 1013 769 822 635 1013 b 64 497 200 1013 64 822 b 418 -19 64 172 200 -19 z m 219 497 b 418 881 219 728 272 881 b 614 497 560 881 614 732 b 418 113 614 264 560 113 b 219 497 272 113 219 267 z "},"Ó":{"ha":833,"x_min":0,"x_max":0,"o":"m 418 -19 b 769 497 635 -19 769 172 b 418 1013 769 822 635 1013 b 64 497 200 1013 64 822 b 418 -19 64 172 200 -19 z m 219 497 b 418 881 219 728 272 881 b 614 497 560 881 614 732 b 418 113 614 264 560 113 b 219 497 272 113 219 267 z m 351 1100 l 460 1100 l 593 1292 l 433 1292 z "},"Ô":{"ha":833,"x_min":0,"x_max":0,"o":"m 418 -19 b 769 497 635 -19 769 172 b 418 1013 769 822 635 1013 b 64 497 200 1013 64 822 b 418 -19 64 172 200 -19 z m 211 1100 l 340 1100 l 415 1224 l 418 1224 l 492 1100 l 622 1100 l 490 1292 l 343 1292 z m 219 497 b 418 881 219 728 272 881 b 614 497 560 881 614 732 b 418 113 614 264 560 113 b 219 497 272 113 219 267 z "},"Ö":{"ha":833,"x_min":0,"x_max":0,"o":"m 418 -19 b 769 497 635 -19 769 172 b 418 1013 769 822 635 1013 b 64 497 200 1013 64 822 b 418 -19 64 172 200 -19 z m 219 497 b 418 881 219 728 272 881 b 614 497 560 881 614 732 b 418 113 614 264 560 113 b 219 497 272 113 219 267 z m 222 1119 l 376 1119 l 376 1267 l 222 1267 z m 456 1119 l 610 1119 l 610 1267 l 456 1267 z "},"Ò":{"ha":833,"x_min":0,"x_max":0,"o":"m 418 -19 b 769 497 635 -19 769 172 b 418 1013 769 822 635 1013 b 64 497 200 1013 64 822 b 418 -19 64 172 200 -19 z m 219 497 b 418 881 219 728 272 881 b 614 497 560 881 614 732 b 418 113 614 264 560 113 b 219 497 272 113 219 267 z m 242 1292 l 358 1100 l 465 1100 l 394 1292 z "},"Ő":{"ha":833,"x_min":0,"x_max":0,"o":"m 418 -19 b 769 497 635 -19 769 172 b 418 1013 769 822 635 1013 b 64 497 200 1013 64 822 b 418 -19 64 172 200 -19 z m 219 497 b 418 881 219 728 272 881 b 614 497 560 881 614 732 b 418 113 614 264 560 113 b 219 497 272 113 219 267 z m 251 1100 l 357 1100 l 488 1292 l 336 1292 z m 460 1100 l 565 1100 l 701 1292 l 550 1292 z "},"Ō":{"ha":833,"x_min":0,"x_max":0,"o":"m 418 -19 b 769 497 635 -19 769 172 b 418 1013 769 822 635 1013 b 64 497 200 1013 64 822 b 418 -19 64 172 200 -19 z m 219 497 b 418 881 219 728 272 881 b 614 497 560 881 614 732 b 418 113 614 264 560 113 b 219 497 272 113 219 267 z m 233 1119 l 600 1119 l 600 1226 l 233 1226 z "},"Ø":{"ha":833,"x_min":0,"x_max":0,"o":"m 101 6 l 171 101 b 418 -19 232 22 315 -19 b 769 497 635 -19 769 172 b 703 829 769 632 746 744 l 785 940 l 733 989 l 663 893 b 418 1013 603 971 519 1013 b 64 497 200 1013 64 822 b 131 165 64 363 88 250 l 50 56 z m 219 497 b 418 881 219 728 272 881 b 572 769 492 881 542 840 l 236 308 b 219 497 225 363 219 426 z m 261 225 l 599 685 b 614 497 608 632 614 568 b 418 113 614 264 560 113 b 261 225 343 113 293 153 z "},"Õ":{"ha":833,"x_min":0,"x_max":0,"o":"m 418 -19 b 769 497 635 -19 769 172 b 418 1013 769 822 635 1013 b 64 497 200 1013 64 822 b 418 -19 64 172 200 -19 z m 210 1108 l 301 1108 b 338 1157 301 1126 306 1157 b 511 1106 378 1157 442 1106 b 618 1253 568 1106 618 1146 l 526 1253 b 492 1204 526 1232 522 1204 b 317 1256 450 1204 388 1256 b 210 1108 260 1256 210 1213 z m 219 497 b 418 881 219 728 272 881 b 614 497 560 881 614 732 b 418 113 614 264 560 113 b 219 497 272 113 219 267 z "},"Œ":{"ha":833,"x_min":0,"x_max":0,"o":"m 38 497 b 290 -19 38 138 143 -19 b 428 60 347 -19 393 4 l 428 0 l 783 0 l 783 132 l 575 132 l 575 447 l 721 447 l 721 579 l 575 579 l 575 861 l 768 861 l 768 993 l 428 993 l 428 935 b 290 1013 393 990 346 1013 b 38 497 143 1013 38 856 z m 192 497 b 311 881 192 778 238 881 b 429 496 383 881 429 776 b 311 113 429 215 383 113 b 192 497 238 113 192 217 z "},"P":{"ha":833,"x_min":0,"x_max":0,"o":"m 124 0 l 276 0 l 276 403 l 489 403 b 771 699 651 403 771 489 b 489 993 771 907 651 993 l 124 993 z m 276 535 l 276 861 l 472 861 b 613 699 564 861 613 811 b 472 535 613 586 564 535 z "},"Þ":{"ha":833,"x_min":0,"x_max":0,"o":"m 124 0 l 276 0 l 276 242 l 489 242 b 771 538 651 242 771 331 b 489 833 771 746 651 833 l 276 833 l 276 993 l 124 993 z m 276 375 l 276 700 l 478 700 b 618 538 568 700 618 653 b 478 375 618 424 568 375 z "},"Q":{"ha":833,"x_min":0,"x_max":0,"o":"m 418 -19 b 619 54 497 -19 565 6 l 736 -62 l 825 28 l 699 156 b 769 497 744 242 769 357 b 418 1013 769 822 635 1013 b 64 497 200 1013 64 822 b 418 -19 64 172 200 -19 z m 219 497 b 418 881 219 728 272 881 b 614 497 560 881 614 732 b 588 267 614 407 606 328 l 472 382 l 383 292 l 522 151 b 418 113 496 126 461 113 b 219 497 272 113 219 267 z "},"R":{"ha":833,"x_min":0,"x_max":0,"o":"m 118 0 l 271 0 l 271 389 l 454 389 b 607 0 647 389 569 42 l 767 0 l 767 10 b 600 461 722 26 793 418 l 600 464 b 756 707 693 489 756 581 b 474 993 756 890 654 993 l 118 993 z m 271 521 l 271 861 l 444 861 b 604 697 556 861 604 804 b 443 521 604 581 546 521 z "},"Ŕ":{"ha":833,"x_min":0,"x_max":0,"o":"m 118 0 l 271 0 l 271 389 l 454 389 b 607 0 647 389 569 42 l 767 0 l 767 10 b 600 461 722 26 793 418 l 600 464 b 756 707 693 489 756 581 b 474 993 756 890 654 993 l 118 993 z m 271 521 l 271 861 l 444 861 b 604 697 556 861 604 804 b 443 521 604 581 546 521 z m 338 1100 l 446 1100 l 579 1292 l 419 1292 z "},"Ř":{"ha":833,"x_min":0,"x_max":0,"o":"m 118 0 l 271 0 l 271 389 l 454 389 b 607 0 647 389 569 42 l 767 0 l 767 10 b 600 461 722 26 793 418 l 600 464 b 756 707 693 489 756 581 b 474 993 756 890 654 993 l 118 993 z m 197 1292 l 329 1100 l 476 1100 l 608 1292 l 478 1292 l 404 1168 l 401 1168 l 326 1292 z m 271 521 l 271 861 l 444 861 b 604 697 556 861 604 804 b 443 521 604 581 546 521 z "},"Ŗ":{"ha":833,"x_min":0,"x_max":0,"o":"m 118 0 l 271 0 l 271 389 l 454 389 b 607 0 647 389 569 42 l 767 0 l 767 10 b 600 461 722 26 793 418 l 600 464 b 756 707 693 489 756 581 b 474 993 756 890 654 993 l 118 993 z m 271 521 l 271 861 l 444 861 b 604 697 556 861 604 804 b 443 521 604 581 546 521 z m 304 -331 l 396 -331 l 507 -68 l 356 -68 z "},"S":{"ha":833,"x_min":0,"x_max":0,"o":"m 440 -19 b 764 279 656 -19 764 108 b 443 583 764 488 604 535 b 256 750 332 617 256 642 b 406 883 256 838 308 883 b 585 697 517 883 571 818 l 743 697 b 407 1013 732 896 603 1013 b 97 742 219 1013 97 910 b 374 461 97 556 239 504 b 606 271 526 415 606 397 b 439 110 606 179 563 110 b 222 335 294 110 229 204 l 65 335 b 440 -19 72 107 226 -19 z "},"Ś":{"ha":833,"x_min":0,"x_max":0,"o":"m 440 -19 b 764 279 656 -19 764 108 b 443 583 764 488 604 535 b 256 750 332 617 256 642 b 406 883 256 838 308 883 b 585 697 517 883 571 818 l 743 697 b 407 1013 732 896 603 1013 b 97 742 219 1013 97 910 b 374 461 97 556 239 504 b 606 271 526 415 606 397 b 439 110 606 179 563 110 b 222 335 294 110 229 204 l 65 335 b 440 -19 72 107 226 -19 z m 344 1100 l 453 1100 l 586 1292 l 426 1292 z "},"Š":{"ha":833,"x_min":0,"x_max":0,"o":"m 440 -19 b 764 279 656 -19 764 108 b 443 583 764 488 604 535 b 256 750 332 617 256 642 b 406 883 256 838 308 883 b 585 697 517 883 571 818 l 743 697 b 407 1013 732 896 603 1013 b 97 742 219 1013 97 910 b 374 461 97 556 239 504 b 606 271 526 415 606 397 b 439 110 606 179 563 110 b 222 335 294 110 229 204 l 65 335 b 440 -19 72 107 226 -19 z m 204 1292 l 336 1100 l 483 1100 l 615 1292 l 485 1292 l 411 1168 l 408 1168 l 333 1292 z "},"Ş":{"ha":833,"x_min":0,"x_max":0,"o":"m 422 -275 b 575 -167 500 -275 575 -243 b 438 -76 575 -90 497 -68 l 438 -74 l 485 -18 b 764 279 671 -1 764 121 b 443 583 764 488 604 535 b 256 750 332 617 256 642 b 406 883 256 838 308 883 b 585 697 517 883 571 818 l 743 697 b 407 1013 732 896 603 1013 b 97 742 219 1013 97 910 b 374 461 97 556 239 504 b 606 271 526 415 606 397 b 439 110 606 179 563 110 b 222 335 294 110 229 204 l 65 335 b 408 -18 72 118 211 -7 l 338 -103 l 358 -133 b 414 -124 372 -128 397 -124 b 467 -165 447 -124 467 -135 b 399 -214 467 -194 443 -214 b 304 -193 363 -214 335 -206 l 272 -232 b 422 -275 310 -256 363 -275 z "},"Ŝ":{"ha":833,"x_min":0,"x_max":0,"o":"m 440 -19 b 764 279 656 -19 764 108 b 443 583 764 488 604 535 b 256 750 332 617 256 642 b 406 883 256 838 308 883 b 585 697 517 883 571 818 l 743 697 b 407 1013 732 896 603 1013 b 97 742 219 1013 97 910 b 374 461 97 556 239 504 b 606 271 526 415 606 397 b 439 110 606 179 563 110 b 222 335 294 110 229 204 l 65 335 b 440 -19 72 107 226 -19 z m 204 1100 l 333 1100 l 408 1224 l 411 1224 l 485 1100 l 615 1100 l 483 1292 l 336 1292 z "},"Ș":{"ha":833,"x_min":0,"x_max":0,"o":"m 440 -19 b 764 279 656 -19 764 108 b 443 583 764 488 604 535 b 256 750 332 617 256 642 b 406 883 256 838 308 883 b 585 697 517 883 571 818 l 743 697 b 407 1013 732 896 603 1013 b 97 742 219 1013 97 910 b 374 461 97 556 239 504 b 606 271 526 415 606 397 b 439 110 606 179 563 110 b 222 335 294 110 229 204 l 65 335 b 440 -19 72 107 226 -19 z m 326 -331 l 418 -331 l 529 -68 l 378 -68 z "},"T":{"ha":833,"x_min":0,"x_max":0,"o":"m 340 0 l 493 0 l 493 861 l 776 861 l 776 993 l 57 993 l 57 861 l 340 861 z "},"Ŧ":{"ha":833,"x_min":0,"x_max":0,"o":"m 340 0 l 493 0 l 493 463 l 706 463 l 706 565 l 493 565 l 493 861 l 776 861 l 776 993 l 57 993 l 57 861 l 340 861 l 340 565 l 126 565 l 126 463 l 340 463 z "},"Ť":{"ha":833,"x_min":0,"x_max":0,"o":"m 340 0 l 493 0 l 493 861 l 776 861 l 776 993 l 57 993 l 57 861 l 340 861 z m 211 1292 l 343 1100 l 490 1100 l 622 1292 l 492 1292 l 418 1168 l 415 1168 l 340 1292 z "},"Ţ":{"ha":833,"x_min":0,"x_max":0,"o":"m 340 0 l 388 0 l 301 -103 l 322 -133 b 378 -124 336 -128 361 -124 b 431 -165 411 -124 431 -135 b 363 -214 431 -194 407 -214 b 268 -193 326 -214 299 -206 l 236 -232 b 386 -275 274 -256 326 -275 b 539 -167 464 -275 539 -243 b 401 -76 539 -90 461 -68 l 401 -74 l 464 0 l 493 0 l 493 861 l 776 861 l 776 993 l 57 993 l 57 861 l 340 861 z "},"Ț":{"ha":833,"x_min":0,"x_max":0,"o":"m 340 0 l 493 0 l 493 861 l 776 861 l 776 993 l 57 993 l 57 861 l 340 861 z m 290 -331 l 382 -331 l 493 -68 l 342 -68 z "},"U":{"ha":833,"x_min":0,"x_max":0,"o":"m 417 -19 b 732 336 642 -19 732 125 l 732 993 l 579 993 l 579 336 b 417 113 579 182 525 113 b 254 336 307 113 254 182 l 254 993 l 101 993 l 101 336 b 417 -19 101 124 192 -19 z "},"Ú":{"ha":833,"x_min":0,"x_max":0,"o":"m 417 -19 b 732 336 642 -19 732 125 l 732 993 l 579 993 l 579 336 b 417 113 579 182 525 113 b 254 336 307 113 254 182 l 254 993 l 101 993 l 101 336 b 417 -19 101 124 192 -19 z m 351 1100 l 460 1100 l 593 1292 l 433 1292 z "},"Ŭ":{"ha":833,"x_min":0,"x_max":0,"o":"m 417 -19 b 732 336 642 -19 732 125 l 732 993 l 579 993 l 579 336 b 417 113 579 182 525 113 b 254 336 307 113 254 182 l 254 993 l 101 993 l 101 336 b 417 -19 101 124 192 -19 z m 229 1278 b 417 1086 233 1150 311 1086 b 603 1278 524 1086 597 1154 l 510 1278 b 417 1182 506 1211 476 1182 b 322 1278 357 1182 326 1211 z "},"Û":{"ha":833,"x_min":0,"x_max":0,"o":"m 417 -19 b 732 336 642 -19 732 125 l 732 993 l 579 993 l 579 336 b 417 113 579 182 525 113 b 254 336 307 113 254 182 l 254 993 l 101 993 l 101 336 b 417 -19 101 124 192 -19 z m 211 1100 l 340 1100 l 415 1224 l 418 1224 l 492 1100 l 622 1100 l 490 1292 l 343 1292 z "},"Ü":{"ha":833,"x_min":0,"x_max":0,"o":"m 417 -19 b 732 336 642 -19 732 125 l 732 993 l 579 993 l 579 336 b 417 113 579 182 525 113 b 254 336 307 113 254 182 l 254 993 l 101 993 l 101 336 b 417 -19 101 124 192 -19 z m 222 1119 l 376 1119 l 376 1267 l 222 1267 z m 456 1119 l 610 1119 l 610 1267 l 456 1267 z "},"Ù":{"ha":833,"x_min":0,"x_max":0,"o":"m 417 -19 b 732 336 642 -19 732 125 l 732 993 l 579 993 l 579 336 b 417 113 579 182 525 113 b 254 336 307 113 254 182 l 254 993 l 101 993 l 101 336 b 417 -19 101 124 192 -19 z m 242 1292 l 358 1100 l 465 1100 l 394 1292 z "},"Ű":{"ha":833,"x_min":0,"x_max":0,"o":"m 417 -19 b 732 336 642 -19 732 125 l 732 993 l 579 993 l 579 336 b 417 113 579 182 525 113 b 254 336 307 113 254 182 l 254 993 l 101 993 l 101 336 b 417 -19 101 124 192 -19 z m 251 1100 l 357 1100 l 488 1292 l 336 1292 z m 460 1100 l 565 1100 l 701 1292 l 550 1292 z "},"Ū":{"ha":833,"x_min":0,"x_max":0,"o":"m 417 -19 b 732 336 642 -19 732 125 l 732 993 l 579 993 l 579 336 b 417 113 579 182 525 113 b 254 336 307 113 254 182 l 254 993 l 101 993 l 101 336 b 417 -19 101 124 192 -19 z m 233 1119 l 600 1119 l 600 1226 l 233 1226 z "},"Ų":{"ha":833,"x_min":0,"x_max":0,"o":"m 468 -246 b 564 -232 501 -246 536 -240 l 564 -139 b 499 -151 544 -146 524 -151 b 449 -111 471 -151 449 -137 b 529 -6 449 -83 478 -46 b 732 336 672 36 732 164 l 732 993 l 579 993 l 579 336 b 417 113 579 182 525 113 b 254 336 307 113 254 182 l 254 993 l 101 993 l 101 336 b 407 -19 101 126 189 -15 b 335 -140 368 -47 335 -89 b 468 -246 335 -204 381 -246 z "},"Ů":{"ha":833,"x_min":0,"x_max":0,"o":"m 417 -19 b 732 336 642 -19 732 125 l 732 993 l 579 993 l 579 336 b 417 113 579 182 525 113 b 254 336 307 113 254 182 l 254 993 l 101 993 l 101 336 b 417 -19 101 124 192 -19 z m 288 1183 b 415 1056 288 1107 343 1056 b 544 1183 490 1056 544 1107 b 415 1311 544 1260 490 1311 b 288 1183 343 1311 288 1260 z m 353 1183 b 415 1250 353 1222 379 1250 b 481 1183 454 1250 481 1222 b 415 1117 481 1143 454 1117 b 353 1183 379 1117 353 1143 z "},"Ũ":{"ha":833,"x_min":0,"x_max":0,"o":"m 417 -19 b 732 336 642 -19 732 125 l 732 993 l 579 993 l 579 336 b 417 113 579 182 525 113 b 254 336 307 113 254 182 l 254 993 l 101 993 l 101 336 b 417 -19 101 124 192 -19 z m 210 1108 l 301 1108 b 338 1157 301 1126 306 1157 b 511 1106 378 1157 442 1106 b 618 1253 568 1106 618 1146 l 526 1253 b 492 1204 526 1232 522 1204 b 317 1256 450 1204 388 1256 b 210 1108 260 1256 210 1213 z "},"V":{"ha":833,"x_min":0,"x_max":0,"o":"m 338 0 l 503 0 l 793 993 l 633 993 l 422 161 l 421 161 l 207 993 l 40 993 z "},"W":{"ha":833,"x_min":0,"x_max":0,"o":"m 171 0 l 313 0 l 415 608 l 417 608 l 521 0 l 663 0 l 793 993 l 646 993 l 578 224 l 576 224 l 479 750 l 354 750 l 257 224 l 254 224 l 188 993 l 40 993 z "},"Ẃ":{"ha":833,"x_min":0,"x_max":0,"o":"m 171 0 l 313 0 l 415 608 l 417 608 l 521 0 l 663 0 l 793 993 l 646 993 l 578 224 l 576 224 l 479 750 l 354 750 l 257 224 l 254 224 l 188 993 l 40 993 z m 353 1100 l 461 1100 l 594 1292 l 435 1292 z "},"Ŵ":{"ha":833,"x_min":0,"x_max":0,"o":"m 171 0 l 313 0 l 415 608 l 417 608 l 521 0 l 663 0 l 793 993 l 646 993 l 578 224 l 576 224 l 479 750 l 354 750 l 257 224 l 254 224 l 188 993 l 40 993 z m 213 1100 l 342 1100 l 417 1224 l 419 1224 l 493 1100 l 624 1100 l 492 1292 l 344 1292 z "},"Ẅ":{"ha":833,"x_min":0,"x_max":0,"o":"m 171 0 l 313 0 l 415 608 l 417 608 l 521 0 l 663 0 l 793 993 l 646 993 l 578 224 l 576 224 l 479 750 l 354 750 l 257 224 l 254 224 l 188 993 l 40 993 z m 224 1119 l 378 1119 l 378 1267 l 224 1267 z m 457 1119 l 611 1119 l 611 1267 l 457 1267 z "},"Ẁ":{"ha":833,"x_min":0,"x_max":0,"o":"m 171 0 l 313 0 l 415 608 l 417 608 l 521 0 l 663 0 l 793 993 l 646 993 l 578 224 l 576 224 l 479 750 l 354 750 l 257 224 l 254 224 l 188 993 l 40 993 z m 243 1292 l 360 1100 l 467 1100 l 396 1292 z "},"X":{"ha":833,"x_min":0,"x_max":0,"o":"m 39 0 l 207 0 l 413 396 l 415 396 l 622 0 l 794 0 l 506 510 l 782 993 l 615 993 l 419 618 l 418 618 l 224 993 l 54 993 l 331 507 z "},"Y":{"ha":833,"x_min":0,"x_max":0,"o":"m 340 0 l 493 0 l 493 399 l 810 993 l 647 993 l 418 518 l 415 518 l 189 993 l 24 993 l 340 399 z "},"Ý":{"ha":833,"x_min":0,"x_max":0,"o":"m 340 0 l 493 0 l 493 399 l 810 993 l 647 993 l 418 518 l 415 518 l 189 993 l 24 993 l 340 399 z m 353 1100 l 461 1100 l 594 1292 l 435 1292 z "},"Ŷ":{"ha":833,"x_min":0,"x_max":0,"o":"m 340 0 l 493 0 l 493 399 l 810 993 l 647 993 l 418 518 l 415 518 l 189 993 l 24 993 l 340 399 z m 213 1100 l 342 1100 l 417 1224 l 419 1224 l 493 1100 l 624 1100 l 492 1292 l 344 1292 z "},"Ÿ":{"ha":833,"x_min":0,"x_max":0,"o":"m 340 0 l 493 0 l 493 399 l 810 993 l 647 993 l 418 518 l 415 518 l 189 993 l 24 993 l 340 399 z m 224 1119 l 378 1119 l 378 1267 l 224 1267 z m 457 1119 l 611 1119 l 611 1267 l 457 1267 z "},"Ỳ":{"ha":833,"x_min":0,"x_max":0,"o":"m 340 0 l 493 0 l 493 399 l 810 993 l 647 993 l 418 518 l 415 518 l 189 993 l 24 993 l 340 399 z m 243 1292 l 360 1100 l 467 1100 l 396 1292 z "},"Z":{"ha":833,"x_min":0,"x_max":0,"o":"m 72 0 l 761 0 l 761 132 l 260 132 l 260 135 l 749 864 l 749 993 l 97 993 l 97 861 l 561 861 l 561 858 l 72 129 z "},"Ź":{"ha":833,"x_min":0,"x_max":0,"o":"m 72 0 l 761 0 l 761 132 l 260 132 l 260 135 l 749 864 l 749 993 l 97 993 l 97 861 l 561 861 l 561 858 l 72 129 z m 354 1100 l 463 1100 l 596 1292 l 436 1292 z "},"Ž":{"ha":833,"x_min":0,"x_max":0,"o":"m 72 0 l 761 0 l 761 132 l 260 132 l 260 135 l 749 864 l 749 993 l 97 993 l 97 861 l 561 861 l 561 858 l 72 129 z m 214 1292 l 346 1100 l 493 1100 l 625 1292 l 494 1292 l 421 1168 l 418 1168 l 343 1292 z "},"Ż":{"ha":833,"x_min":0,"x_max":0,"o":"m 72 0 l 761 0 l 761 132 l 260 132 l 260 135 l 749 864 l 749 993 l 97 993 l 97 861 l 561 861 l 561 858 l 72 129 z m 328 1119 l 513 1119 l 513 1294 l 328 1294 z "},"a":{"ha":833,"x_min":0,"x_max":0,"o":"m 317 -19 b 549 100 422 -19 503 29 l 551 100 b 671 -7 560 17 604 -7 b 751 3 703 -7 728 -4 l 751 86 b 726 83 740 83 731 83 b 681 147 692 83 681 99 l 681 486 b 418 731 681 669 572 731 b 128 488 225 731 133 625 l 264 488 b 414 621 269 571 300 621 b 549 529 517 621 549 579 b 372 422 549 458 489 446 b 96 190 210 390 96 342 b 317 -19 96 60 179 -19 z m 238 193 b 401 326 238 272 283 299 b 549 379 493 349 522 357 l 549 276 b 358 90 549 151 467 90 b 238 193 271 90 238 125 z "},"á":{"ha":833,"x_min":0,"x_max":0,"o":"m 317 -19 b 549 100 422 -19 503 29 l 551 100 b 671 -7 560 17 604 -7 b 751 3 703 -7 728 -4 l 751 86 b 726 83 740 83 731 83 b 681 147 692 83 681 99 l 681 486 b 418 731 681 669 572 731 b 128 488 225 731 133 625 l 264 488 b 414 621 269 571 300 621 b 549 529 517 621 549 579 b 372 422 549 458 489 446 b 96 190 210 390 96 342 b 317 -19 96 60 179 -19 z m 238 193 b 401 326 238 272 283 299 b 549 379 493 349 522 357 l 549 276 b 358 90 549 151 467 90 b 238 193 271 90 238 125 z m 360 815 l 468 815 l 601 1007 l 442 1007 z "},"ă":{"ha":833,"x_min":0,"x_max":0,"o":"m 317 -19 b 549 100 422 -19 503 29 l 551 100 b 671 -7 560 17 604 -7 b 751 3 703 -7 728 -4 l 751 86 b 726 83 740 83 731 83 b 681 147 692 83 681 99 l 681 486 b 418 731 681 669 572 731 b 128 488 225 731 133 625 l 264 488 b 414 621 269 571 300 621 b 549 529 517 621 549 579 b 372 422 549 458 489 446 b 96 190 210 390 96 342 b 317 -19 96 60 179 -19 z m 238 193 b 401 326 238 272 283 299 b 549 379 493 349 522 357 l 549 276 b 358 90 549 151 467 90 b 238 193 271 90 238 125 z m 238 993 b 425 801 242 865 319 801 b 611 993 532 801 606 869 l 518 993 b 425 897 514 926 485 897 b 331 993 365 897 335 926 z "},"â":{"ha":833,"x_min":0,"x_max":0,"o":"m 317 -19 b 549 100 422 -19 503 29 l 551 100 b 671 -7 560 17 604 -7 b 751 3 703 -7 728 -4 l 751 86 b 726 83 740 83 731 83 b 681 147 692 83 681 99 l 681 486 b 418 731 681 669 572 731 b 128 488 225 731 133 625 l 264 488 b 414 621 269 571 300 621 b 549 529 517 621 549 579 b 372 422 549 458 489 446 b 96 190 210 390 96 342 b 317 -19 96 60 179 -19 z m 219 815 l 349 815 l 424 939 l 426 939 l 500 815 l 631 815 l 499 1007 l 351 1007 z m 238 193 b 401 326 238 272 283 299 b 549 379 493 349 522 357 l 549 276 b 358 90 549 151 467 90 b 238 193 271 90 238 125 z "},"ä":{"ha":833,"x_min":0,"x_max":0,"o":"m 317 -19 b 549 100 422 -19 503 29 l 551 100 b 671 -7 560 17 604 -7 b 751 3 703 -7 728 -4 l 751 86 b 726 83 740 83 731 83 b 681 147 692 83 681 99 l 681 486 b 418 731 681 669 572 731 b 128 488 225 731 133 625 l 264 488 b 414 621 269 571 300 621 b 549 529 517 621 549 579 b 372 422 549 458 489 446 b 96 190 210 390 96 342 b 317 -19 96 60 179 -19 z m 231 835 l 385 835 l 385 982 l 231 982 z m 238 193 b 401 326 238 272 283 299 b 549 379 493 349 522 357 l 549 276 b 358 90 549 151 467 90 b 238 193 271 90 238 125 z m 464 835 l 618 835 l 618 982 l 464 982 z "},"à":{"ha":833,"x_min":0,"x_max":0,"o":"m 317 -19 b 549 100 422 -19 503 29 l 551 100 b 671 -7 560 17 604 -7 b 751 3 703 -7 728 -4 l 751 86 b 726 83 740 83 731 83 b 681 147 692 83 681 99 l 681 486 b 418 731 681 669 572 731 b 128 488 225 731 133 625 l 264 488 b 414 621 269 571 300 621 b 549 529 517 621 549 579 b 372 422 549 458 489 446 b 96 190 210 390 96 342 b 317 -19 96 60 179 -19 z m 238 193 b 401 326 238 272 283 299 b 549 379 493 349 522 357 l 549 276 b 358 90 549 151 467 90 b 238 193 271 90 238 125 z m 250 1007 l 367 815 l 474 815 l 403 1007 z "},"ā":{"ha":833,"x_min":0,"x_max":0,"o":"m 317 -19 b 549 100 422 -19 503 29 l 551 100 b 671 -7 560 17 604 -7 b 751 3 703 -7 728 -4 l 751 86 b 726 83 740 83 731 83 b 681 147 692 83 681 99 l 681 486 b 418 731 681 669 572 731 b 128 488 225 731 133 625 l 264 488 b 414 621 269 571 300 621 b 549 529 517 621 549 579 b 372 422 549 458 489 446 b 96 190 210 390 96 342 b 317 -19 96 60 179 -19 z m 238 193 b 401 326 238 272 283 299 b 549 379 493 349 522 357 l 549 276 b 358 90 549 151 467 90 b 238 193 271 90 238 125 z m 242 835 l 608 835 l 608 942 l 242 942 z "},"ą":{"ha":833,"x_min":0,"x_max":0,"o":"m 317 -19 b 549 100 422 -19 503 29 l 551 100 b 642 -6 558 29 592 1 b 551 -137 596 -31 551 -79 b 685 -243 551 -201 597 -243 b 781 -229 718 -243 753 -237 l 781 -136 b 715 -149 761 -143 740 -149 b 665 -108 688 -149 665 -135 b 751 3 665 -79 697 -40 l 751 86 b 726 83 740 83 731 83 b 681 147 692 83 681 99 l 681 486 b 418 731 681 669 572 731 b 128 488 225 731 133 625 l 264 488 b 414 621 269 571 300 621 b 549 529 517 621 549 579 b 372 422 549 458 489 446 b 96 190 210 390 96 342 b 317 -19 96 60 179 -19 z m 238 193 b 401 326 238 272 283 299 b 549 379 493 349 522 357 l 549 276 b 358 90 549 151 467 90 b 238 193 271 90 238 125 z "},"å":{"ha":833,"x_min":0,"x_max":0,"o":"m 317 -19 b 549 100 422 -19 503 29 l 551 100 b 671 -7 560 17 604 -7 b 751 3 703 -7 728 -4 l 751 86 b 726 83 740 83 731 83 b 681 147 692 83 681 99 l 681 486 b 418 731 681 669 572 731 b 128 488 225 731 133 625 l 264 488 b 414 621 269 571 300 621 b 549 529 517 621 549 579 b 372 422 549 458 489 446 b 96 190 210 390 96 342 b 317 -19 96 60 179 -19 z m 238 193 b 401 326 238 272 283 299 b 549 379 493 349 522 357 l 549 276 b 358 90 549 151 467 90 b 238 193 271 90 238 125 z m 296 899 b 424 771 296 822 351 771 b 553 899 499 771 553 822 b 424 1026 553 975 499 1026 b 296 899 351 1026 296 975 z m 361 899 b 424 965 361 938 388 965 b 489 899 463 965 489 938 b 424 832 489 858 463 832 b 361 899 388 832 361 858 z "},"ã":{"ha":833,"x_min":0,"x_max":0,"o":"m 317 -19 b 549 100 422 -19 503 29 l 551 100 b 671 -7 560 17 604 -7 b 751 3 703 -7 728 -4 l 751 86 b 726 83 740 83 731 83 b 681 147 692 83 681 99 l 681 486 b 418 731 681 669 572 731 b 128 488 225 731 133 625 l 264 488 b 414 621 269 571 300 621 b 549 529 517 621 549 579 b 372 422 549 458 489 446 b 96 190 210 390 96 342 b 317 -19 96 60 179 -19 z m 218 824 l 310 824 b 346 872 310 842 314 872 b 519 821 386 872 450 821 b 626 968 576 821 626 861 l 535 968 b 500 919 535 947 531 919 b 325 971 458 919 396 971 b 218 824 268 971 218 928 z m 238 193 b 401 326 238 272 283 299 b 549 379 493 349 522 357 l 549 276 b 358 90 549 151 467 90 b 238 193 271 90 238 125 z "},"æ":{"ha":833,"x_min":0,"x_max":0,"o":"m 214 -21 b 415 103 293 -21 372 19 b 592 -21 456 14 521 -21 b 806 218 708 -21 793 75 l 682 218 b 589 89 672 136 646 89 b 478 319 526 89 483 143 l 811 319 b 813 394 813 347 813 369 b 597 731 813 621 732 731 b 429 632 519 731 465 694 b 265 731 397 703 340 731 b 51 488 133 731 56 642 l 179 488 b 274 621 179 590 218 621 b 354 535 336 621 354 583 b 224 419 354 457 307 451 b 22 185 119 382 22 332 b 214 -21 22 47 108 -21 z m 150 193 b 251 326 150 272 189 299 b 354 383 311 353 343 364 l 354 251 b 236 89 354 131 293 89 b 150 193 192 89 150 114 z m 479 422 b 588 622 488 564 525 622 b 685 422 650 622 685 569 z "},"b":{"ha":833,"x_min":0,"x_max":0,"o":"m 461 -19 b 754 354 629 -19 754 121 b 461 729 754 588 629 729 b 258 625 360 729 293 678 l 254 625 l 254 993 l 118 993 l 118 0 l 254 0 l 254 88 l 258 88 b 461 -19 292 31 358 -19 z m 257 354 b 435 615 257 515 325 615 b 611 354 553 615 611 496 b 435 93 611 214 553 93 b 257 354 325 93 257 194 z "},"c":{"ha":833,"x_min":0,"x_max":0,"o":"m 432 -21 b 728 263 600 -21 719 100 l 586 263 b 432 93 582 183 542 93 b 253 354 307 93 253 221 b 432 617 253 488 307 617 b 586 451 539 617 582 528 l 728 451 b 431 729 713 610 600 729 b 111 354 239 729 111 576 b 432 -21 111 132 239 -21 z "},"ć":{"ha":833,"x_min":0,"x_max":0,"o":"m 432 -21 b 728 263 600 -21 719 100 l 586 263 b 432 93 582 183 542 93 b 253 354 307 93 253 221 b 432 617 253 488 307 617 b 586 451 539 617 582 528 l 728 451 b 431 729 713 610 600 729 b 111 354 239 729 111 576 b 432 -21 111 132 239 -21 z m 365 815 l 474 815 l 607 1007 l 447 1007 z "},"č":{"ha":833,"x_min":0,"x_max":0,"o":"m 432 -21 b 728 263 600 -21 719 100 l 586 263 b 432 93 582 183 542 93 b 253 354 307 93 253 221 b 432 617 253 488 307 617 b 586 451 539 617 582 528 l 728 451 b 431 729 713 610 600 729 b 111 354 239 729 111 576 b 432 -21 111 132 239 -21 z m 225 1007 l 357 815 l 504 815 l 636 1007 l 506 1007 l 432 883 l 429 883 l 354 1007 z "},"ç":{"ha":833,"x_min":0,"x_max":0,"o":"m 408 -275 b 561 -167 486 -275 561 -243 b 424 -76 561 -90 483 -68 l 424 -74 l 471 -18 b 728 263 618 -1 719 113 l 586 263 b 432 93 582 183 542 93 b 253 354 307 93 253 221 b 432 617 253 488 307 617 b 586 451 539 617 582 528 l 728 451 b 431 729 713 610 600 729 b 111 354 239 729 111 576 b 394 -19 111 147 222 0 l 324 -103 l 344 -133 b 400 -124 358 -128 383 -124 b 453 -165 433 -124 453 -135 b 385 -214 453 -194 429 -214 b 290 -193 349 -214 321 -206 l 258 -232 b 408 -275 296 -256 349 -275 z "},"ĉ":{"ha":833,"x_min":0,"x_max":0,"o":"m 432 -21 b 728 263 600 -21 719 100 l 586 263 b 432 93 582 183 542 93 b 253 354 307 93 253 221 b 432 617 253 488 307 617 b 586 451 539 617 582 528 l 728 451 b 431 729 713 610 600 729 b 111 354 239 729 111 576 b 432 -21 111 132 239 -21 z m 225 815 l 354 815 l 429 939 l 432 939 l 506 815 l 636 815 l 504 1007 l 357 1007 z "},"ċ":{"ha":833,"x_min":0,"x_max":0,"o":"m 432 -21 b 728 263 600 -21 719 100 l 586 263 b 432 93 582 183 542 93 b 253 354 307 93 253 221 b 432 617 253 488 307 617 b 586 451 539 617 582 528 l 728 451 b 431 729 713 610 600 729 b 111 354 239 729 111 576 b 432 -21 111 132 239 -21 z m 339 835 l 524 835 l 524 1010 l 339 1010 z "},"d":{"ha":833,"x_min":0,"x_max":0,"o":"m 372 -19 b 575 83 474 -19 540 31 l 579 83 l 579 0 l 715 0 l 715 993 l 579 993 l 579 622 l 575 622 b 372 729 542 678 476 729 b 79 354 204 729 79 586 b 372 -19 79 122 204 -19 z m 221 354 b 399 615 221 494 281 615 b 578 354 508 615 578 515 b 399 93 578 193 508 93 b 221 354 281 93 221 215 z "},"ď":{"ha":833,"x_min":0,"x_max":0,"o":"m 733 722 l 825 722 l 901 993 l 767 993 z m 76 354 b 353 -19 76 122 183 -19 b 528 83 440 -19 492 31 l 531 83 l 531 0 l 664 0 l 664 993 l 531 993 l 531 622 l 528 622 b 353 729 494 678 443 729 b 76 354 183 729 76 586 z m 215 354 b 379 615 215 494 261 615 b 531 354 474 615 531 515 b 379 93 531 193 474 93 b 215 354 261 93 215 215 z "},"đ":{"ha":833,"x_min":0,"x_max":0,"o":"m 365 -19 b 569 83 464 -19 531 26 l 574 83 l 574 0 l 710 0 l 710 811 l 808 811 l 808 904 l 710 904 l 710 993 l 574 993 l 574 904 l 378 904 l 378 811 l 574 811 l 574 622 l 569 622 b 367 729 535 681 467 729 b 79 354 217 729 79 608 b 365 -19 79 101 217 -19 z m 221 354 b 396 615 221 518 293 615 b 574 354 500 615 574 517 b 396 93 574 193 501 93 b 221 354 293 93 221 192 z "},"ð":{"ha":833,"x_min":0,"x_max":0,"o":"m 418 -21 b 735 397 663 -21 735 192 b 588 860 735 607 664 758 l 704 894 l 682 974 l 529 928 b 451 993 500 957 474 979 l 271 993 b 400 890 319 961 363 926 l 261 849 l 283 769 l 463 822 b 575 618 518 757 556 689 b 399 721 538 679 475 721 b 106 357 235 721 106 582 b 418 -21 106 131 206 -21 z m 244 357 b 418 608 244 494 303 608 b 590 357 528 608 590 496 b 418 92 590 213 538 92 b 244 357 292 92 244 213 z "},"e":{"ha":833,"x_min":0,"x_max":0,"o":"m 425 -21 b 721 218 594 -21 688 85 l 582 218 b 428 90 569 168 526 90 b 251 318 315 90 256 199 l 726 318 b 728 369 728 331 728 351 b 425 731 728 586 621 731 b 111 356 229 731 111 576 b 425 -21 111 139 225 -21 z m 251 425 b 422 619 258 543 326 619 b 586 425 522 619 586 536 z "},"é":{"ha":833,"x_min":0,"x_max":0,"o":"m 425 -21 b 721 218 594 -21 688 85 l 582 218 b 428 90 569 168 526 90 b 251 318 315 90 256 199 l 726 318 b 728 369 728 331 728 351 b 425 731 728 586 621 731 b 111 356 229 731 111 576 b 425 -21 111 139 225 -21 z m 251 425 b 422 619 258 543 326 619 b 586 425 522 619 586 536 z m 353 818 l 461 818 l 594 1010 l 435 1010 z "},"ě":{"ha":833,"x_min":0,"x_max":0,"o":"m 425 -21 b 721 218 594 -21 688 85 l 582 218 b 428 90 569 168 526 90 b 251 318 315 90 256 199 l 726 318 b 728 369 728 331 728 351 b 425 731 728 586 621 731 b 111 356 229 731 111 576 b 425 -21 111 139 225 -21 z m 213 1010 l 344 818 l 492 818 l 624 1010 l 493 1010 l 419 886 l 417 886 l 342 1010 z m 251 425 b 422 619 258 543 326 619 b 586 425 522 619 586 536 z "},"ê":{"ha":833,"x_min":0,"x_max":0,"o":"m 425 -21 b 721 218 594 -21 688 85 l 582 218 b 428 90 569 168 526 90 b 251 318 315 90 256 199 l 726 318 b 728 369 728 331 728 351 b 425 731 728 586 621 731 b 111 356 229 731 111 576 b 425 -21 111 139 225 -21 z m 213 818 l 342 818 l 417 942 l 419 942 l 493 818 l 624 818 l 492 1010 l 344 1010 z m 251 425 b 422 619 258 543 326 619 b 586 425 522 619 586 536 z "},"ë":{"ha":833,"x_min":0,"x_max":0,"o":"m 425 -21 b 721 218 594 -21 688 85 l 582 218 b 428 90 569 168 526 90 b 251 318 315 90 256 199 l 726 318 b 728 369 728 331 728 351 b 425 731 728 586 621 731 b 111 356 229 731 111 576 b 425 -21 111 139 225 -21 z m 225 838 l 379 838 l 379 985 l 225 985 z m 251 425 b 422 619 258 543 326 619 b 586 425 522 619 586 536 z m 458 838 l 613 838 l 613 985 l 458 985 z "},"ė":{"ha":833,"x_min":0,"x_max":0,"o":"m 425 -21 b 721 218 594 -21 688 85 l 582 218 b 428 90 569 168 526 90 b 251 318 315 90 256 199 l 726 318 b 728 369 728 331 728 351 b 425 731 728 586 621 731 b 111 356 229 731 111 576 b 425 -21 111 139 225 -21 z m 251 425 b 422 619 258 543 326 619 b 586 425 522 619 586 536 z m 326 838 l 511 838 l 511 1013 l 326 1013 z "},"è":{"ha":833,"x_min":0,"x_max":0,"o":"m 425 -21 b 721 218 594 -21 688 85 l 582 218 b 428 90 569 168 526 90 b 251 318 315 90 256 199 l 726 318 b 728 369 728 331 728 351 b 425 731 728 586 621 731 b 111 356 229 731 111 576 b 425 -21 111 139 225 -21 z m 243 1010 l 360 818 l 467 818 l 396 1010 z m 251 425 b 422 619 258 543 326 619 b 586 425 522 619 586 536 z "},"ē":{"ha":833,"x_min":0,"x_max":0,"o":"m 425 -21 b 721 218 594 -21 688 85 l 582 218 b 428 90 569 168 526 90 b 251 318 315 90 256 199 l 726 318 b 728 369 728 331 728 351 b 425 731 728 586 621 731 b 111 356 229 731 111 576 b 425 -21 111 139 225 -21 z m 235 838 l 601 838 l 601 944 l 235 944 z m 251 425 b 422 619 258 543 326 619 b 586 425 522 619 586 536 z "},"ę":{"ha":833,"x_min":0,"x_max":0,"o":"m 479 -246 b 575 -232 513 -246 547 -240 l 575 -139 b 510 -151 556 -146 535 -151 b 460 -111 482 -151 460 -137 b 546 0 460 -82 492 -43 l 544 0 b 721 218 640 38 696 119 l 582 218 b 428 90 569 168 526 90 b 251 318 315 90 256 199 l 726 318 b 728 369 728 331 728 351 b 425 731 728 586 621 731 b 111 356 229 731 111 576 b 415 -21 111 142 222 -15 b 346 -140 379 -49 346 -90 b 479 -246 346 -204 392 -246 z m 251 425 b 422 619 258 543 326 619 b 586 425 522 619 586 536 z "},"f":{"ha":833,"x_min":0,"x_max":0,"o":"m 324 797 l 324 708 l 122 708 l 122 596 l 324 596 l 324 113 l 150 113 l 150 0 l 711 0 l 711 113 l 460 113 l 460 596 l 739 596 l 739 708 l 460 708 l 460 797 b 603 889 460 872 486 889 b 739 883 657 889 696 886 l 739 992 b 582 1003 683 999 632 1003 b 324 797 396 1003 324 958 z "},"g":{"ha":833,"x_min":0,"x_max":0,"o":"m 407 -254 b 721 56 599 -254 721 -158 l 721 708 l 585 708 l 585 624 l 581 624 b 378 729 544 678 479 729 b 86 382 213 729 86 610 b 378 36 86 156 213 36 b 581 143 478 36 543 82 l 585 143 l 585 47 b 407 -143 585 -87 524 -143 b 246 -31 303 -143 258 -94 l 104 -31 b 407 -254 118 -160 218 -254 z m 228 382 b 406 615 228 517 288 615 b 583 382 515 615 583 539 b 406 149 583 226 515 149 b 228 382 288 149 228 247 z "},"ğ":{"ha":833,"x_min":0,"x_max":0,"o":"m 407 -254 b 721 56 599 -254 721 -158 l 721 708 l 585 708 l 585 624 l 581 624 b 378 729 544 678 479 729 b 86 382 213 729 86 610 b 378 36 86 156 213 36 b 581 143 478 36 543 82 l 585 143 l 585 47 b 407 -143 585 -87 524 -143 b 246 -31 303 -143 258 -94 l 104 -31 b 407 -254 118 -160 218 -254 z m 211 993 b 399 801 215 865 293 801 b 585 993 506 801 579 869 l 492 993 b 399 897 488 926 458 897 b 304 993 339 897 308 926 z m 228 382 b 406 615 228 517 288 615 b 583 382 515 615 583 539 b 406 149 583 226 515 149 b 228 382 288 149 228 247 z "},"ĝ":{"ha":833,"x_min":0,"x_max":0,"o":"m 407 -254 b 721 56 599 -254 721 -158 l 721 708 l 585 708 l 585 624 l 581 624 b 378 729 544 678 479 729 b 86 382 213 729 86 610 b 378 36 86 156 213 36 b 581 143 478 36 543 82 l 585 143 l 585 47 b 407 -143 585 -87 524 -143 b 246 -31 303 -143 258 -94 l 104 -31 b 407 -254 118 -160 218 -254 z m 192 815 l 321 815 l 396 939 l 399 939 l 472 815 l 603 815 l 471 1007 l 324 1007 z m 228 382 b 406 615 228 517 288 615 b 583 382 515 615 583 539 b 406 149 583 226 515 149 b 228 382 288 149 228 247 z "},"ģ":{"ha":833,"x_min":0,"x_max":0,"o":"m 407 -254 b 721 56 599 -254 721 -158 l 721 708 l 585 708 l 585 624 l 581 624 b 378 729 544 678 479 729 b 86 382 213 729 86 610 b 378 36 86 156 213 36 b 581 143 478 36 543 82 l 585 143 l 585 47 b 407 -143 585 -87 524 -143 b 246 -31 303 -143 258 -94 l 104 -31 b 407 -254 118 -160 218 -254 z m 228 382 b 406 615 228 517 288 615 b 583 382 515 615 583 539 b 406 149 583 226 515 149 b 228 382 288 149 228 247 z m 326 815 l 478 815 l 529 1076 l 438 1076 z "},"ġ":{"ha":833,"x_min":0,"x_max":0,"o":"m 407 -254 b 721 56 599 -254 721 -158 l 721 708 l 585 708 l 585 624 l 581 624 b 378 729 544 678 479 729 b 86 382 213 729 86 610 b 378 36 86 156 213 36 b 581 143 478 36 543 82 l 585 143 l 585 47 b 407 -143 585 -87 524 -143 b 246 -31 303 -143 258 -94 l 104 -31 b 407 -254 118 -160 218 -254 z m 228 382 b 406 615 228 517 288 615 b 583 382 515 615 583 539 b 406 149 583 226 515 149 b 228 382 288 149 228 247 z m 306 835 l 490 835 l 490 1010 l 306 1010 z "},"h":{"ha":833,"x_min":0,"x_max":0,"o":"m 124 0 l 260 0 l 260 435 b 444 613 260 542 332 613 b 583 454 543 613 583 550 l 583 0 l 721 0 l 721 490 b 493 729 721 653 621 729 b 263 619 372 729 300 672 l 260 619 l 260 993 l 124 993 z "},"ħ":{"ha":833,"x_min":0,"x_max":0,"o":"m 25 811 l 124 811 l 124 0 l 260 0 l 260 435 b 444 613 260 542 332 613 b 583 454 543 613 583 550 l 583 0 l 721 0 l 721 490 b 493 729 721 653 621 729 b 263 619 372 729 300 672 l 260 619 l 260 811 l 468 811 l 468 904 l 260 904 l 260 993 l 124 993 l 124 904 l 25 904 z "},"ĥ":{"ha":833,"x_min":0,"x_max":0,"o":"m 124 0 l 260 0 l 260 435 b 444 613 260 542 332 613 b 583 454 543 613 583 550 l 583 0 l 721 0 l 721 490 b 493 729 721 653 621 729 b 263 619 372 729 300 672 l 260 619 l 260 993 l 124 993 z m -17 1040 l 113 1040 l 188 1164 l 190 1164 l 264 1040 l 394 1040 l 263 1232 l 115 1232 z "},"i":{"ha":833,"x_min":0,"x_max":0,"o":"m 157 0 l 699 0 l 699 113 l 510 113 l 510 708 l 157 708 l 157 596 l 374 596 l 374 113 l 157 113 z m 336 835 l 521 835 l 521 1010 l 336 1010 z "},"ı":{"ha":833,"x_min":0,"x_max":0,"o":"m 157 0 l 699 0 l 699 113 l 510 113 l 510 708 l 157 708 l 157 596 l 374 596 l 374 113 l 157 113 z "},"í":{"ha":833,"x_min":0,"x_max":0,"o":"m 157 0 l 699 0 l 699 113 l 510 113 l 510 708 l 157 708 l 157 596 l 374 596 l 374 113 l 157 113 z m 363 815 l 471 815 l 604 1007 l 444 1007 z "},"î":{"ha":833,"x_min":0,"x_max":0,"o":"m 157 0 l 699 0 l 699 113 l 510 113 l 510 708 l 157 708 l 157 596 l 374 596 l 374 113 l 157 113 z m 222 815 l 351 815 l 426 939 l 429 939 l 503 815 l 633 815 l 501 1007 l 354 1007 z "},"ï":{"ha":833,"x_min":0,"x_max":0,"o":"m 157 0 l 699 0 l 699 113 l 510 113 l 510 708 l 157 708 l 157 596 l 374 596 l 374 113 l 157 113 z m 233 835 l 388 835 l 388 982 l 233 982 z m 467 835 l 621 835 l 621 982 l 467 982 z "},"ì":{"ha":833,"x_min":0,"x_max":0,"o":"m 157 0 l 699 0 l 699 113 l 510 113 l 510 708 l 157 708 l 157 596 l 374 596 l 374 113 l 157 113 z m 253 1007 l 369 815 l 476 815 l 406 1007 z "},"ī":{"ha":833,"x_min":0,"x_max":0,"o":"m 157 0 l 699 0 l 699 113 l 510 113 l 510 708 l 157 708 l 157 596 l 374 596 l 374 113 l 157 113 z m 244 835 l 611 835 l 611 942 l 244 942 z "},"į":{"ha":833,"x_min":0,"x_max":0,"o":"m 157 0 l 397 0 b 293 -140 349 -24 293 -75 b 426 -246 293 -204 339 -246 b 522 -232 460 -246 494 -240 l 522 -139 b 457 -151 503 -146 482 -151 b 407 -111 429 -151 407 -137 b 493 0 407 -82 439 -43 l 699 0 l 699 113 l 510 113 l 510 708 l 157 708 l 157 596 l 374 596 l 374 113 l 157 113 z m 336 835 l 521 835 l 521 1010 l 336 1010 z "},"ĩ":{"ha":833,"x_min":0,"x_max":0,"o":"m 157 0 l 699 0 l 699 113 l 510 113 l 510 708 l 157 708 l 157 596 l 374 596 l 374 113 l 157 113 z m 221 824 l 313 824 b 349 872 313 842 317 872 b 522 821 389 872 453 821 b 629 968 579 821 629 861 l 538 968 b 503 919 538 947 533 919 b 328 971 461 919 399 971 b 221 824 271 971 221 928 z "},"j":{"ha":833,"x_min":0,"x_max":0,"o":"m 333 -251 b 618 -37 508 -251 618 -189 l 618 708 l 146 708 l 146 596 l 481 596 l 481 -32 b 306 -135 481 -115 425 -135 b 146 -131 267 -135 192 -133 l 146 -243 b 333 -251 203 -249 292 -251 z m 444 835 l 629 835 l 629 1010 l 444 1010 z "},"ȷ":{"ha":833,"x_min":0,"x_max":0,"o":"m 333 -251 b 618 -37 508 -251 618 -189 l 618 708 l 146 708 l 146 596 l 481 596 l 481 -32 b 306 -135 481 -115 425 -135 b 146 -131 267 -135 192 -133 l 146 -243 b 333 -251 203 -249 292 -251 z "},"ĵ":{"ha":833,"x_min":0,"x_max":0,"o":"m 333 -251 b 618 -37 508 -251 618 -189 l 618 708 l 146 708 l 146 596 l 481 596 l 481 -32 b 306 -135 481 -115 425 -135 b 146 -131 267 -135 192 -133 l 146 -243 b 333 -251 203 -249 292 -251 z m 332 815 l 461 815 l 536 939 l 539 939 l 613 815 l 743 815 l 611 1007 l 464 1007 z "},"k":{"ha":833,"x_min":0,"x_max":0,"o":"m 136 0 l 272 0 l 272 260 l 388 367 l 633 0 l 794 0 l 479 451 l 760 708 l 603 708 l 272 401 l 272 993 l 136 993 z "},"ķ":{"ha":833,"x_min":0,"x_max":0,"o":"m 136 0 l 272 0 l 272 260 l 388 367 l 633 0 l 794 0 l 479 451 l 760 708 l 603 708 l 272 401 l 272 993 l 136 993 z m 328 -331 l 419 -331 l 531 -68 l 379 -68 z "},"ĸ":{"ha":833,"x_min":0,"x_max":0,"o":"m 136 0 l 272 0 l 272 260 l 388 367 l 633 0 l 794 0 l 479 451 l 760 708 l 603 708 l 272 401 l 272 708 l 136 708 z "},"l":{"ha":833,"x_min":0,"x_max":0,"o":"m 108 0 l 725 0 l 725 113 l 485 113 l 485 993 l 108 993 l 108 881 l 349 881 l 349 113 l 108 113 z "},"ĺ":{"ha":833,"x_min":0,"x_max":0,"o":"m 108 0 l 725 0 l 725 113 l 485 113 l 485 993 l 108 993 l 108 881 l 349 881 l 349 113 l 108 113 z m 351 1040 l 460 1040 l 593 1232 l 433 1232 z "},"ľ":{"ha":833,"x_min":0,"x_max":0,"o":"m 108 0 l 725 0 l 725 113 l 485 113 l 485 993 l 108 993 l 108 881 l 349 881 l 349 113 l 108 113 z m 590 722 l 692 722 l 778 993 l 622 993 z "},"ļ":{"ha":833,"x_min":0,"x_max":0,"o":"m 108 0 l 725 0 l 725 113 l 485 113 l 485 993 l 108 993 l 108 881 l 349 881 l 349 113 l 108 113 z m 290 -331 l 382 -331 l 493 -68 l 342 -68 z "},"ł":{"ha":833,"x_min":0,"x_max":0,"o":"m 215 350 l 403 438 l 403 113 l 163 113 l 163 0 l 779 0 l 779 113 l 539 113 l 539 501 l 728 590 l 728 710 l 539 621 l 539 993 l 163 993 l 163 881 l 403 881 l 403 557 l 215 469 z "},"m":{"ha":833,"x_min":0,"x_max":0,"o":"m 357 456 l 357 0 l 476 0 l 476 435 b 565 613 476 540 511 613 b 639 456 624 613 639 539 l 639 0 l 757 0 l 757 492 b 613 729 757 639 707 729 b 461 606 542 729 499 676 l 460 606 b 338 729 442 683 401 729 b 196 619 272 729 228 678 l 194 619 l 194 708 l 76 708 l 76 0 l 194 0 l 194 435 b 283 613 194 539 231 613 b 357 456 343 613 357 536 z "},"n":{"ha":833,"x_min":0,"x_max":0,"o":"m 124 0 l 260 0 l 260 435 b 444 613 260 542 332 613 b 583 454 544 613 583 549 l 583 0 l 721 0 l 721 492 b 493 729 721 653 621 729 b 263 619 372 729 300 672 l 260 619 l 260 708 l 124 708 z "},"ń":{"ha":833,"x_min":0,"x_max":0,"o":"m 124 0 l 260 0 l 260 435 b 444 613 260 542 332 613 b 583 454 544 613 583 549 l 583 0 l 721 0 l 721 492 b 493 729 721 653 621 729 b 263 619 372 729 300 672 l 260 619 l 260 708 l 124 708 z m 367 813 l 475 813 l 608 1004 l 449 1004 z "},"ň":{"ha":833,"x_min":0,"x_max":0,"o":"m 124 0 l 260 0 l 260 435 b 444 613 260 542 332 613 b 583 454 544 613 583 549 l 583 0 l 721 0 l 721 492 b 493 729 721 653 621 729 b 263 619 372 729 300 672 l 260 619 l 260 708 l 124 708 z m 226 1004 l 358 813 l 506 813 l 638 1004 l 507 1004 l 433 881 l 431 881 l 356 1004 z "},"ņ":{"ha":833,"x_min":0,"x_max":0,"o":"m 124 0 l 260 0 l 260 435 b 444 613 260 542 332 613 b 583 454 544 613 583 549 l 583 0 l 721 0 l 721 492 b 493 729 721 653 621 729 b 263 619 372 729 300 672 l 260 619 l 260 708 l 124 708 z m 294 -331 l 386 -331 l 497 -68 l 346 -68 z "},"ñ":{"ha":833,"x_min":0,"x_max":0,"o":"m 124 0 l 260 0 l 260 435 b 444 613 260 542 332 613 b 583 454 544 613 583 549 l 583 0 l 721 0 l 721 492 b 493 729 721 653 621 729 b 263 619 372 729 300 672 l 260 619 l 260 708 l 124 708 z m 225 821 l 317 821 b 353 869 317 839 321 869 b 526 818 393 869 457 818 b 633 965 583 818 633 858 l 542 965 b 507 917 542 944 538 917 b 332 968 465 917 403 968 b 225 821 275 968 225 925 z "},"ŋ":{"ha":833,"x_min":0,"x_max":0,"o":"m 124 0 l 260 0 l 260 435 b 444 613 260 542 332 613 b 583 454 544 613 583 549 l 583 -18 b 435 -119 583 -101 536 -119 b 346 -115 401 -119 367 -118 l 346 -228 b 464 -236 379 -233 440 -236 b 721 -25 626 -236 721 -176 l 721 492 b 493 729 721 653 621 729 b 263 619 372 729 300 672 l 260 619 l 260 708 l 124 708 z "},"o":{"ha":833,"x_min":0,"x_max":0,"o":"m 415 -21 b 731 356 611 -21 731 131 b 418 731 731 579 611 731 b 103 354 222 731 103 579 b 415 -21 103 129 222 -21 z m 244 354 b 417 617 244 507 303 617 b 589 354 531 617 589 507 b 417 92 589 203 532 92 b 244 354 303 92 244 201 z "},"ó":{"ha":833,"x_min":0,"x_max":0,"o":"m 415 -21 b 731 356 611 -21 731 131 b 418 731 731 579 611 731 b 103 354 222 731 103 579 b 415 -21 103 129 222 -21 z m 244 354 b 417 617 244 507 303 617 b 589 354 531 617 589 507 b 417 92 589 203 532 92 b 244 354 303 92 244 201 z m 351 818 l 460 818 l 593 1010 l 433 1010 z "},"ô":{"ha":833,"x_min":0,"x_max":0,"o":"m 415 -21 b 731 356 611 -21 731 131 b 418 731 731 579 611 731 b 103 354 222 731 103 579 b 415 -21 103 129 222 -21 z m 211 818 l 340 818 l 415 942 l 418 942 l 492 818 l 622 818 l 490 1010 l 343 1010 z m 244 354 b 417 617 244 507 303 617 b 589 354 531 617 589 507 b 417 92 589 203 532 92 b 244 354 303 92 244 201 z "},"ö":{"ha":833,"x_min":0,"x_max":0,"o":"m 415 -21 b 731 356 611 -21 731 131 b 418 731 731 579 611 731 b 103 354 222 731 103 579 b 415 -21 103 129 222 -21 z m 224 838 l 378 838 l 378 985 l 224 985 z m 244 354 b 417 617 244 507 303 617 b 589 354 531 617 589 507 b 417 92 589 203 532 92 b 244 354 303 92 244 201 z m 457 838 l 611 838 l 611 985 l 457 985 z "},"ò":{"ha":833,"x_min":0,"x_max":0,"o":"m 415 -21 b 731 356 611 -21 731 131 b 418 731 731 579 611 731 b 103 354 222 731 103 579 b 415 -21 103 129 222 -21 z m 243 1010 l 360 818 l 467 818 l 396 1010 z m 244 354 b 417 617 244 507 303 617 b 589 354 531 617 589 507 b 417 92 589 203 532 92 b 244 354 303 92 244 201 z "},"ő":{"ha":833,"x_min":0,"x_max":0,"o":"m 415 -21 b 731 356 611 -21 731 131 b 418 731 731 579 611 731 b 103 354 222 731 103 579 b 415 -21 103 129 222 -21 z m 244 354 b 417 617 244 507 303 617 b 589 354 531 617 589 507 b 417 92 589 203 532 92 b 244 354 303 92 244 201 z m 251 818 l 357 818 l 488 1010 l 336 1010 z m 460 818 l 565 818 l 701 1010 l 550 1010 z "},"ō":{"ha":833,"x_min":0,"x_max":0,"o":"m 415 -21 b 731 356 611 -21 731 131 b 418 731 731 579 611 731 b 103 354 222 731 103 579 b 415 -21 103 129 222 -21 z m 233 838 l 600 838 l 600 944 l 233 944 z m 244 354 b 417 617 244 507 303 617 b 589 354 531 617 589 507 b 417 92 589 203 532 92 b 244 354 303 92 244 201 z "},"ø":{"ha":833,"x_min":0,"x_max":0,"o":"m 108 -15 l 194 74 b 415 -21 247 14 324 -21 b 731 356 611 -21 731 131 b 681 575 731 440 714 515 l 775 672 l 724 724 l 639 636 b 418 731 585 696 510 731 b 103 354 222 731 103 579 b 153 133 103 268 121 193 l 58 36 z m 244 354 b 417 617 244 507 303 617 b 547 540 475 617 518 589 l 257 242 b 244 354 249 275 244 313 z m 286 168 l 576 467 b 589 354 585 433 589 396 b 417 92 589 203 532 92 b 286 168 358 92 315 119 z "},"õ":{"ha":833,"x_min":0,"x_max":0,"o":"m 415 -21 b 731 356 611 -21 731 131 b 418 731 731 579 611 731 b 103 354 222 731 103 579 b 415 -21 103 129 222 -21 z m 211 826 l 303 826 b 339 875 303 844 307 875 b 513 824 379 875 443 824 b 619 971 569 824 619 864 l 528 971 b 493 922 528 950 524 922 b 318 974 451 922 389 974 b 211 826 261 974 211 931 z m 244 354 b 417 617 244 507 303 617 b 589 354 531 617 589 507 b 417 92 589 203 532 92 b 244 354 303 92 244 201 z "},"œ":{"ha":833,"x_min":0,"x_max":0,"o":"m 249 88 b 146 357 197 88 146 149 b 249 621 146 567 197 621 b 351 357 299 621 351 568 b 249 88 351 149 300 88 z m 19 354 b 238 -21 19 64 126 -21 b 415 104 306 -21 374 11 b 592 -21 456 14 521 -21 b 806 218 708 -21 793 75 l 682 218 b 589 89 672 136 646 89 b 478 319 526 89 483 143 l 811 319 b 813 394 813 347 813 369 b 597 731 813 621 732 731 b 415 606 510 731 451 683 b 239 731 375 699 308 731 b 19 354 126 731 19 646 z m 479 422 b 588 622 488 564 525 622 b 685 422 650 622 685 569 z "},"p":{"ha":833,"x_min":0,"x_max":0,"o":"m 118 -246 l 254 -246 l 254 88 l 258 88 b 461 -19 292 31 358 -19 b 754 354 629 -19 754 121 b 461 729 754 588 629 729 b 258 625 360 729 293 678 l 254 625 l 254 708 l 118 708 z m 257 354 b 435 615 257 515 325 615 b 611 354 553 615 611 497 b 435 93 611 214 553 93 b 257 354 325 93 257 194 z "},"þ":{"ha":833,"x_min":0,"x_max":0,"o":"m 118 -246 l 254 -246 l 254 88 l 258 88 b 461 -19 292 31 358 -19 b 754 354 629 -19 754 121 b 461 729 754 588 629 729 b 258 625 360 729 293 678 l 254 625 l 254 993 l 118 993 z m 257 354 b 435 615 257 515 325 615 b 611 354 553 615 611 497 b 435 93 611 214 553 93 b 257 354 325 93 257 194 z "},"q":{"ha":833,"x_min":0,"x_max":0,"o":"m 579 -246 l 715 -246 l 715 708 l 579 708 l 579 622 l 575 622 b 372 729 542 678 476 729 b 79 354 204 729 79 586 b 372 -19 79 122 204 -19 b 575 83 474 -19 540 31 l 579 83 z m 221 354 b 399 615 221 494 281 615 b 578 354 508 615 578 515 b 399 93 578 193 508 93 b 221 354 281 93 221 215 z "},"r":{"ha":833,"x_min":0,"x_max":0,"o":"m 410 367 b 675 594 410 501 543 594 b 758 590 704 594 736 593 l 758 721 b 669 725 729 724 700 725 b 414 574 556 725 457 663 l 410 574 l 410 708 l 114 708 l 114 596 l 274 596 l 274 113 l 114 113 l 114 0 l 654 0 l 654 113 l 410 113 z "},"ŕ":{"ha":833,"x_min":0,"x_max":0,"o":"m 410 367 b 675 594 410 501 543 594 b 758 590 704 594 736 593 l 758 721 b 669 725 729 724 700 725 b 414 574 556 725 457 663 l 410 574 l 410 708 l 114 708 l 114 596 l 274 596 l 274 113 l 114 113 l 114 0 l 654 0 l 654 113 l 410 113 z m 431 815 l 539 815 l 672 1007 l 513 1007 z "},"ř":{"ha":833,"x_min":0,"x_max":0,"o":"m 410 367 b 675 594 410 501 543 594 b 758 590 704 594 736 593 l 758 721 b 669 725 729 724 700 725 b 414 574 556 725 457 663 l 410 574 l 410 708 l 114 708 l 114 596 l 274 596 l 274 113 l 114 113 l 114 0 l 654 0 l 654 113 l 410 113 z m 290 1007 l 422 815 l 569 815 l 701 1007 l 571 1007 l 497 883 l 494 883 l 419 1007 z "},"ŗ":{"ha":833,"x_min":0,"x_max":0,"o":"m 410 367 b 675 594 410 501 543 594 b 758 590 704 594 736 593 l 758 721 b 669 725 729 724 700 725 b 414 574 556 725 457 663 l 410 574 l 410 708 l 114 708 l 114 596 l 274 596 l 274 113 l 114 113 l 114 0 l 654 0 l 654 113 l 410 113 z m 217 -331 l 308 -331 l 419 -68 l 268 -68 z "},"s":{"ha":833,"x_min":0,"x_max":0,"o":"m 442 -19 b 731 201 625 -19 731 64 b 463 426 731 358 599 396 b 282 531 329 456 282 468 b 411 619 282 585 326 619 b 571 503 508 619 557 578 l 707 503 b 411 729 696 625 608 729 b 139 525 239 729 139 647 b 397 314 139 381 258 344 b 589 194 528 286 589 275 b 439 90 589 142 550 90 b 253 236 315 90 258 153 l 117 236 b 442 -19 122 92 225 -19 z "},"ś":{"ha":833,"x_min":0,"x_max":0,"o":"m 442 -19 b 731 201 625 -19 731 64 b 463 426 731 358 599 396 b 282 531 329 456 282 468 b 411 619 282 585 326 619 b 571 503 508 619 557 578 l 707 503 b 411 729 696 625 608 729 b 139 525 239 729 139 647 b 397 314 139 381 258 344 b 589 194 528 286 589 275 b 439 90 589 142 550 90 b 253 236 315 90 258 153 l 117 236 b 442 -19 122 92 225 -19 z m 351 815 l 460 815 l 593 1007 l 433 1007 z "},"š":{"ha":833,"x_min":0,"x_max":0,"o":"m 442 -19 b 731 201 625 -19 731 64 b 463 426 731 358 599 396 b 282 531 329 456 282 468 b 411 619 282 585 326 619 b 571 503 508 619 557 578 l 707 503 b 411 729 696 625 608 729 b 139 525 239 729 139 647 b 397 314 139 381 258 344 b 589 194 528 286 589 275 b 439 90 589 142 550 90 b 253 236 315 90 258 153 l 117 236 b 442 -19 122 92 225 -19 z m 211 1007 l 343 815 l 490 815 l 622 1007 l 492 1007 l 418 883 l 415 883 l 340 1007 z "},"ş":{"ha":833,"x_min":0,"x_max":0,"o":"m 399 -275 b 551 -167 476 -275 551 -243 b 414 -76 551 -90 474 -68 l 414 -74 l 460 -19 b 731 201 632 -14 731 68 b 463 426 731 358 599 396 b 282 531 329 456 282 468 b 411 619 282 585 326 619 b 571 503 508 619 557 578 l 707 503 b 411 729 696 625 608 729 b 139 525 239 729 139 647 b 397 314 139 381 258 344 b 589 194 528 286 589 275 b 439 90 589 142 550 90 b 253 236 315 90 258 153 l 117 236 b 386 -17 122 104 207 1 l 314 -103 l 335 -133 b 390 -124 349 -128 374 -124 b 443 -165 424 -124 443 -135 b 375 -214 443 -194 419 -214 b 281 -193 339 -214 311 -206 l 249 -232 b 399 -275 286 -256 339 -275 z "},"ŝ":{"ha":833,"x_min":0,"x_max":0,"o":"m 442 -19 b 731 201 625 -19 731 64 b 463 426 731 358 599 396 b 282 531 329 456 282 468 b 411 619 282 585 326 619 b 571 503 508 619 557 578 l 707 503 b 411 729 696 625 608 729 b 139 525 239 729 139 647 b 397 314 139 381 258 344 b 589 194 528 286 589 275 b 439 90 589 142 550 90 b 253 236 315 90 258 153 l 117 236 b 442 -19 122 92 225 -19 z m 211 815 l 340 815 l 415 939 l 418 939 l 492 815 l 622 815 l 490 1007 l 343 1007 z "},"ș":{"ha":833,"x_min":0,"x_max":0,"o":"m 442 -19 b 731 201 625 -19 731 64 b 463 426 731 358 599 396 b 282 531 329 456 282 468 b 411 619 282 585 326 619 b 571 503 508 619 557 578 l 707 503 b 411 729 696 625 608 729 b 139 525 239 729 139 647 b 397 314 139 381 258 344 b 589 194 528 286 589 275 b 439 90 589 142 550 90 b 253 236 315 90 258 153 l 117 236 b 442 -19 122 92 225 -19 z m 301 -331 l 393 -331 l 504 -68 l 353 -68 z "},"ß":{"ha":833,"x_min":0,"x_max":0,"o":"m 478 -19 b 750 267 643 -19 750 94 b 556 549 750 415 683 514 l 556 551 b 701 765 638 588 701 650 b 421 1013 701 913 596 1013 b 129 713 235 1013 129 901 l 129 0 l 265 0 l 265 694 b 419 900 265 814 303 900 b 560 760 521 900 560 833 b 392 601 560 651 479 601 l 358 601 l 358 497 l 397 497 b 608 283 511 497 608 432 b 444 94 608 176 560 94 b 349 114 417 94 386 99 l 349 0 b 478 -19 392 -12 433 -19 z "},"t":{"ha":833,"x_min":0,"x_max":0,"o":"m 546 -8 b 725 3 632 -8 676 -6 l 725 111 b 568 104 674 107 643 104 b 429 201 467 104 429 121 l 429 596 l 725 596 l 725 708 l 429 708 l 429 936 l 292 936 l 292 708 l 65 708 l 65 596 l 292 596 l 292 203 b 546 -8 292 32 372 -8 z "},"ŧ":{"ha":833,"x_min":0,"x_max":0,"o":"m 125 371 l 296 371 l 296 203 b 550 -8 296 32 376 -8 b 729 3 636 -8 681 -6 l 729 111 b 572 104 678 107 647 104 b 433 201 471 104 433 121 l 433 371 l 674 371 l 674 475 l 433 475 l 433 596 l 729 596 l 729 708 l 433 708 l 433 936 l 296 936 l 296 708 l 69 708 l 69 596 l 296 596 l 296 475 l 125 475 z "},"ť":{"ha":833,"x_min":0,"x_max":0,"o":"m 633 775 l 735 775 l 813 993 l 658 993 z m 65 596 l 292 596 l 292 203 b 546 -8 292 32 372 -8 b 725 3 632 -8 676 -6 l 725 111 b 568 104 674 107 643 104 b 429 201 467 104 429 121 l 429 596 l 725 596 l 725 708 l 429 708 l 429 936 l 292 936 l 292 708 l 65 708 z "},"ţ":{"ha":833,"x_min":0,"x_max":0,"o":"m 65 596 l 292 596 l 292 203 b 486 -7 292 53 354 3 l 421 -85 l 442 -115 b 497 -106 456 -110 481 -106 b 550 -147 531 -106 550 -117 b 482 -196 550 -176 526 -196 b 388 -175 446 -196 418 -187 l 356 -214 b 506 -257 393 -237 446 -257 b 658 -149 583 -257 658 -225 b 521 -58 658 -72 581 -50 l 521 -56 l 561 -8 b 725 3 638 -8 679 -6 l 725 111 b 568 104 674 107 643 104 b 429 201 467 104 429 121 l 429 596 l 725 596 l 725 708 l 429 708 l 429 936 l 292 936 l 292 708 l 65 708 z "},"ț":{"ha":833,"x_min":0,"x_max":0,"o":"m 546 -8 b 725 3 632 -8 676 -6 l 725 111 b 568 104 674 107 643 104 b 429 201 467 104 429 121 l 429 596 l 725 596 l 725 708 l 429 708 l 429 936 l 292 936 l 292 708 l 65 708 l 65 596 l 292 596 l 292 203 b 546 -8 292 32 372 -8 z m 410 -312 l 501 -312 l 613 -50 l 461 -50 z "},"u":{"ha":833,"x_min":0,"x_max":0,"o":"m 574 0 l 710 0 l 710 708 l 574 708 l 574 274 b 389 96 574 167 501 96 b 250 256 289 96 250 160 l 250 708 l 113 708 l 113 218 b 340 -19 113 57 213 -19 b 571 90 461 -19 533 36 l 574 90 z "},"ú":{"ha":833,"x_min":0,"x_max":0,"o":"m 574 0 l 710 0 l 710 708 l 574 708 l 574 274 b 389 96 574 167 501 96 b 250 256 289 96 250 160 l 250 708 l 113 708 l 113 218 b 340 -19 113 57 213 -19 b 571 90 461 -19 533 36 l 574 90 z m 339 815 l 447 815 l 581 1007 l 421 1007 z "},"ŭ":{"ha":833,"x_min":0,"x_max":0,"o":"m 574 0 l 710 0 l 710 708 l 574 708 l 574 274 b 389 96 574 167 501 96 b 250 256 289 96 250 160 l 250 708 l 113 708 l 113 218 b 340 -19 113 57 213 -19 b 571 90 461 -19 533 36 l 574 90 z m 218 993 b 406 801 222 865 300 801 b 592 993 513 801 586 869 l 499 993 b 406 897 494 926 465 897 b 311 993 346 897 315 926 z "},"û":{"ha":833,"x_min":0,"x_max":0,"o":"m 574 0 l 710 0 l 710 708 l 574 708 l 574 274 b 389 96 574 167 501 96 b 250 256 289 96 250 160 l 250 708 l 113 708 l 113 218 b 340 -19 113 57 213 -19 b 571 90 461 -19 533 36 l 574 90 z m 199 815 l 328 815 l 403 939 l 406 939 l 479 815 l 610 815 l 478 1007 l 331 1007 z "},"ü":{"ha":833,"x_min":0,"x_max":0,"o":"m 574 0 l 710 0 l 710 708 l 574 708 l 574 274 b 389 96 574 167 501 96 b 250 256 289 96 250 160 l 250 708 l 113 708 l 113 218 b 340 -19 113 57 213 -19 b 571 90 461 -19 533 36 l 574 90 z m 211 835 l 365 835 l 365 982 l 211 982 z m 444 835 l 599 835 l 599 982 l 444 982 z "},"ù":{"ha":833,"x_min":0,"x_max":0,"o":"m 574 0 l 710 0 l 710 708 l 574 708 l 574 274 b 389 96 574 167 501 96 b 250 256 289 96 250 160 l 250 708 l 113 708 l 113 218 b 340 -19 113 57 213 -19 b 571 90 461 -19 533 36 l 574 90 z m 231 1007 l 347 815 l 454 815 l 383 1007 z "},"ű":{"ha":833,"x_min":0,"x_max":0,"o":"m 574 0 l 710 0 l 710 708 l 574 708 l 574 274 b 389 96 574 167 501 96 b 250 256 289 96 250 160 l 250 708 l 113 708 l 113 218 b 340 -19 113 57 213 -19 b 571 90 461 -19 533 36 l 574 90 z m 239 815 l 344 815 l 475 1007 l 324 1007 z m 447 815 l 553 815 l 689 1007 l 538 1007 z "},"ū":{"ha":833,"x_min":0,"x_max":0,"o":"m 574 0 l 710 0 l 710 708 l 574 708 l 574 274 b 389 96 574 167 501 96 b 250 256 289 96 250 160 l 250 708 l 113 708 l 113 218 b 340 -19 113 57 213 -19 b 571 90 461 -19 533 36 l 574 90 z m 221 835 l 588 835 l 588 942 l 221 942 z "},"ų":{"ha":833,"x_min":0,"x_max":0,"o":"m 574 0 l 614 0 b 510 -140 565 -24 510 -75 b 643 -246 510 -204 556 -246 b 739 -232 676 -246 711 -240 l 739 -139 b 674 -151 719 -146 699 -151 b 624 -111 646 -151 624 -137 b 710 0 624 -82 656 -43 l 710 708 l 574 708 l 574 274 b 389 96 574 167 501 96 b 250 256 289 96 250 160 l 250 708 l 113 708 l 113 218 b 340 -19 113 57 213 -19 b 571 90 461 -19 533 36 l 574 90 z "},"ů":{"ha":833,"x_min":0,"x_max":0,"o":"m 574 0 l 710 0 l 710 708 l 574 708 l 574 274 b 389 96 574 167 501 96 b 250 256 289 96 250 160 l 250 708 l 113 708 l 113 218 b 340 -19 113 57 213 -19 b 571 90 461 -19 533 36 l 574 90 z m 275 899 b 403 771 275 822 331 771 b 532 899 478 771 532 822 b 403 1026 532 975 478 1026 b 275 899 331 1026 275 975 z m 340 899 b 403 965 340 938 367 965 b 468 899 442 965 468 938 b 403 832 468 858 442 832 b 340 899 367 832 340 858 z "},"ũ":{"ha":833,"x_min":0,"x_max":0,"o":"m 574 0 l 710 0 l 710 708 l 574 708 l 574 274 b 389 96 574 167 501 96 b 250 256 289 96 250 160 l 250 708 l 113 708 l 113 218 b 340 -19 113 57 213 -19 b 571 90 461 -19 533 36 l 574 90 z m 197 824 l 289 824 b 325 872 289 842 293 872 b 499 821 365 872 429 821 b 606 968 556 821 606 861 l 514 968 b 479 919 514 947 510 919 b 304 971 438 919 375 971 b 197 824 247 971 197 928 z "},"v":{"ha":833,"x_min":0,"x_max":0,"o":"m 340 0 l 494 0 l 753 708 l 611 708 l 419 139 l 417 139 l 226 708 l 81 708 z "},"w":{"ha":833,"x_min":0,"x_max":0,"o":"m 154 0 l 308 0 l 414 556 l 421 556 l 524 0 l 678 0 l 793 708 l 657 708 l 594 144 l 586 144 l 488 708 l 349 708 l 250 144 l 243 144 l 181 708 l 40 708 z "},"ẃ":{"ha":833,"x_min":0,"x_max":0,"o":"m 154 0 l 308 0 l 414 556 l 421 556 l 524 0 l 678 0 l 793 708 l 657 708 l 594 144 l 586 144 l 488 708 l 349 708 l 250 144 l 243 144 l 181 708 l 40 708 z m 351 815 l 460 815 l 593 1007 l 433 1007 z "},"ŵ":{"ha":833,"x_min":0,"x_max":0,"o":"m 154 0 l 308 0 l 414 556 l 421 556 l 524 0 l 678 0 l 793 708 l 657 708 l 594 144 l 586 144 l 488 708 l 349 708 l 250 144 l 243 144 l 181 708 l 40 708 z m 211 815 l 340 815 l 415 939 l 418 939 l 492 815 l 622 815 l 490 1007 l 343 1007 z "},"ẅ":{"ha":833,"x_min":0,"x_max":0,"o":"m 154 0 l 308 0 l 414 556 l 421 556 l 524 0 l 678 0 l 793 708 l 657 708 l 594 144 l 586 144 l 488 708 l 349 708 l 250 144 l 243 144 l 181 708 l 40 708 z m 222 835 l 376 835 l 376 982 l 222 982 z m 456 835 l 610 835 l 610 982 l 456 982 z "},"ẁ":{"ha":833,"x_min":0,"x_max":0,"o":"m 154 0 l 308 0 l 414 556 l 421 556 l 524 0 l 678 0 l 793 708 l 657 708 l 594 144 l 586 144 l 488 708 l 349 708 l 250 144 l 243 144 l 181 708 l 40 708 z m 242 1007 l 358 815 l 465 815 l 394 1007 z "},"x":{"ha":833,"x_min":0,"x_max":0,"o":"m 78 0 l 236 0 l 413 271 l 415 271 l 596 0 l 756 0 l 497 363 l 731 708 l 575 708 l 418 456 l 415 456 l 258 708 l 101 708 l 333 363 z "},"y":{"ha":833,"x_min":0,"x_max":0,"o":"m 231 -249 b 483 -17 349 -249 414 -190 l 767 708 l 624 708 l 422 167 l 419 167 l 215 708 l 67 708 l 350 13 b 200 -132 311 -101 260 -132 b 140 -128 189 -132 167 -132 l 140 -239 b 231 -249 176 -246 203 -249 z "},"ý":{"ha":833,"x_min":0,"x_max":0,"o":"m 231 -249 b 483 -17 349 -249 414 -190 l 767 708 l 624 708 l 422 167 l 419 167 l 215 708 l 67 708 l 350 13 b 200 -132 311 -101 260 -132 b 140 -128 189 -132 167 -132 l 140 -239 b 231 -249 176 -246 203 -249 z m 349 815 l 457 815 l 590 1007 l 431 1007 z "},"ŷ":{"ha":833,"x_min":0,"x_max":0,"o":"m 231 -249 b 483 -17 349 -249 414 -190 l 767 708 l 624 708 l 422 167 l 419 167 l 215 708 l 67 708 l 350 13 b 200 -132 311 -101 260 -132 b 140 -128 189 -132 167 -132 l 140 -239 b 231 -249 176 -246 203 -249 z m 208 815 l 338 815 l 413 939 l 415 939 l 489 815 l 619 815 l 488 1007 l 340 1007 z "},"ÿ":{"ha":833,"x_min":0,"x_max":0,"o":"m 231 -249 b 483 -17 349 -249 414 -190 l 767 708 l 624 708 l 422 167 l 419 167 l 215 708 l 67 708 l 350 13 b 200 -132 311 -101 260 -132 b 140 -128 189 -132 167 -132 l 140 -239 b 231 -249 176 -246 203 -249 z m 221 835 l 375 835 l 375 982 l 221 982 z m 454 835 l 608 835 l 608 982 l 454 982 z "},"ỳ":{"ha":833,"x_min":0,"x_max":0,"o":"m 231 -249 b 483 -17 349 -249 414 -190 l 767 708 l 624 708 l 422 167 l 419 167 l 215 708 l 67 708 l 350 13 b 200 -132 311 -101 260 -132 b 140 -128 189 -132 167 -132 l 140 -239 b 231 -249 176 -246 203 -249 z m 240 1007 l 357 815 l 464 815 l 393 1007 z "},"z":{"ha":833,"x_min":0,"x_max":0,"o":"m 111 0 l 722 0 l 722 113 l 285 113 l 285 115 l 707 622 l 707 708 l 138 708 l 138 596 l 524 596 l 524 593 l 111 99 z "},"ź":{"ha":833,"x_min":0,"x_max":0,"o":"m 111 0 l 722 0 l 722 113 l 285 113 l 285 115 l 707 622 l 707 708 l 138 708 l 138 596 l 524 596 l 524 593 l 111 99 z m 350 815 l 458 815 l 592 1007 l 432 1007 z "},"ž":{"ha":833,"x_min":0,"x_max":0,"o":"m 111 0 l 722 0 l 722 113 l 285 113 l 285 115 l 707 622 l 707 708 l 138 708 l 138 596 l 524 596 l 524 593 l 111 99 z m 210 1007 l 342 815 l 489 815 l 621 1007 l 490 1007 l 417 883 l 414 883 l 339 1007 z "},"ż":{"ha":833,"x_min":0,"x_max":0,"o":"m 111 0 l 722 0 l 722 113 l 285 113 l 285 115 l 707 622 l 707 708 l 138 708 l 138 596 l 524 596 l 524 593 l 111 99 z m 322 835 l 507 835 l 507 1010 l 322 1010 z "},"ﬁ":{"ha":833,"x_min":0,"x_max":0,"o":"m 160 0 l 297 0 l 297 596 l 585 596 l 585 0 l 722 0 l 722 708 l 297 708 l 297 797 b 386 889 297 872 317 889 b 440 885 406 889 417 888 l 440 994 b 358 1003 406 1000 383 1003 b 160 794 233 1003 160 958 l 160 708 l 26 708 l 26 596 l 160 596 z m 557 826 l 722 826 l 722 990 l 557 990 z "},"ﬂ":{"ha":833,"x_min":0,"x_max":0,"o":"m 160 0 l 297 0 l 297 596 l 440 596 l 440 708 l 297 708 l 297 797 b 386 889 297 872 317 889 b 440 885 406 889 417 888 l 440 994 b 358 1003 406 1000 383 1003 b 160 794 233 1003 160 958 l 160 708 l 26 708 l 26 596 l 160 596 z m 585 0 l 722 0 l 722 993 l 585 993 z "},"ª":{"ha":833,"x_min":0,"x_max":0,"o":"m 325 415 b 508 507 408 415 472 454 l 511 507 b 606 424 518 451 544 424 b 674 433 625 424 649 426 l 674 507 l 658 507 b 632 557 635 507 632 526 l 632 808 b 418 1003 632 954 544 1003 b 169 808 249 1003 175 915 l 296 808 b 411 910 300 874 329 910 b 510 843 485 910 510 879 b 372 757 510 782 449 772 b 147 579 242 733 147 693 b 325 415 147 479 215 415 z m 278 586 b 397 679 278 636 324 664 b 510 719 460 693 496 706 l 510 650 b 367 515 510 567 451 515 b 278 586 307 515 278 540 z "},"º":{"ha":833,"x_min":0,"x_max":0,"o":"m 417 415 b 696 710 590 415 696 538 b 417 1003 696 882 590 1003 b 136 710 243 1003 136 882 b 417 415 136 536 243 415 z m 264 710 b 417 900 264 818 311 900 b 569 710 521 900 569 818 b 417 518 569 600 521 518 b 264 710 311 518 264 600 z "},"А":{"ha":833,"x_min":0,"x_max":0,"o":"m 33 0 l 193 0 l 254 239 l 574 239 l 636 0 l 800 0 l 496 993 l 335 993 z m 294 368 l 413 851 l 418 851 l 533 368 z "},"Б":{"ha":833,"x_min":0,"x_max":0,"o":"m 110 0 l 439 0 b 764 318 642 0 764 108 b 451 625 764 526 646 625 l 261 625 l 261 861 l 685 861 l 685 993 l 110 993 z m 261 132 l 261 493 l 447 493 b 606 318 553 493 606 425 b 438 132 606 203 556 132 z "},"В":{"ha":833,"x_min":0,"x_max":0,"o":"m 110 0 l 486 0 b 764 290 654 0 764 100 b 606 533 764 435 692 514 l 606 536 b 732 743 672 564 732 622 b 468 993 732 900 635 993 l 110 993 z m 261 132 l 261 460 l 474 460 b 607 296 557 460 607 400 b 461 132 607 201 569 132 z m 261 581 l 261 861 l 456 861 b 575 721 529 861 575 810 b 449 581 575 632 536 581 z "},"Г":{"ha":833,"x_min":0,"x_max":0,"o":"m 221 0 l 374 0 l 374 861 l 765 861 l 765 993 l 221 993 z "},"Ѓ":{"ha":833,"x_min":0,"x_max":0,"o":"m 221 0 l 374 0 l 374 861 l 765 861 l 765 993 l 221 993 z m 432 1100 l 540 1100 l 674 1292 l 514 1292 z "},"Ґ":{"ha":833,"x_min":0,"x_max":0,"o":"m 600 993 l 193 993 l 193 0 l 346 0 l 346 861 l 738 861 l 738 1131 l 600 1131 z "},"Ғ":{"ha":833,"x_min":0,"x_max":0,"o":"m 32 426 l 221 426 l 221 0 l 374 0 l 374 426 l 646 426 l 646 540 l 374 540 l 374 861 l 765 861 l 765 993 l 221 993 l 221 540 l 32 540 z "},"Д":{"ha":833,"x_min":0,"x_max":0,"o":"m 15 -179 l 154 -179 l 154 0 l 678 0 l 678 -179 l 817 -179 l 817 132 l 718 132 l 718 993 l 201 993 l 176 382 b 78 132 169 206 150 132 l 15 132 z m 269 132 l 269 135 b 321 325 297 174 317 226 l 344 861 l 567 861 l 567 132 z "},"Е":{"ha":833,"x_min":0,"x_max":0,"o":"m 124 0 l 754 0 l 754 132 l 278 132 l 278 447 l 682 447 l 682 579 l 278 579 l 278 861 l 742 861 l 742 993 l 124 993 z "},"Ѐ":{"ha":833,"x_min":0,"x_max":0,"o":"m 124 0 l 754 0 l 754 132 l 278 132 l 278 447 l 682 447 l 682 579 l 278 579 l 278 861 l 742 861 l 742 993 l 124 993 z m 260 1292 l 376 1100 l 483 1100 l 413 1292 z "},"Ё":{"ha":833,"x_min":0,"x_max":0,"o":"m 124 0 l 754 0 l 754 132 l 278 132 l 278 447 l 682 447 l 682 579 l 278 579 l 278 861 l 742 861 l 742 993 l 124 993 z m 240 1119 l 394 1119 l 394 1267 l 240 1267 z m 474 1119 l 628 1119 l 628 1267 l 474 1267 z "},"Ж":{"ha":833,"x_min":0,"x_max":0,"o":"m 0 0 l 168 0 l 288 417 l 347 417 l 347 0 l 488 0 l 488 417 l 546 417 l 665 0 l 833 0 l 643 494 l 817 993 l 667 993 l 547 550 l 488 550 l 488 993 l 347 993 l 347 550 l 289 550 l 168 993 l 17 993 l 192 493 z "},"З":{"ha":833,"x_min":0,"x_max":0,"o":"m 408 -21 b 751 265 610 -21 751 93 b 565 500 751 386 683 467 l 565 503 b 721 735 674 547 721 636 b 401 1008 721 911 571 1008 b 76 721 232 1008 79 913 l 229 721 b 399 876 229 825 314 876 b 568 718 483 876 568 824 b 403 561 568 632 513 561 l 303 561 l 303 438 l 408 438 b 599 276 543 438 599 361 b 413 113 599 186 533 113 b 218 276 307 113 221 169 l 65 276 b 408 -21 65 83 215 -21 z "},"И":{"ha":833,"x_min":0,"x_max":0,"o":"m 733 0 l 733 993 l 563 993 l 253 229 l 250 229 l 250 993 l 100 993 l 100 0 l 271 0 l 585 764 l 588 764 l 583 0 z "},"Й":{"ha":833,"x_min":0,"x_max":0,"o":"m 733 0 l 733 993 l 563 993 l 253 229 l 250 229 l 250 993 l 100 993 l 100 0 l 271 0 l 585 764 l 588 764 l 583 0 z m 229 1278 b 417 1086 233 1150 311 1086 b 603 1278 524 1086 597 1154 l 510 1278 b 417 1182 506 1211 476 1182 b 322 1278 357 1182 326 1211 z "},"Ѝ":{"ha":833,"x_min":0,"x_max":0,"o":"m 733 0 l 733 993 l 563 993 l 253 229 l 250 229 l 250 993 l 100 993 l 100 0 l 271 0 l 585 764 l 588 764 l 583 0 z m 240 1292 l 357 1100 l 464 1100 l 393 1292 z "},"К":{"ha":833,"x_min":0,"x_max":0,"o":"m 639 0 l 829 0 l 483 501 l 818 993 l 654 993 l 371 550 l 300 550 l 300 993 l 149 993 l 149 0 l 300 0 l 300 417 l 371 417 z "},"Ќ":{"ha":833,"x_min":0,"x_max":0,"o":"m 639 0 l 829 0 l 483 501 l 818 993 l 654 993 l 371 550 l 300 550 l 300 993 l 149 993 l 149 0 l 300 0 l 300 417 l 371 417 z m 401 1100 l 510 1100 l 643 1292 l 483 1292 z "},"Л":{"ha":833,"x_min":0,"x_max":0,"o":"m 103 -21 b 329 265 235 -21 318 47 l 356 861 l 567 861 l 567 0 l 718 0 l 718 993 l 213 993 l 183 263 b 76 114 179 146 140 114 b 0 128 44 114 18 121 l 0 -4 b 103 -21 19 -15 63 -21 z "},"М":{"ha":833,"x_min":0,"x_max":0,"o":"m 79 0 l 219 0 l 219 757 l 222 757 l 354 222 l 479 222 l 611 757 l 614 757 l 614 0 l 754 0 l 754 993 l 586 993 l 418 363 l 415 363 l 247 993 l 79 993 z "},"Н":{"ha":833,"x_min":0,"x_max":0,"o":"m 101 0 l 253 0 l 253 446 l 581 446 l 581 0 l 732 0 l 732 993 l 581 993 l 581 578 l 253 578 l 253 993 l 101 993 z "},"О":{"ha":833,"x_min":0,"x_max":0,"o":"m 418 -19 b 769 497 635 -19 769 172 b 418 1013 769 822 635 1013 b 64 497 200 1013 64 822 b 418 -19 64 172 200 -19 z m 219 497 b 418 881 219 728 272 881 b 614 497 560 881 614 732 b 418 113 614 264 560 113 b 219 497 272 113 219 267 z "},"П":{"ha":833,"x_min":0,"x_max":0,"o":"m 115 0 l 267 0 l 267 861 l 567 861 l 567 0 l 718 0 l 718 993 l 115 993 z "},"Р":{"ha":833,"x_min":0,"x_max":0,"o":"m 124 0 l 276 0 l 276 403 l 489 403 b 771 699 651 403 771 489 b 489 993 771 907 651 993 l 124 993 z m 276 535 l 276 861 l 472 861 b 613 699 564 861 613 811 b 472 535 613 586 564 535 z "},"С":{"ha":833,"x_min":0,"x_max":0,"o":"m 432 -19 b 750 361 631 -19 735 140 l 593 361 b 432 113 583 239 554 113 b 249 497 283 113 249 301 b 431 881 249 692 283 881 b 593 656 540 881 576 783 l 750 656 b 436 1013 732 858 632 1013 b 92 496 210 1013 92 793 b 432 -19 92 197 208 -19 z "},"Т":{"ha":833,"x_min":0,"x_max":0,"o":"m 340 0 l 493 0 l 493 861 l 776 861 l 776 993 l 57 993 l 57 861 l 340 861 z "},"У":{"ha":833,"x_min":0,"x_max":0,"o":"m 615 993 l 415 471 l 410 471 l 222 993 l 64 993 l 335 260 l 235 0 l 390 0 l 769 993 z "},"Ў":{"ha":833,"x_min":0,"x_max":0,"o":"m 615 993 l 415 471 l 410 471 l 222 993 l 64 993 l 335 260 l 235 0 l 390 0 l 769 993 z m 238 1278 b 425 1086 242 1150 319 1086 b 611 1278 532 1086 606 1154 l 518 1278 b 425 1182 514 1211 485 1182 b 331 1278 365 1182 335 1211 z "},"Ф":{"ha":833,"x_min":0,"x_max":0,"o":"m 346 0 l 485 0 l 485 117 b 797 490 681 140 797 272 b 485 863 797 708 681 839 l 485 993 l 346 993 l 346 863 b 36 490 151 838 36 707 b 346 117 36 274 151 142 z m 183 490 b 346 742 183 631 242 717 l 346 238 b 183 490 242 263 183 349 z m 485 236 l 485 743 b 650 490 590 718 650 633 b 485 236 650 347 590 261 z "},"Х":{"ha":833,"x_min":0,"x_max":0,"o":"m 39 0 l 207 0 l 413 396 l 415 396 l 622 0 l 794 0 l 506 510 l 782 993 l 615 993 l 419 618 l 418 618 l 224 993 l 54 993 l 331 507 z "},"Ч":{"ha":833,"x_min":0,"x_max":0,"o":"m 549 0 l 699 0 l 699 993 l 549 993 l 549 493 b 399 432 508 449 456 432 b 226 610 299 432 226 483 l 226 993 l 76 993 l 76 607 b 357 299 76 389 201 299 b 546 357 429 299 499 318 l 549 357 z "},"Ц":{"ha":833,"x_min":0,"x_max":0,"o":"m 678 -179 l 817 -179 l 817 132 l 718 132 l 718 993 l 567 993 l 567 132 l 267 132 l 267 993 l 115 993 l 115 0 l 678 0 z "},"Ш":{"ha":833,"x_min":0,"x_max":0,"o":"m 60 -1 l 774 -1 l 774 992 l 632 992 l 632 132 l 488 132 l 488 992 l 346 992 l 346 132 l 201 132 l 201 992 l 60 992 z "},"Щ":{"ha":833,"x_min":0,"x_max":0,"o":"m 685 -179 l 817 -179 l 817 132 l 719 132 l 719 993 l 581 993 l 581 132 l 458 132 l 458 993 l 321 993 l 321 132 l 199 132 l 199 993 l 60 993 l 60 0 l 685 0 z "},"Џ":{"ha":833,"x_min":0,"x_max":0,"o":"m 347 -181 l 486 -181 l 486 0 l 718 0 l 718 993 l 567 993 l 567 132 l 267 132 l 267 993 l 115 993 l 115 0 l 347 0 z "},"Ь":{"ha":833,"x_min":0,"x_max":0,"o":"m 110 0 l 439 0 b 764 318 642 0 764 108 b 451 625 764 526 646 625 l 261 625 l 261 993 l 110 993 z m 261 132 l 261 493 l 447 493 b 606 318 553 493 606 425 b 438 132 606 203 556 132 z "},"Ы":{"ha":833,"x_min":0,"x_max":0,"o":"m 50 0 l 299 0 b 564 315 456 0 564 104 b 294 635 564 521 457 635 l 194 635 l 194 993 l 50 993 z m 194 132 l 194 503 l 290 503 b 417 317 368 503 417 426 b 285 132 417 189 364 132 z m 639 0 l 783 0 l 783 993 l 639 993 z "},"Ъ":{"ha":833,"x_min":0,"x_max":0,"o":"m 165 0 l 494 0 b 807 322 683 0 807 124 b 508 635 807 522 689 635 l 310 635 l 310 993 l 13 993 l 13 861 l 165 861 z m 310 132 l 310 503 l 513 503 b 660 322 604 503 660 431 b 501 132 660 206 599 132 z "},"Љ":{"ha":833,"x_min":0,"x_max":0,"o":"m 89 -21 b 260 215 189 -21 251 33 l 289 864 l 381 864 l 381 0 l 568 0 b 807 322 722 0 807 118 b 575 635 807 529 726 635 l 515 635 l 515 993 l 156 993 l 126 247 b 57 110 122 140 97 110 b 0 124 36 110 14 117 l 0 -4 b 89 -21 17 -15 60 -21 z m 515 129 l 515 506 l 572 506 b 669 321 638 506 669 436 b 565 129 669 194 631 129 z "},"Њ":{"ha":833,"x_min":0,"x_max":0,"o":"m 515 993 l 378 993 l 378 604 l 196 604 l 196 993 l 58 993 l 58 0 l 196 0 l 196 475 l 378 475 l 378 0 l 568 0 b 807 307 722 0 807 103 b 575 604 807 514 726 604 l 515 604 z m 515 129 l 515 475 l 568 475 b 665 306 635 475 665 418 b 561 129 665 190 632 129 z "},"Ѕ":{"ha":833,"x_min":0,"x_max":0,"o":"m 440 -19 b 764 279 656 -19 764 108 b 443 583 764 488 604 535 b 256 750 332 617 256 642 b 406 883 256 838 308 883 b 585 697 517 883 571 818 l 743 697 b 407 1013 732 896 603 1013 b 97 742 219 1013 97 910 b 374 461 97 556 239 504 b 606 271 526 415 606 397 b 439 110 606 179 563 110 b 222 335 294 110 229 204 l 65 335 b 440 -19 72 107 226 -19 z "},"Є":{"ha":833,"x_min":0,"x_max":0,"o":"m 425 -19 b 746 324 617 -19 722 122 l 589 324 b 424 113 574 211 538 113 b 250 439 292 113 256 265 l 500 439 l 500 563 l 250 563 b 424 881 258 732 300 881 b 586 697 526 881 565 806 l 746 697 b 424 1013 718 879 617 1013 b 92 496 211 1013 92 804 b 425 -19 92 193 199 -19 z "},"Э":{"ha":833,"x_min":0,"x_max":0,"o":"m 410 -19 b 742 496 635 -19 742 175 b 410 1013 742 826 622 1013 b 88 697 217 1013 115 879 l 247 697 b 410 881 268 806 307 881 b 583 563 533 881 575 732 l 333 563 l 333 439 l 583 439 b 410 113 578 265 542 113 b 244 324 296 113 260 211 l 88 324 b 410 -19 111 122 217 -19 z "},"І":{"ha":833,"x_min":0,"x_max":0,"o":"m 113 0 l 721 0 l 721 132 l 493 132 l 493 861 l 721 861 l 721 993 l 113 993 l 113 861 l 339 861 l 339 132 l 113 132 z "},"Ї":{"ha":833,"x_min":0,"x_max":0,"o":"m 113 0 l 721 0 l 721 132 l 493 132 l 493 861 l 721 861 l 721 993 l 113 993 l 113 861 l 339 861 l 339 132 l 113 132 z m 222 1119 l 376 1119 l 376 1267 l 222 1267 z m 456 1119 l 610 1119 l 610 1267 l 456 1267 z "},"Ј":{"ha":833,"x_min":0,"x_max":0,"o":"m 376 -19 b 694 310 619 -19 694 142 l 694 993 l 540 993 l 540 310 b 374 113 540 196 504 113 b 208 310 242 113 208 197 l 208 350 l 61 350 l 61 310 b 376 -19 61 142 136 -19 z "},"Ћ":{"ha":833,"x_min":0,"x_max":0,"o":"m 13 861 l 203 861 l 203 0 l 353 0 l 353 501 b 478 551 393 539 436 551 b 607 404 549 551 607 510 l 607 0 l 757 0 l 757 428 b 525 685 757 606 649 685 b 356 638 458 685 399 665 l 353 638 l 353 861 l 543 861 l 543 993 l 13 993 z "},"Ю":{"ha":833,"x_min":0,"x_max":0,"o":"m 551 -19 b 796 497 742 -19 796 178 b 551 1013 796 819 742 1013 b 303 567 378 1013 311 850 l 193 567 l 193 993 l 54 993 l 54 0 l 193 0 l 193 438 l 303 438 b 551 -19 310 147 375 -19 z m 442 496 b 551 883 442 757 468 883 b 654 494 638 883 654 751 b 551 110 654 247 638 110 b 442 496 468 110 442 235 z "},"Я":{"ha":833,"x_min":0,"x_max":0,"o":"m 67 8 l 67 0 l 232 0 b 406 400 268 49 186 400 l 563 400 l 563 0 l 715 0 l 715 993 l 388 993 b 94 715 190 993 94 889 b 269 471 94 593 163 499 l 269 468 b 67 8 33 418 117 51 z m 246 701 b 407 861 246 804 297 861 l 563 861 l 563 529 l 414 529 b 246 701 296 529 246 588 z "},"Ђ":{"ha":833,"x_min":0,"x_max":0,"o":"m 13 861 l 203 861 l 203 0 l 353 0 l 353 501 b 478 551 393 539 436 551 b 607 404 549 551 607 510 l 607 -57 b 553 -122 607 -104 581 -122 b 492 -114 538 -122 513 -119 l 492 -244 b 585 -254 519 -251 549 -254 b 757 -75 692 -254 757 -200 l 757 428 b 525 685 757 606 649 685 b 356 638 458 685 399 665 l 353 638 l 353 861 l 543 861 l 543 993 l 13 993 z "},"Җ":{"ha":833,"x_min":0,"x_max":0,"o":"m 0 0 l 168 0 l 288 417 l 347 417 l 347 0 l 488 0 l 488 417 l 546 417 l 665 0 l 704 0 l 704 -181 l 843 -181 l 843 132 l 782 132 l 643 494 l 817 993 l 667 993 l 547 550 l 488 550 l 488 993 l 347 993 l 347 550 l 289 550 l 168 993 l 17 993 l 192 493 z "},"Қ":{"ha":833,"x_min":0,"x_max":0,"o":"m 639 0 l 693 0 l 693 -181 l 832 -181 l 832 132 l 738 132 l 483 501 l 818 993 l 654 993 l 371 550 l 300 550 l 300 993 l 149 993 l 149 0 l 300 0 l 300 417 l 371 417 z "},"Ң":{"ha":833,"x_min":0,"x_max":0,"o":"m 101 0 l 253 0 l 253 446 l 581 446 l 581 0 l 654 0 l 654 -181 l 793 -181 l 793 132 l 732 132 l 732 993 l 581 993 l 581 578 l 253 578 l 253 993 l 101 993 z "},"Ү":{"ha":833,"x_min":0,"x_max":0,"o":"m 340 0 l 493 0 l 493 399 l 810 993 l 647 993 l 418 518 l 415 518 l 189 993 l 24 993 l 340 399 z "},"Ұ":{"ha":833,"x_min":0,"x_max":0,"o":"m 122 242 l 340 242 l 340 0 l 493 0 l 493 242 l 711 242 l 711 354 l 493 354 l 493 399 l 810 993 l 647 993 l 418 518 l 415 518 l 189 993 l 24 993 l 340 399 l 340 354 l 122 354 z "},"Ҳ":{"ha":833,"x_min":0,"x_max":0,"o":"m 39 0 l 207 0 l 413 396 l 415 396 l 622 0 l 667 0 l 667 -181 l 806 -181 l 806 132 l 719 132 l 506 510 l 782 993 l 615 993 l 419 618 l 418 618 l 224 993 l 54 993 l 331 507 z "},"Ҷ":{"ha":833,"x_min":0,"x_max":0,"o":"m 549 0 l 633 0 l 633 -181 l 772 -181 l 772 132 l 699 132 l 699 993 l 549 993 l 549 493 b 399 432 508 449 456 432 b 226 610 299 432 226 483 l 226 993 l 76 993 l 76 607 b 357 299 76 389 201 299 b 546 357 429 299 499 318 l 549 357 z "},"Һ":{"ha":833,"x_min":0,"x_max":0,"o":"m 285 993 l 135 993 l 135 0 l 285 0 l 285 500 b 435 561 325 544 378 561 b 607 383 535 561 607 510 l 607 0 l 757 0 l 757 386 b 476 694 757 604 632 694 b 288 636 404 694 335 675 l 285 636 z "},"Ә":{"ha":833,"x_min":0,"x_max":0,"o":"m 407 -21 b 750 494 604 -21 750 154 b 414 1013 750 836 606 1013 b 99 696 276 1013 132 931 l 258 696 b 414 881 278 836 339 881 b 592 539 501 881 583 803 l 88 538 b 85 457 85 515 85 483 b 407 -21 85 156 213 -21 z m 240 406 l 590 407 b 408 113 578 204 514 113 b 240 406 289 113 240 229 z "},"Ӣ":{"ha":833,"x_min":0,"x_max":0,"o":"m 733 0 l 733 993 l 563 993 l 253 229 l 250 229 l 250 993 l 100 993 l 100 0 l 271 0 l 585 764 l 588 764 l 583 0 z m 232 1119 l 599 1119 l 599 1226 l 232 1226 z "},"Ө":{"ha":833,"x_min":0,"x_max":0,"o":"m 418 -19 b 769 497 635 -19 769 172 b 418 1013 769 822 635 1013 b 64 497 200 1013 64 822 b 418 -19 64 172 200 -19 z m 221 435 l 613 435 b 418 113 603 238 547 113 b 221 435 286 113 231 239 z m 221 560 b 418 881 231 756 286 881 b 613 560 547 881 603 758 z "},"Ӯ":{"ha":833,"x_min":0,"x_max":0,"o":"m 615 993 l 415 471 l 410 471 l 222 993 l 64 993 l 335 260 l 235 0 l 390 0 l 769 993 z m 242 1119 l 608 1119 l 608 1226 l 242 1226 z "},"а":{"ha":833,"x_min":0,"x_max":0,"o":"m 317 -19 b 549 100 422 -19 503 29 l 551 100 b 671 -7 560 17 604 -7 b 751 3 703 -7 728 -4 l 751 86 b 726 83 740 83 731 83 b 681 147 692 83 681 99 l 681 486 b 418 731 681 669 572 731 b 128 488 225 731 133 625 l 264 488 b 414 621 269 571 300 621 b 549 529 517 621 549 579 b 372 422 549 458 489 446 b 96 190 210 390 96 342 b 317 -19 96 60 179 -19 z m 238 193 b 401 326 238 272 283 299 b 549 379 493 349 522 357 l 549 276 b 358 90 549 151 467 90 b 238 193 271 90 238 125 z "},"б":{"ha":833,"x_min":0,"x_max":0,"o":"m 417 -21 b 742 367 618 -21 742 143 b 460 731 742 582 626 731 b 207 567 347 731 251 664 l 204 567 b 404 794 225 697 290 768 l 550 831 b 725 994 654 856 725 896 l 592 994 b 475 938 592 979 565 963 l 383 914 b 92 439 158 854 92 653 b 417 -21 92 129 222 -21 z m 231 354 b 418 617 231 506 304 617 b 603 361 529 617 603 513 b 414 92 603 211 531 92 b 231 354 303 92 231 203 z "},"в":{"ha":833,"x_min":0,"x_max":0,"o":"m 138 0 l 483 0 b 732 200 638 0 732 74 b 553 369 732 300 657 356 l 553 372 b 693 526 635 389 693 449 b 460 708 693 636 614 708 l 138 708 z m 274 113 l 274 310 l 478 310 b 593 210 542 310 593 274 b 471 113 593 147 549 113 z m 274 411 l 274 596 l 451 596 b 557 508 518 596 557 565 b 460 411 557 456 513 411 z "},"г":{"ha":833,"x_min":0,"x_max":0,"o":"m 182 0 l 318 0 l 318 596 l 707 596 l 707 708 l 182 708 z "},"ѓ":{"ha":833,"x_min":0,"x_max":0,"o":"m 182 0 l 318 0 l 318 596 l 707 596 l 707 708 l 182 708 z m 390 815 l 499 815 l 632 1007 l 472 1007 z "},"ґ":{"ha":833,"x_min":0,"x_max":0,"o":"m 182 0 l 318 0 l 318 596 l 707 596 l 707 861 l 592 861 l 592 708 l 182 708 z "},"ғ":{"ha":833,"x_min":0,"x_max":0,"o":"m 43 306 l 182 306 l 182 0 l 318 0 l 318 306 l 568 306 l 568 401 l 318 401 l 318 596 l 707 596 l 707 708 l 182 708 l 182 401 l 43 401 z "},"д":{"ha":833,"x_min":0,"x_max":0,"o":"m 53 -181 l 168 -181 l 168 0 l 696 0 l 696 -181 l 811 -181 l 811 113 l 726 113 l 726 708 l 244 708 l 217 264 b 131 113 210 157 182 113 l 53 113 z m 306 113 l 306 115 b 346 264 328 140 340 175 l 368 596 l 593 596 l 593 113 z "},"е":{"ha":833,"x_min":0,"x_max":0,"o":"m 425 -21 b 721 218 594 -21 688 85 l 582 218 b 428 90 569 168 526 90 b 251 318 315 90 256 199 l 726 318 b 728 369 728 331 728 351 b 425 731 728 586 621 731 b 111 356 229 731 111 576 b 425 -21 111 139 225 -21 z m 251 425 b 422 619 258 543 326 619 b 586 425 522 619 586 536 z "},"ѐ":{"ha":833,"x_min":0,"x_max":0,"o":"m 425 -21 b 721 218 594 -21 688 85 l 582 218 b 428 90 569 168 526 90 b 251 318 315 90 256 199 l 726 318 b 728 369 728 331 728 351 b 425 731 728 586 621 731 b 111 356 229 731 111 576 b 425 -21 111 139 225 -21 z m 243 1010 l 360 818 l 467 818 l 396 1010 z m 251 425 b 422 619 258 543 326 619 b 586 425 522 619 586 536 z "},"ё":{"ha":833,"x_min":0,"x_max":0,"o":"m 425 -21 b 721 218 594 -21 688 85 l 582 218 b 428 90 569 168 526 90 b 251 318 315 90 256 199 l 726 318 b 728 369 728 331 728 351 b 425 731 728 586 621 731 b 111 356 229 731 111 576 b 425 -21 111 139 225 -21 z m 225 838 l 379 838 l 379 985 l 225 985 z m 251 425 b 422 619 258 543 326 619 b 586 425 522 619 586 536 z m 458 838 l 613 838 l 613 985 l 458 985 z "},"ж":{"ha":833,"x_min":0,"x_max":0,"o":"m 32 0 l 186 0 l 301 292 l 353 292 l 353 0 l 481 0 l 481 292 l 532 292 l 647 0 l 801 0 l 638 354 l 797 708 l 656 708 l 533 406 l 481 406 l 481 708 l 353 708 l 353 406 l 300 406 l 178 708 l 36 708 l 197 354 z "},"з":{"ha":833,"x_min":0,"x_max":0,"o":"m 422 -21 b 715 186 581 -21 715 57 b 556 360 715 275 653 336 l 556 361 b 692 529 632 383 692 444 b 414 731 692 649 572 731 b 117 507 254 731 118 644 l 253 507 b 413 617 254 568 321 617 b 553 514 493 617 553 579 b 438 408 553 454 506 408 l 336 408 l 336 301 l 443 301 b 576 203 513 301 576 267 b 418 93 576 132 501 93 b 244 208 335 93 251 132 l 108 208 b 422 -21 113 54 256 -21 z "},"и":{"ha":833,"x_min":0,"x_max":0,"o":"m 126 0 l 261 0 l 571 519 l 571 0 l 707 0 l 707 708 l 572 708 l 263 190 l 263 708 l 126 708 z "},"й":{"ha":833,"x_min":0,"x_max":0,"o":"m 126 0 l 261 0 l 571 519 l 571 0 l 707 0 l 707 708 l 572 708 l 263 190 l 263 708 l 126 708 z m 231 993 b 418 801 235 865 313 801 b 604 993 525 801 599 869 l 511 993 b 418 897 507 926 478 897 b 324 993 358 897 328 926 z "},"ѝ":{"ha":833,"x_min":0,"x_max":0,"o":"m 126 0 l 261 0 l 571 519 l 571 0 l 707 0 l 707 708 l 572 708 l 263 190 l 263 708 l 126 708 z m 243 1007 l 360 815 l 467 815 l 396 1007 z "},"к":{"ha":833,"x_min":0,"x_max":0,"o":"m 592 0 l 754 0 l 496 356 l 746 708 l 594 708 l 390 406 l 274 406 l 274 708 l 136 708 l 136 0 l 274 0 l 274 292 l 385 292 z "},"ќ":{"ha":833,"x_min":0,"x_max":0,"o":"m 592 0 l 754 0 l 496 356 l 746 708 l 594 708 l 390 406 l 274 406 l 274 708 l 136 708 l 136 0 l 274 0 l 274 292 l 385 292 z m 371 815 l 479 815 l 613 1007 l 453 1007 z "},"л":{"ha":833,"x_min":0,"x_max":0,"o":"m 121 -21 b 300 161 225 -21 292 24 l 326 596 l 557 596 l 557 0 l 694 0 l 694 708 l 200 708 l 167 168 b 94 92 163 111 140 92 b 33 101 76 92 54 96 l 33 -8 b 121 -21 57 -17 90 -21 z "},"м":{"ha":833,"x_min":0,"x_max":0,"o":"m 82 0 l 215 0 l 215 475 l 218 475 l 363 94 l 464 94 l 615 475 l 618 475 l 618 0 l 751 0 l 751 708 l 607 708 l 421 218 l 418 218 l 236 708 l 82 708 z "},"н":{"ha":833,"x_min":0,"x_max":0,"o":"m 571 0 l 707 0 l 707 708 l 571 708 l 571 417 l 263 417 l 263 708 l 126 708 l 126 0 l 263 0 l 263 304 l 571 304 z "},"о":{"ha":833,"x_min":0,"x_max":0,"o":"m 415 -21 b 731 356 611 -21 731 131 b 418 731 731 579 611 731 b 103 354 222 731 103 579 b 415 -21 103 129 222 -21 z m 244 354 b 417 617 244 507 303 617 b 589 354 531 617 589 507 b 417 92 589 203 532 92 b 244 354 303 92 244 201 z "},"п":{"ha":833,"x_min":0,"x_max":0,"o":"m 128 0 l 265 0 l 265 596 l 568 596 l 568 0 l 706 0 l 706 708 l 128 708 z "},"р":{"ha":833,"x_min":0,"x_max":0,"o":"m 118 -246 l 254 -246 l 254 88 l 258 88 b 461 -19 292 31 358 -19 b 754 354 629 -19 754 121 b 461 729 754 588 629 729 b 258 625 360 729 293 678 l 254 625 l 254 708 l 118 708 z m 257 354 b 435 615 257 515 325 615 b 611 354 553 615 611 497 b 435 93 611 214 553 93 b 257 354 325 93 257 194 z "},"с":{"ha":833,"x_min":0,"x_max":0,"o":"m 432 -21 b 728 263 600 -21 719 100 l 586 263 b 432 93 582 183 542 93 b 253 354 307 93 253 221 b 432 617 253 488 307 617 b 586 451 539 617 582 528 l 728 451 b 431 729 713 610 600 729 b 111 354 239 729 111 576 b 432 -21 111 132 239 -21 z "},"т":{"ha":833,"x_min":0,"x_max":0,"o":"m 349 0 l 485 0 l 485 596 l 740 596 l 740 708 l 93 708 l 93 596 l 349 596 z "},"у":{"ha":833,"x_min":0,"x_max":0,"o":"m 231 -249 b 483 -17 349 -249 414 -190 l 767 708 l 624 708 l 422 167 l 419 167 l 215 708 l 67 708 l 350 13 b 200 -132 311 -101 260 -132 b 140 -128 189 -132 167 -132 l 140 -239 b 231 -249 176 -246 203 -249 z "},"ў":{"ha":833,"x_min":0,"x_max":0,"o":"m 231 -249 b 483 -17 349 -249 414 -190 l 767 708 l 624 708 l 422 167 l 419 167 l 215 708 l 67 708 l 350 13 b 200 -132 311 -101 260 -132 b 140 -128 189 -132 167 -132 l 140 -239 b 231 -249 176 -246 203 -249 z m 228 993 b 415 801 232 865 310 801 b 601 993 522 801 596 869 l 508 993 b 415 897 504 926 475 897 b 321 993 356 897 325 926 z "},"ф":{"ha":833,"x_min":0,"x_max":0,"o":"m 353 -246 l 481 -246 l 481 -17 b 793 354 667 8 793 147 b 481 726 793 563 667 701 l 481 993 l 353 993 l 353 726 b 40 354 167 701 40 563 b 353 -17 40 147 167 8 z m 171 354 b 353 613 171 490 246 585 l 353 99 b 171 354 246 125 171 218 z m 481 97 l 481 613 b 663 354 588 585 663 490 b 481 97 663 217 588 124 z "},"х":{"ha":833,"x_min":0,"x_max":0,"o":"m 78 0 l 236 0 l 413 271 l 415 271 l 596 0 l 756 0 l 497 363 l 731 708 l 575 708 l 418 456 l 415 456 l 258 708 l 101 708 l 333 363 z "},"ч":{"ha":833,"x_min":0,"x_max":0,"o":"m 554 0 l 692 0 l 692 708 l 554 708 l 554 371 b 397 324 514 343 463 324 b 238 494 306 324 238 363 l 238 708 l 101 708 l 101 479 b 368 207 101 272 222 207 b 551 254 446 207 500 226 l 554 254 z "},"ц":{"ha":833,"x_min":0,"x_max":0,"o":"m 696 -181 l 811 -181 l 811 113 l 726 113 l 726 708 l 590 708 l 590 113 l 263 113 l 263 708 l 126 708 l 126 0 l 696 0 z "},"ш":{"ha":833,"x_min":0,"x_max":0,"o":"m 68 0 l 765 0 l 765 708 l 639 708 l 639 113 l 481 113 l 481 708 l 353 708 l 353 113 l 194 113 l 194 708 l 68 708 z "},"щ":{"ha":833,"x_min":0,"x_max":0,"o":"m 703 -181 l 811 -181 l 811 113 l 731 113 l 731 708 l 604 708 l 604 113 l 461 113 l 461 708 l 335 708 l 335 113 l 192 113 l 192 708 l 65 708 l 65 0 l 703 0 z "},"џ":{"ha":833,"x_min":0,"x_max":0,"o":"m 360 -181 l 475 -181 l 475 0 l 706 0 l 706 708 l 568 708 l 568 113 l 265 113 l 265 708 l 128 708 l 128 0 l 360 0 z "},"ь":{"ha":833,"x_min":0,"x_max":0,"o":"m 147 0 l 471 0 b 738 228 631 0 738 88 b 474 454 738 367 635 454 l 283 454 l 283 708 l 147 708 z m 283 113 l 283 342 l 468 342 b 599 226 550 342 599 297 b 469 113 599 157 546 113 z "},"ы":{"ha":833,"x_min":0,"x_max":0,"o":"m 72 0 l 319 0 b 560 228 467 0 560 88 b 321 454 560 367 469 454 l 200 454 l 200 708 l 72 708 z m 200 113 l 200 342 l 321 342 b 429 226 392 342 429 297 b 321 113 429 157 388 113 z m 633 0 l 761 0 l 761 708 l 633 708 z "},"ъ":{"ha":833,"x_min":0,"x_max":0,"o":"m 188 0 l 511 0 b 778 228 671 0 778 88 b 514 454 778 367 675 454 l 324 454 l 324 708 l 18 708 l 18 596 l 188 596 z m 324 113 l 324 342 l 508 342 b 639 226 590 342 639 297 b 510 113 639 157 586 113 z "},"љ":{"ha":833,"x_min":0,"x_max":0,"o":"m 67 -21 b 224 181 160 -21 217 35 l 242 596 l 365 596 l 365 0 l 585 0 b 804 228 717 0 804 88 b 588 454 804 367 719 454 l 493 454 l 493 708 l 122 708 l 97 193 b 43 93 93 119 78 93 b 0 101 28 93 14 96 l 0 -8 b 67 -21 17 -17 42 -21 z m 493 113 l 493 342 l 582 342 b 674 226 642 342 674 297 b 582 113 674 157 639 113 z "},"њ":{"ha":833,"x_min":0,"x_max":0,"o":"m 365 0 l 588 0 b 804 219 718 0 804 79 b 590 438 804 360 721 438 l 493 438 l 493 708 l 365 708 l 365 438 l 186 438 l 186 708 l 60 708 l 60 0 l 186 0 l 186 324 l 365 324 z m 493 113 l 493 324 l 582 324 b 674 218 640 324 674 289 b 582 113 674 149 638 113 z "},"ѕ":{"ha":833,"x_min":0,"x_max":0,"o":"m 442 -19 b 731 201 625 -19 731 64 b 463 426 731 358 599 396 b 282 531 329 456 282 468 b 411 619 282 585 326 619 b 571 503 508 619 557 578 l 707 503 b 411 729 696 625 608 729 b 139 525 239 729 139 647 b 397 314 139 381 258 344 b 589 194 528 286 589 275 b 439 90 589 142 550 90 b 253 236 315 90 258 153 l 117 236 b 442 -19 122 92 225 -19 z "},"є":{"ha":833,"x_min":0,"x_max":0,"o":"m 431 -21 b 726 226 578 -21 703 71 l 585 226 b 425 92 569 146 504 92 b 260 301 336 92 272 160 l 497 301 l 497 408 l 260 408 b 431 617 272 564 350 617 b 585 488 510 617 567 567 l 726 488 b 431 729 696 649 568 729 b 117 357 269 729 117 619 b 431 -21 117 107 256 -21 z "},"э":{"ha":833,"x_min":0,"x_max":0,"o":"m 403 -21 b 717 357 578 -21 717 107 b 403 729 717 619 564 729 b 107 488 265 729 138 649 l 249 488 b 404 617 267 567 325 617 b 574 408 483 617 561 564 l 336 408 l 336 301 l 574 301 b 408 92 561 160 497 92 b 249 226 329 92 264 146 l 107 226 b 403 -21 131 71 256 -21 z "},"і":{"ha":833,"x_min":0,"x_max":0,"o":"m 157 0 l 699 0 l 699 113 l 510 113 l 510 708 l 157 708 l 157 596 l 374 596 l 374 113 l 157 113 z m 336 835 l 521 835 l 521 1010 l 336 1010 z "},"ї":{"ha":833,"x_min":0,"x_max":0,"o":"m 157 0 l 699 0 l 699 113 l 510 113 l 510 708 l 157 708 l 157 596 l 374 596 l 374 113 l 157 113 z m 233 835 l 388 835 l 388 982 l 233 982 z m 467 835 l 621 835 l 621 982 l 467 982 z "},"ј":{"ha":833,"x_min":0,"x_max":0,"o":"m 333 -251 b 618 -37 508 -251 618 -189 l 618 708 l 146 708 l 146 596 l 481 596 l 481 -32 b 306 -135 481 -115 425 -135 b 146 -131 267 -135 192 -133 l 146 -243 b 333 -251 203 -249 292 -251 z m 444 835 l 629 835 l 629 1010 l 444 1010 z "},"ћ":{"ha":833,"x_min":0,"x_max":0,"o":"m 25 811 l 124 811 l 124 0 l 260 0 l 260 435 b 444 613 260 542 332 613 b 583 454 543 613 583 550 l 583 0 l 721 0 l 721 490 b 493 729 721 653 621 729 b 263 619 372 729 300 672 l 260 619 l 260 811 l 468 811 l 468 904 l 260 904 l 260 993 l 124 993 l 124 904 l 25 904 z "},"ю":{"ha":833,"x_min":0,"x_max":0,"o":"m 74 0 l 201 0 l 201 299 l 288 299 b 531 -21 301 100 385 -21 b 778 356 690 -21 778 124 b 532 731 778 586 690 731 b 288 411 386 731 301 610 l 201 411 l 201 708 l 74 708 z m 418 354 b 532 617 418 519 457 617 b 644 354 606 617 644 519 b 532 92 644 190 606 92 b 418 354 457 92 418 189 z "},"я":{"ha":833,"x_min":0,"x_max":0,"o":"m 86 6 l 86 0 l 231 0 b 421 258 260 36 217 258 l 558 258 l 558 0 l 694 0 l 694 708 l 413 708 b 117 507 213 708 117 625 b 286 317 117 404 189 333 l 286 315 b 86 6 88 286 125 44 z m 256 489 b 428 596 256 558 300 596 l 558 596 l 558 368 l 418 368 b 256 489 303 368 256 421 z "},"ђ":{"ha":833,"x_min":0,"x_max":0,"o":"m 124 0 l 260 0 l 260 435 b 444 613 260 542 332 613 b 583 454 543 613 583 550 l 583 -33 b 513 -136 583 -108 561 -136 b 433 -131 486 -136 456 -133 l 433 -242 b 536 -251 464 -247 497 -251 b 721 -44 640 -251 721 -190 l 721 490 b 493 729 721 653 621 729 b 263 619 372 729 300 672 l 260 619 l 260 811 l 468 811 l 468 904 l 260 904 l 260 993 l 124 993 l 124 904 l 25 904 l 25 811 l 124 811 z "},"җ":{"ha":833,"x_min":0,"x_max":0,"o":"m 32 0 l 186 0 l 301 292 l 353 292 l 353 0 l 481 0 l 481 292 l 532 292 l 647 0 l 715 0 l 715 -181 l 831 -181 l 831 113 l 750 113 l 638 354 l 797 708 l 656 708 l 533 406 l 481 406 l 481 708 l 353 708 l 353 406 l 300 406 l 178 708 l 36 708 l 197 354 z "},"қ":{"ha":833,"x_min":0,"x_max":0,"o":"m 592 0 l 656 0 l 656 -181 l 771 -181 l 771 113 l 672 113 l 496 356 l 746 708 l 594 708 l 390 406 l 274 406 l 274 708 l 136 708 l 136 0 l 274 0 l 274 292 l 385 292 z "},"ң":{"ha":833,"x_min":0,"x_max":0,"o":"m 571 0 l 656 0 l 656 -181 l 771 -181 l 771 113 l 707 113 l 707 708 l 571 708 l 571 417 l 263 417 l 263 708 l 126 708 l 126 0 l 263 0 l 263 304 l 571 304 z "},"ү":{"ha":833,"x_min":0,"x_max":0,"o":"m 354 -246 l 492 -246 l 492 54 l 758 708 l 617 708 l 426 213 l 424 213 l 225 708 l 75 708 l 354 54 z "},"ұ":{"ha":833,"x_min":0,"x_max":0,"o":"m 171 -107 l 354 -107 l 354 -246 l 492 -246 l 492 -107 l 663 -107 l 663 -11 l 492 -11 l 492 54 l 758 708 l 617 708 l 426 213 l 424 213 l 225 708 l 75 708 l 354 54 l 354 -11 l 171 -11 z "},"ҳ":{"ha":833,"x_min":0,"x_max":0,"o":"m 78 0 l 236 0 l 413 271 l 415 271 l 596 0 l 656 0 l 656 -181 l 771 -181 l 771 113 l 675 113 l 497 363 l 731 708 l 575 708 l 418 456 l 415 456 l 258 708 l 101 708 l 333 363 z "},"ҷ":{"ha":833,"x_min":0,"x_max":0,"o":"m 554 0 l 636 0 l 636 -181 l 751 -181 l 751 113 l 692 113 l 692 708 l 554 708 l 554 371 b 397 324 514 343 463 324 b 238 494 306 324 238 363 l 238 708 l 101 708 l 101 479 b 368 207 101 272 222 207 b 551 254 446 207 500 226 l 554 254 z "},"һ":{"ha":833,"x_min":0,"x_max":0,"o":"m 124 0 l 260 0 l 260 435 b 444 613 260 542 332 613 b 583 454 543 613 583 550 l 583 0 l 721 0 l 721 490 b 493 729 721 653 621 729 b 263 619 372 729 300 672 l 260 619 l 260 993 l 124 993 z "},"ә":{"ha":833,"x_min":0,"x_max":0,"o":"m 411 -21 b 725 354 607 -21 725 129 b 414 729 725 571 611 729 b 118 503 246 729 151 629 l 257 503 b 415 617 274 553 317 617 b 583 404 518 617 576 519 l 110 404 b 108 356 108 392 108 372 b 411 -21 108 132 215 -21 z m 250 297 l 585 297 b 414 90 582 174 511 90 b 250 297 314 90 250 179 z "},"ӣ":{"ha":833,"x_min":0,"x_max":0,"o":"m 126 0 l 261 0 l 571 519 l 571 0 l 707 0 l 707 708 l 572 708 l 263 190 l 263 708 l 126 708 z m 235 835 l 601 835 l 601 942 l 235 942 z "},"ө":{"ha":833,"x_min":0,"x_max":0,"o":"m 415 -21 b 731 356 611 -21 731 131 b 418 731 731 579 611 731 b 103 354 222 731 103 579 b 415 -21 103 129 222 -21 z m 247 301 l 586 301 b 417 92 575 178 518 92 b 247 301 317 92 260 176 z m 247 408 b 417 617 260 532 317 617 b 586 408 517 617 574 532 z "},"ӯ":{"ha":833,"x_min":0,"x_max":0,"o":"m 231 -249 b 483 -17 349 -249 414 -190 l 767 708 l 624 708 l 422 167 l 419 167 l 215 708 l 67 708 l 350 13 b 200 -132 311 -101 260 -132 b 140 -128 189 -132 167 -132 l 140 -239 b 231 -249 176 -246 203 -249 z m 231 835 l 597 835 l 597 942 l 231 942 z "},"Δ":{"ha":833,"x_min":0,"x_max":0,"o":"m 64 0 l 769 0 l 769 131 l 501 993 l 332 993 l 64 131 z m 211 131 l 414 851 l 419 851 l 619 131 z "},"Ω":{"ha":833,"x_min":0,"x_max":0,"o":"m 64 0 l 365 0 l 365 113 b 221 506 290 186 221 292 b 417 879 221 735 286 879 b 613 506 547 879 613 735 b 468 113 613 293 543 186 l 468 0 l 769 0 l 769 132 l 621 132 b 764 528 706 215 764 354 b 417 1013 764 803 635 1013 b 68 528 197 1013 68 801 b 213 132 68 351 128 214 l 64 132 z "},"μ":{"ha":833,"x_min":0,"x_max":0,"o":"m 560 0 l 696 0 l 696 708 l 560 708 l 560 274 b 378 96 560 167 486 96 b 236 256 274 96 236 161 l 236 708 l 99 708 l 99 -246 l 236 -246 l 236 19 b 357 -18 268 -6 308 -18 b 557 90 449 -18 515 28 l 560 90 z "},"π":{"ha":833,"x_min":0,"x_max":0,"o":"m 146 0 l 283 0 l 283 596 l 536 596 l 536 169 b 693 -11 536 29 586 -11 b 781 0 721 -11 756 -7 l 781 110 b 739 104 764 106 754 104 b 672 196 689 104 672 121 l 672 596 l 783 596 l 783 708 l 29 708 l 29 596 l 146 596 z "},"⓪":{"ha":833,"x_min":0,"x_max":0,"o":"m 417 -19 b 818 496 663 -19 818 179 b 417 1013 818 814 663 1013 b 15 496 171 1013 15 814 b 417 -19 15 179 171 -19 z m 117 496 b 417 915 117 754 232 915 b 717 496 601 915 717 754 b 417 78 717 239 601 78 b 117 496 232 78 117 239 z m 185 513 b 417 219 185 351 257 219 b 649 513 578 219 649 351 b 417 808 649 674 578 808 b 185 513 257 808 185 674 z m 308 513 b 417 708 308 628 336 708 b 525 513 500 708 525 629 b 417 318 525 397 500 318 b 308 513 335 318 308 397 z "},"①":{"ha":833,"x_min":0,"x_max":0,"o":"m 417 -19 b 818 496 663 -19 818 179 b 417 1013 818 814 663 1013 b 15 496 171 1013 15 814 b 417 -19 15 179 171 -19 z m 117 496 b 417 915 117 754 232 915 b 717 496 601 915 717 754 b 417 78 717 239 601 78 b 117 496 232 78 117 239 z m 210 231 l 629 231 l 629 335 l 496 335 l 496 794 l 389 794 b 210 671 383 708 347 672 l 210 572 b 369 610 282 572 328 576 l 369 335 l 210 335 z "},"②":{"ha":833,"x_min":0,"x_max":0,"o":"m 417 -19 b 818 496 663 -19 818 179 b 417 1013 818 814 663 1013 b 15 496 171 1013 15 814 b 417 -19 15 179 171 -19 z m 117 496 b 417 915 117 754 232 915 b 717 496 601 915 717 754 b 417 78 717 239 601 78 b 117 496 232 78 117 239 z m 193 231 l 636 231 l 636 335 l 368 335 l 368 336 b 479 422 396 364 429 389 b 638 635 553 474 638 539 b 431 808 638 749 553 808 b 206 590 279 808 206 713 l 325 590 b 426 708 325 668 361 708 b 514 629 485 708 514 674 b 350 453 514 564 451 524 b 193 231 244 378 199 331 z "},"③":{"ha":833,"x_min":0,"x_max":0,"o":"m 417 -19 b 818 496 663 -19 818 179 b 417 1013 818 814 663 1013 b 15 496 171 1013 15 814 b 417 -19 15 179 171 -19 z m 117 496 b 417 915 117 754 232 915 b 717 496 601 915 717 754 b 417 78 717 239 601 78 b 117 496 232 78 117 239 z m 199 429 b 419 219 199 296 288 219 b 631 392 542 219 631 281 b 526 529 631 457 600 507 l 526 531 b 613 651 579 556 613 597 b 425 810 613 763 522 810 b 217 624 322 810 217 754 l 335 624 b 415 711 335 686 376 711 b 489 638 454 711 489 690 b 406 567 489 588 451 567 l 379 567 l 379 479 l 408 479 b 506 397 461 479 506 458 b 418 318 506 349 472 318 b 318 429 353 318 318 360 z "},"④":{"ha":833,"x_min":0,"x_max":0,"o":"m 417 -19 b 818 496 663 -19 818 179 b 417 1013 818 814 663 1013 b 15 496 171 1013 15 814 b 417 -19 15 179 171 -19 z m 117 496 b 417 915 117 754 232 915 b 717 496 601 915 717 754 b 417 78 717 239 601 78 b 117 496 232 78 117 239 z m 167 349 l 446 349 l 446 231 l 574 231 l 574 349 l 667 349 l 667 453 l 574 453 l 574 794 l 446 794 l 167 471 z m 267 453 l 446 661 l 446 453 z "},"⑤":{"ha":833,"x_min":0,"x_max":0,"o":"m 417 -19 b 818 496 663 -19 818 179 b 417 1013 818 814 663 1013 b 15 496 171 1013 15 814 b 417 -19 15 179 171 -19 z m 117 496 b 417 915 117 754 232 915 b 717 496 601 915 717 754 b 417 78 717 239 601 78 b 117 496 232 78 117 239 z m 183 404 b 401 219 183 300 263 219 b 626 429 547 219 626 314 b 443 617 626 533 563 617 b 315 571 393 617 347 599 l 315 572 l 343 689 l 600 689 l 600 794 l 257 794 l 190 482 l 307 482 b 406 526 329 508 367 526 b 501 426 471 526 501 481 b 401 324 501 372 468 324 b 304 404 346 324 310 353 z "},"⑥":{"ha":833,"x_min":0,"x_max":0,"o":"m 417 -19 b 818 496 663 -19 818 179 b 417 1013 818 814 663 1013 b 15 496 171 1013 15 814 b 417 -19 15 179 171 -19 z m 117 496 b 417 915 117 754 232 915 b 717 496 601 915 717 754 b 417 78 717 239 601 78 b 117 496 232 78 117 239 z m 189 511 b 425 219 189 353 250 219 b 651 422 583 219 651 322 b 451 614 651 519 590 614 b 306 553 386 614 328 588 l 301 554 l 301 563 b 424 714 304 667 346 714 b 510 654 475 714 501 688 l 631 654 b 426 810 614 740 538 810 b 189 511 274 810 189 694 z m 317 415 b 426 517 317 478 364 517 b 529 418 493 517 529 471 b 424 315 529 363 492 315 b 317 415 358 315 317 354 z "},"⑦":{"ha":833,"x_min":0,"x_max":0,"o":"m 417 -19 b 818 496 663 -19 818 179 b 417 1013 818 814 663 1013 b 15 496 171 1013 15 814 b 417 -19 15 179 171 -19 z m 117 496 b 417 915 117 754 232 915 b 717 496 601 915 717 754 b 417 78 717 239 601 78 b 117 496 232 78 117 239 z m 228 692 l 476 692 l 476 690 b 292 231 351 608 292 419 l 429 231 b 608 700 429 408 453 596 l 608 794 l 228 794 z "},"⑧":{"ha":833,"x_min":0,"x_max":0,"o":"m 417 -19 b 818 496 663 -19 818 179 b 417 1013 818 814 663 1013 b 15 496 171 1013 15 814 b 417 -19 15 179 171 -19 z m 117 496 b 417 915 117 754 232 915 b 717 496 601 915 717 754 b 417 78 717 239 601 78 b 117 496 232 78 117 239 z m 185 392 b 417 218 185 278 294 218 b 649 392 542 218 649 278 b 538 533 649 457 603 504 l 538 535 b 621 656 588 558 621 594 b 417 810 621 754 529 810 b 213 656 307 810 213 754 b 296 535 213 601 247 563 l 296 533 b 185 392 235 510 185 468 z m 308 401 b 417 490 308 453 351 490 b 525 401 483 490 525 453 b 417 313 525 350 483 313 b 308 401 351 313 308 349 z m 324 646 b 417 724 324 692 358 724 b 510 646 475 724 510 692 b 417 569 510 600 476 569 b 324 646 358 569 324 600 z "},"⑨":{"ha":833,"x_min":0,"x_max":0,"o":"m 417 -19 b 818 496 663 -19 818 179 b 417 1013 818 814 663 1013 b 15 496 171 1013 15 814 b 417 -19 15 179 171 -19 z m 117 496 b 417 915 117 754 232 915 b 717 496 601 915 717 754 b 417 78 717 239 601 78 b 117 496 232 78 117 239 z m 185 604 b 385 413 185 507 246 413 b 532 474 450 413 508 439 l 535 472 l 535 464 b 414 313 533 360 490 313 b 326 372 361 313 335 339 l 206 372 b 411 217 222 286 299 217 b 649 515 564 217 649 332 b 411 807 649 674 588 807 b 185 604 253 807 185 704 z m 307 608 b 414 711 307 664 344 711 b 521 611 479 711 521 672 b 410 510 521 549 472 510 b 307 608 344 510 307 556 z "},"⁄":{"ha":833,"x_min":0,"x_max":0,"o":"m 93 0 l 226 0 l 740 993 l 607 993 z "},"½":{"ha":833,"x_min":0,"x_max":0,"o":"m 156 849 l 156 661 l 25 661 l 25 576 l 364 576 l 364 661 l 260 661 l 260 993 l 171 993 b 25 899 165 928 122 900 l 25 818 b 156 849 93 818 124 825 z m 93 0 l 226 0 l 740 993 l 607 993 z m 446 0 l 800 0 l 800 85 l 593 85 l 593 86 b 676 142 613 104 625 111 b 800 297 742 179 800 225 b 633 428 800 379 740 428 b 450 263 508 428 450 361 l 549 263 b 629 349 549 319 578 349 b 696 293 671 349 696 328 b 567 168 696 240 643 217 b 446 0 479 115 450 83 z "},"¼":{"ha":833,"x_min":0,"x_max":0,"o":"m 164 849 l 164 661 l 33 661 l 33 576 l 372 576 l 372 661 l 268 661 l 268 993 l 179 993 b 33 899 174 928 131 900 l 33 818 b 164 849 101 818 132 825 z m 104 0 l 238 0 l 751 993 l 618 993 z m 386 88 l 608 88 l 608 0 l 713 0 l 713 88 l 796 88 l 796 172 l 713 172 l 713 417 l 608 417 l 386 188 z m 475 172 l 608 317 l 608 172 z "},"¾":{"ha":833,"x_min":0,"x_max":0,"o":"m 608 0 l 713 0 l 713 88 l 796 88 l 796 172 l 713 172 l 713 417 l 608 417 l 386 188 l 386 88 l 608 88 z m 15 728 b 207 568 15 624 89 568 b 385 697 310 568 385 614 b 297 797 385 746 357 783 l 297 799 b 369 889 340 817 369 846 b 206 1006 369 965 288 1006 b 31 865 103 1006 31 951 l 136 865 b 204 921 136 903 163 921 b 260 876 229 921 260 906 b 194 829 260 846 232 829 l 176 829 l 176 754 l 196 754 b 272 703 240 754 272 739 b 204 651 272 671 246 651 b 122 728 151 651 122 678 z m 107 0 l 240 0 l 754 993 l 621 993 z m 475 172 l 608 317 l 608 172 z "},"⅛":{"ha":833,"x_min":0,"x_max":0,"o":"m 90 0 l 224 0 l 738 993 l 604 993 z m 11 576 l 350 576 l 350 661 l 246 661 l 246 993 l 157 993 b 11 899 151 928 108 900 l 11 818 b 142 849 79 818 110 825 l 142 661 l 11 661 z m 431 122 b 617 -10 431 50 496 -10 b 804 119 736 -10 804 50 b 710 224 804 167 775 206 l 710 225 b 785 317 763 243 785 282 b 617 428 785 375 726 428 b 449 315 508 428 449 376 b 522 225 449 281 471 243 l 522 224 b 431 122 460 206 431 169 z m 539 131 b 617 190 539 161 563 190 b 694 131 669 190 694 161 b 615 71 694 101 669 71 b 539 131 563 71 539 101 z m 550 304 b 615 354 550 329 571 354 b 682 304 661 354 682 329 b 615 253 682 278 661 253 b 550 304 571 253 550 278 z "},"⅜":{"ha":833,"x_min":0,"x_max":0,"o":"m 617 -10 b 804 119 736 -10 804 50 b 710 224 804 167 775 206 l 710 225 b 785 317 763 243 785 282 b 617 428 785 375 726 428 b 449 315 508 428 449 376 b 522 225 449 281 471 243 l 522 224 b 431 122 460 206 431 169 b 617 -10 431 50 496 -10 z m 8 728 b 200 568 8 624 82 568 b 378 697 303 568 378 614 b 290 797 378 746 350 783 l 290 799 b 363 889 333 817 363 846 b 199 1006 363 965 281 1006 b 24 865 96 1006 24 951 l 129 865 b 197 921 129 903 156 921 b 253 876 222 921 253 906 b 188 829 253 846 225 829 l 169 829 l 169 754 l 189 754 b 265 703 233 754 265 739 b 197 651 265 671 239 651 b 115 728 144 651 115 678 z m 90 0 l 224 0 l 738 993 l 604 993 z m 539 131 b 617 190 539 161 563 190 b 694 131 669 190 694 161 b 615 71 694 101 669 71 b 539 131 563 71 539 101 z m 550 304 b 615 354 550 329 571 354 b 682 304 661 354 682 329 b 615 253 682 278 661 253 b 550 304 571 253 550 278 z "},"⅝":{"ha":833,"x_min":0,"x_max":0,"o":"m 79 0 l 213 0 l 726 993 l 593 993 z m 7 707 b 190 567 10 615 89 567 b 372 724 283 567 372 617 b 228 863 372 814 304 863 b 126 833 194 863 160 854 l 125 833 l 144 907 l 350 907 l 350 993 l 68 993 l 15 758 l 119 758 b 192 786 142 778 167 786 b 261 722 231 786 261 764 b 190 656 261 679 228 656 b 121 707 158 656 126 674 z m 431 122 b 617 -10 431 50 496 -10 b 804 119 736 -10 804 50 b 710 224 804 167 775 206 l 710 225 b 785 317 763 243 785 282 b 617 428 785 375 726 428 b 449 315 508 428 449 376 b 522 225 449 281 471 243 l 522 224 b 431 122 460 206 431 169 z m 539 131 b 617 190 539 161 563 190 b 694 131 669 190 694 161 b 615 71 694 101 669 71 b 539 131 563 71 539 101 z m 550 304 b 615 354 550 329 571 354 b 682 304 661 354 682 329 b 615 253 682 278 661 253 b 550 304 571 253 550 278 z "},"⅞":{"ha":833,"x_min":0,"x_max":0,"o":"m 65 0 l 199 0 l 713 993 l 579 993 z m 58 904 l 271 904 l 271 903 b 118 576 164 842 118 711 l 235 576 b 392 911 235 710 263 836 l 392 993 l 58 993 z m 431 122 b 617 -10 431 50 496 -10 b 804 119 736 -10 804 50 b 710 224 804 167 775 206 l 710 225 b 785 317 763 243 785 282 b 617 428 785 375 726 428 b 449 315 508 428 449 376 b 522 225 449 281 471 243 l 522 224 b 431 122 460 206 431 169 z m 539 131 b 617 190 539 161 563 190 b 694 131 669 190 694 161 b 615 71 694 101 669 71 b 539 131 563 71 539 101 z m 550 304 b 615 354 550 329 571 354 b 682 304 661 354 682 329 b 615 253 682 278 661 253 b 550 304 571 253 550 278 z "},"₀":{"ha":833,"x_min":0,"x_max":0,"o":"m 417 -150 b 649 143 578 -150 649 -18 b 417 439 649 304 578 439 b 185 143 257 439 185 304 b 417 -150 185 -18 257 -150 z m 308 143 b 417 339 308 258 336 339 b 525 143 500 339 525 260 b 417 -51 525 28 500 -51 b 308 143 335 -51 308 28 z "},"₁":{"ha":833,"x_min":0,"x_max":0,"o":"m 369 240 l 369 -35 l 210 -35 l 210 -139 l 629 -139 l 629 -35 l 496 -35 l 496 425 l 389 425 b 210 301 383 339 347 303 l 210 203 b 369 240 282 203 328 207 z "},"₂":{"ha":833,"x_min":0,"x_max":0,"o":"m 193 -139 l 636 -139 l 636 -35 l 368 -35 l 368 -33 b 479 53 396 -6 429 19 b 638 265 553 104 638 169 b 431 439 638 379 553 439 b 206 221 279 439 206 343 l 325 221 b 426 339 325 299 361 339 b 514 260 485 339 514 304 b 350 83 514 194 451 154 b 193 -139 244 8 199 -39 z "},"₃":{"ha":833,"x_min":0,"x_max":0,"o":"m 419 -150 b 631 22 542 -150 631 -89 b 526 160 631 88 600 138 l 526 161 b 613 282 579 186 613 228 b 425 440 613 393 522 440 b 217 254 322 440 217 385 l 335 254 b 415 342 335 317 376 342 b 489 268 454 342 489 321 b 406 197 489 218 451 197 l 379 197 l 379 110 l 408 110 b 506 28 461 110 506 89 b 418 -51 506 -21 472 -51 b 318 60 353 -51 318 -10 l 199 60 b 419 -150 199 -74 288 -150 z "},"₄":{"ha":833,"x_min":0,"x_max":0,"o":"m 446 -139 l 574 -139 l 574 -21 l 667 -21 l 667 83 l 574 83 l 574 425 l 446 425 l 167 101 l 167 -21 l 446 -21 z m 267 83 l 446 292 l 446 83 z "},"₅":{"ha":833,"x_min":0,"x_max":0,"o":"m 401 -150 b 626 60 547 -150 626 -56 b 443 247 626 164 563 247 b 315 201 393 247 347 229 l 315 203 l 343 319 l 600 319 l 600 425 l 257 425 l 190 113 l 307 113 b 406 157 329 139 367 157 b 501 57 471 157 501 111 b 401 -46 501 3 468 -46 b 304 35 346 -46 310 -17 l 183 35 b 401 -150 183 -69 263 -150 z "},"₆":{"ha":833,"x_min":0,"x_max":0,"o":"m 425 -150 b 651 53 583 -150 651 -47 b 451 244 651 150 590 244 b 306 183 386 244 328 218 l 301 185 l 301 193 b 424 344 304 297 346 344 b 510 285 475 344 501 318 l 631 285 b 426 440 614 371 538 440 b 189 142 274 440 189 325 b 425 -150 189 -17 250 -150 z m 317 46 b 426 147 317 108 364 147 b 529 49 493 147 529 101 b 424 -54 529 -7 492 -54 b 317 46 358 -54 317 -15 z "},"₇":{"ha":833,"x_min":0,"x_max":0,"o":"m 292 -139 l 429 -139 b 608 331 429 39 453 226 l 608 425 l 228 425 l 228 322 l 476 322 l 476 321 b 292 -139 351 239 292 50 z "},"₈":{"ha":833,"x_min":0,"x_max":0,"o":"m 417 -151 b 649 22 542 -151 649 -92 b 538 164 649 88 603 135 l 538 165 b 621 286 588 189 621 225 b 417 440 621 385 529 440 b 213 286 307 440 213 385 b 296 165 213 232 247 193 l 296 164 b 185 22 235 140 185 99 b 417 -151 185 -92 294 -151 z m 308 32 b 417 121 308 83 351 121 b 525 32 483 121 525 83 b 417 -57 525 -19 483 -57 b 308 32 351 -57 308 -21 z m 324 276 b 417 354 324 322 358 354 b 510 276 475 354 510 322 b 417 200 510 231 476 200 b 324 276 358 200 324 231 z "},"₉":{"ha":833,"x_min":0,"x_max":0,"o":"m 411 438 b 185 235 253 438 185 335 b 385 43 185 138 246 43 b 532 104 450 43 508 69 l 535 103 l 535 94 b 414 -57 533 -10 490 -57 b 326 3 361 -57 335 -31 l 206 3 b 411 -153 222 -83 299 -153 b 649 146 564 -153 649 -37 b 411 438 649 304 588 438 z m 307 239 b 414 342 307 294 344 342 b 521 242 479 342 521 303 b 410 140 521 179 472 140 b 307 239 344 140 307 186 z "},"⁰":{"ha":833,"x_min":0,"x_max":0,"o":"m 417 494 b 649 788 578 494 649 626 b 417 1083 649 949 578 1083 b 185 788 257 1083 185 949 b 417 494 185 626 257 494 z m 308 788 b 417 983 308 903 336 983 b 525 788 500 983 525 904 b 417 593 525 672 500 593 b 308 788 335 593 308 672 z "},"¹":{"ha":833,"x_min":0,"x_max":0,"o":"m 369 885 l 369 610 l 210 610 l 210 506 l 629 506 l 629 610 l 496 610 l 496 1069 l 389 1069 b 210 946 383 983 347 947 l 210 847 b 369 885 282 847 328 851 z "},"²":{"ha":833,"x_min":0,"x_max":0,"o":"m 193 506 l 636 506 l 636 610 l 368 610 l 368 611 b 479 697 396 639 429 664 b 638 910 553 749 638 814 b 431 1083 638 1024 553 1083 b 206 865 279 1083 206 988 l 325 865 b 426 983 325 943 361 983 b 514 904 485 983 514 949 b 350 728 514 839 451 799 b 193 506 244 653 199 606 z "},"³":{"ha":833,"x_min":0,"x_max":0,"o":"m 419 494 b 631 667 542 494 631 556 b 526 804 631 732 600 782 l 526 806 b 613 926 579 831 613 872 b 425 1085 613 1038 522 1085 b 217 899 322 1085 217 1029 l 335 899 b 415 986 335 961 376 986 b 489 913 454 986 489 965 b 406 842 489 863 451 842 l 379 842 l 379 754 l 408 754 b 506 672 461 754 506 733 b 418 593 506 624 472 593 b 318 704 353 593 318 635 l 199 704 b 419 494 199 571 288 494 z "},"⁴":{"ha":833,"x_min":0,"x_max":0,"o":"m 446 506 l 574 506 l 574 624 l 667 624 l 667 728 l 574 728 l 574 1069 l 446 1069 l 167 746 l 167 624 l 446 624 z m 267 728 l 446 936 l 446 728 z "},"⁵":{"ha":833,"x_min":0,"x_max":0,"o":"m 401 494 b 626 704 547 494 626 589 b 443 892 626 808 563 892 b 315 846 393 892 347 874 l 315 847 l 343 964 l 600 964 l 600 1069 l 257 1069 l 190 757 l 307 757 b 406 801 329 783 367 801 b 501 701 471 801 501 756 b 401 599 501 647 468 599 b 304 679 346 599 310 628 l 183 679 b 401 494 183 575 263 494 z "},"⁶":{"ha":833,"x_min":0,"x_max":0,"o":"m 425 494 b 651 697 583 494 651 597 b 451 889 651 794 590 889 b 306 828 386 889 328 863 l 301 829 l 301 838 b 424 989 304 942 346 989 b 510 929 475 989 501 963 l 631 929 b 426 1085 614 1015 538 1085 b 189 786 274 1085 189 969 b 425 494 189 628 250 494 z m 317 690 b 426 792 317 753 364 792 b 529 693 493 792 529 746 b 424 590 529 638 492 590 b 317 690 358 590 317 629 z "},"⁷":{"ha":833,"x_min":0,"x_max":0,"o":"m 292 506 l 429 506 b 608 975 429 683 453 871 l 608 1069 l 228 1069 l 228 967 l 476 967 l 476 965 b 292 506 351 883 292 694 z "},"⁸":{"ha":833,"x_min":0,"x_max":0,"o":"m 417 493 b 649 667 542 493 649 553 b 538 808 649 732 603 779 l 538 810 b 621 931 588 833 621 869 b 417 1085 621 1029 529 1085 b 213 931 307 1085 213 1029 b 296 810 213 876 247 838 l 296 808 b 185 667 235 785 185 743 b 417 493 185 553 294 493 z m 308 676 b 417 765 308 728 351 765 b 525 676 483 765 525 728 b 417 588 525 625 483 588 b 308 676 351 588 308 624 z m 324 921 b 417 999 324 967 358 999 b 510 921 475 999 510 967 b 417 844 510 875 476 844 b 324 921 358 844 324 875 z "},"⁹":{"ha":833,"x_min":0,"x_max":0,"o":"m 411 1082 b 185 879 253 1082 185 979 b 385 688 185 782 246 688 b 532 749 450 688 508 714 l 535 747 l 535 739 b 414 588 533 635 490 588 b 326 647 361 588 335 614 l 206 647 b 411 492 222 561 299 492 b 649 790 564 492 649 607 b 411 1082 649 949 588 1082 z m 307 883 b 414 986 307 939 344 986 b 521 886 479 986 521 947 b 410 785 521 824 472 785 b 307 883 344 785 307 831 z "}," ":{"ha":833,"x_min":0,"x_max":0,"o":""}," ":{"ha":1667,"x_min":0,"x_max":0,"o":""}," ":{"ha":833,"x_min":0,"x_max":0,"o":""}," ":{"ha":1667,"x_min":0,"x_max":0,"o":""}," ":{"ha":833,"x_min":0,"x_max":0,"o":""},"​":{"ha":0,"x_min":0,"x_max":0,"o":""},"﻿":{"ha":0,"x_min":0,"x_max":0,"o":""},".":{"ha":833,"x_min":0,"x_max":0,"o":"m 331 0 l 503 0 l 503 171 l 331 171 z "},",":{"ha":833,"x_min":0,"x_max":0,"o":"m 347 -226 l 494 171 l 318 171 l 239 -226 z "},":":{"ha":833,"x_min":0,"x_max":0,"o":"m 332 538 l 504 538 l 504 708 l 332 708 z m 332 0 l 504 0 l 504 171 l 332 171 z "},";":{"ha":833,"x_min":0,"x_max":0,"o":"m 332 538 l 504 538 l 504 708 l 332 708 z m 240 -226 l 349 -226 l 496 171 l 319 171 z "},"…":{"ha":833,"x_min":0,"x_max":0,"o":"m 56 0 l 224 0 l 224 168 l 56 168 z m 332 0 l 501 0 l 501 168 l 332 168 z m 610 0 l 778 0 l 778 168 l 610 168 z "},"!":{"ha":833,"x_min":0,"x_max":0,"o":"m 331 0 l 503 0 l 503 171 l 331 171 z m 342 667 l 386 336 l 447 336 l 492 667 l 492 993 l 342 993 z "},"¡":{"ha":833,"x_min":0,"x_max":0,"o":"m 331 538 l 503 538 l 503 708 l 331 708 z m 342 -285 l 492 -285 l 492 43 l 447 372 l 386 372 l 342 43 z "},"?":{"ha":833,"x_min":0,"x_max":0,"o":"m 331 0 l 503 0 l 503 171 l 331 171 z m 119 671 l 269 671 b 468 886 269 828 350 886 b 625 751 575 886 625 833 b 482 576 625 676 574 642 b 349 336 363 492 349 449 l 482 336 b 601 513 483 410 511 454 b 776 750 692 572 776 636 b 467 1013 776 908 653 1013 b 119 671 239 1013 119 865 z "},"¿":{"ha":833,"x_min":0,"x_max":0,"o":"m 331 538 l 503 538 l 503 708 l 331 708 z m 57 -42 b 367 -304 57 -199 181 -304 b 714 39 594 -304 714 -157 l 564 39 b 365 -178 564 -118 483 -178 b 208 -42 258 -178 208 -124 b 351 132 208 32 260 68 b 485 372 471 217 485 261 l 351 372 b 232 196 350 299 322 256 b 57 -42 142 138 57 72 z "},"·":{"ha":833,"x_min":0,"x_max":0,"o":"m 338 272 l 510 272 l 510 443 l 338 443 z "},"•":{"ha":833,"x_min":0,"x_max":0,"o":"m 264 263 l 569 263 l 569 568 l 264 568 z "},"*":{"ha":833,"x_min":0,"x_max":0,"o":"m 303 521 l 415 674 l 529 521 l 610 578 l 496 724 l 674 776 l 642 864 l 467 810 l 467 993 l 365 993 l 365 810 l 190 864 l 158 776 l 335 724 l 221 578 z "},"‖":{"ha":833,"x_min":0,"x_max":0,"o":"m 493 -211 l 603 -211 l 603 972 l 493 972 z m 231 -211 l 340 -211 l 340 972 l 231 972 z "},"#":{"ha":833,"x_min":0,"x_max":0,"o":"m 393 0 l 507 0 l 561 269 l 713 269 l 732 382 l 583 382 l 625 586 l 760 586 l 782 700 l 647 700 l 700 960 l 586 960 l 533 700 l 376 700 l 429 960 l 317 960 l 264 700 l 121 700 l 100 586 l 242 586 l 200 382 l 72 382 l 51 269 l 178 269 l 124 0 l 236 0 l 290 269 l 447 269 z m 313 382 l 354 586 l 511 586 l 469 382 z "},"/":{"ha":833,"x_min":0,"x_max":0,"o":"m 161 0 l 288 0 l 672 993 l 546 993 z "},"\\":{"ha":833,"x_min":0,"x_max":0,"o":"m 546 0 l 672 0 l 288 993 l 161 993 z "},"-":{"ha":833,"x_min":0,"x_max":0,"o":"m 188 317 l 646 317 l 646 447 l 188 447 z "},"­":{"ha":833,"x_min":0,"x_max":0,"o":"m 188 317 l 646 317 l 646 447 l 188 447 z "},"–":{"ha":833,"x_min":0,"x_max":0,"o":"m 125 317 l 708 317 l 708 447 l 125 447 z "},"—":{"ha":833,"x_min":0,"x_max":0,"o":"m 28 318 l 806 318 l 806 447 l 28 447 z "},"_":{"ha":833,"x_min":0,"x_max":0,"o":"m 42 -211 l 792 -211 l 792 -82 l 42 -82 z "},"(":{"ha":833,"x_min":0,"x_max":0,"o":"m 461 -169 l 581 -169 b 326 440 396 21 326 221 b 581 1053 326 665 396 864 l 461 1053 b 176 443 292 913 176 688 b 461 -169 176 199 292 -29 z "},")":{"ha":833,"x_min":0,"x_max":0,"o":"m 253 -169 l 372 -169 b 657 443 542 -29 657 199 b 372 1053 657 688 542 913 l 253 1053 b 507 440 438 864 507 665 b 253 -169 507 221 438 21 z "},"{":{"ha":833,"x_min":0,"x_max":0,"o":"m 118 507 l 118 378 b 379 268 314 379 379 357 b 338 0 379 197 338 97 b 619 -169 338 -119 404 -169 l 739 -169 l 739 -40 l 628 -40 b 488 38 522 -40 488 -25 b 531 285 488 108 531 211 b 297 440 531 381 457 431 l 297 443 b 531 600 457 453 531 503 b 488 847 531 672 488 776 b 628 924 488 910 522 924 l 739 924 l 739 1053 l 619 1053 b 338 885 404 1053 338 1003 b 379 615 338 786 379 688 b 118 507 379 528 314 506 z "},"}":{"ha":833,"x_min":0,"x_max":0,"o":"m 94 -169 l 214 -169 b 496 0 429 -169 496 -119 b 454 269 496 99 454 197 b 717 378 454 357 519 379 l 717 507 b 454 615 519 506 454 528 b 496 885 454 688 496 788 b 214 1054 496 1004 429 1054 l 94 1054 l 94 925 l 206 925 b 346 847 313 925 346 910 b 304 600 346 776 304 674 b 536 444 304 503 378 453 l 536 442 b 304 285 378 432 304 382 b 346 38 304 211 346 108 b 206 -40 346 -25 313 -40 l 94 -40 z "},"[":{"ha":833,"x_min":0,"x_max":0,"o":"m 264 -169 l 725 -169 l 725 -40 l 415 -40 l 415 924 l 725 924 l 725 1053 l 264 1053 z "},"]":{"ha":833,"x_min":0,"x_max":0,"o":"m 108 -169 l 569 -169 l 569 1053 l 108 1053 l 108 924 l 418 924 l 418 -40 l 108 -40 z "},"‚":{"ha":833,"x_min":0,"x_max":0,"o":"m 347 -226 l 494 171 l 318 171 l 239 -226 z "},"„":{"ha":833,"x_min":0,"x_max":0,"o":"m 546 -226 l 693 171 l 517 171 l 438 -226 z m 139 -226 l 247 -226 l 394 171 l 218 171 z "},"“":{"ha":833,"x_min":0,"x_max":0,"o":"m 288 1032 l 140 635 l 317 635 l 396 1032 z m 438 635 l 614 635 l 693 1032 l 585 1032 z "},"”":{"ha":833,"x_min":0,"x_max":0,"o":"m 546 635 l 693 1032 l 517 1032 l 438 635 z m 139 635 l 247 635 l 394 1032 l 218 1032 z "},"‘":{"ha":833,"x_min":0,"x_max":0,"o":"m 410 1032 l 263 635 l 439 635 l 518 1032 z "},"’":{"ha":833,"x_min":0,"x_max":0,"o":"m 346 635 l 493 1032 l 317 1032 l 238 635 z "},"«":{"ha":833,"x_min":0,"x_max":0,"o":"m 694 69 l 694 208 l 500 367 l 500 369 l 694 528 l 694 667 l 417 440 l 417 296 z m 83 296 l 361 69 l 361 208 l 167 367 l 167 369 l 361 528 l 361 667 l 83 440 z "},"»":{"ha":833,"x_min":0,"x_max":0,"o":"m 139 69 l 417 296 l 417 440 l 139 667 l 139 528 l 333 369 l 333 367 l 139 208 z m 472 69 l 750 296 l 750 440 l 472 667 l 472 528 l 667 369 l 667 367 l 472 208 z "},"‹":{"ha":833,"x_min":0,"x_max":0,"o":"m 500 69 l 500 208 l 306 367 l 306 369 l 500 528 l 500 667 l 222 440 l 222 296 z "},"›":{"ha":833,"x_min":0,"x_max":0,"o":"m 333 69 l 611 296 l 611 440 l 333 667 l 333 528 l 528 369 l 528 367 l 333 208 z "},"\"":{"ha":833,"x_min":0,"x_max":0,"o":"m 475 697 l 586 697 l 596 1032 l 465 1032 z m 238 1032 l 247 697 l 358 697 l 368 1032 z "},"'":{"ha":833,"x_min":0,"x_max":0,"o":"m 361 697 l 472 697 l 482 1032 l 351 1032 z "},"ƒ":{"ha":833,"x_min":0,"x_max":0,"o":"m 161 -154 b 396 54 283 -154 357 -108 l 510 526 l 694 526 l 699 639 l 536 639 l 571 782 b 699 889 589 860 613 889 b 763 885 719 889 733 888 l 788 994 b 692 1003 747 1000 718 1003 b 438 794 565 1003 478 964 l 400 639 l 249 639 l 244 526 l 374 526 l 261 58 b 138 -40 244 -12 225 -40 b 63 -35 118 -40 94 -39 l 69 -144 b 161 -154 108 -151 133 -154 z "},"☐":{"ha":833,"x_min":0,"x_max":0,"o":"m 63 0 l 771 0 l 771 708 l 63 708 z m 181 107 l 181 601 l 653 601 l 653 107 z "},"☑":{"ha":833,"x_min":0,"x_max":0,"o":"m 318 132 l 429 132 l 621 576 l 521 576 l 375 215 l 372 215 l 321 336 l 213 336 z m 63 0 l 771 0 l 771 708 l 63 708 z m 181 107 l 181 601 l 653 601 l 653 107 z "},"☒":{"ha":833,"x_min":0,"x_max":0,"o":"m 203 132 l 313 132 l 414 290 l 415 290 l 521 132 l 631 132 l 479 360 l 615 576 l 507 576 l 418 429 l 415 429 l 326 576 l 217 576 l 353 360 z m 63 0 l 771 0 l 771 708 l 63 708 z m 181 107 l 181 601 l 653 601 l 653 107 z "},"☰":{"ha":833,"x_min":0,"x_max":0,"o":"m 139 522 l 694 522 l 694 646 l 139 646 z m 139 118 l 694 118 l 694 242 l 139 242 z m 139 321 l 694 321 l 694 443 l 139 443 z "},"☱":{"ha":833,"x_min":0,"x_max":0,"o":"m 139 522 l 376 522 l 376 646 l 139 646 z m 139 118 l 694 118 l 694 242 l 139 242 z m 139 321 l 694 321 l 694 443 l 139 443 z m 457 522 l 694 522 l 694 646 l 457 646 z "},"☲":{"ha":833,"x_min":0,"x_max":0,"o":"m 139 321 l 376 321 l 376 443 l 139 443 z m 139 118 l 694 118 l 694 242 l 139 242 z m 139 522 l 694 522 l 694 646 l 139 646 z m 457 321 l 694 321 l 694 443 l 457 443 z "},"☳":{"ha":833,"x_min":0,"x_max":0,"o":"m 139 321 l 376 321 l 376 443 l 139 443 z m 139 118 l 694 118 l 694 242 l 139 242 z m 139 522 l 376 522 l 376 646 l 139 646 z m 457 321 l 694 321 l 694 443 l 457 443 z m 457 522 l 694 522 l 694 646 l 457 646 z "},"☴":{"ha":833,"x_min":0,"x_max":0,"o":"m 139 517 l 694 517 l 694 640 l 139 640 z m 139 118 l 376 118 l 376 242 l 139 242 z m 139 321 l 694 321 l 694 443 l 139 443 z m 457 118 l 694 118 l 694 242 l 457 242 z "},"☵":{"ha":833,"x_min":0,"x_max":0,"o":"m 139 321 l 694 321 l 694 443 l 139 443 z m 139 118 l 376 118 l 376 242 l 139 242 z m 139 522 l 376 522 l 376 646 l 139 646 z m 457 118 l 694 118 l 694 242 l 457 242 z m 457 522 l 694 522 l 694 646 l 457 646 z "},"☶":{"ha":833,"x_min":0,"x_max":0,"o":"m 139 118 l 376 118 l 376 242 l 139 242 z m 139 321 l 376 321 l 376 443 l 139 443 z m 139 522 l 694 522 l 694 646 l 139 646 z m 457 118 l 694 118 l 694 242 l 457 242 z m 457 321 l 694 321 l 694 443 l 457 443 z "},"☷":{"ha":833,"x_min":0,"x_max":0,"o":"m 139 321 l 376 321 l 376 443 l 139 443 z m 139 118 l 376 118 l 376 242 l 139 242 z m 139 522 l 376 522 l 376 646 l 139 646 z m 457 118 l 694 118 l 694 242 l 457 242 z m 457 321 l 694 321 l 694 443 l 457 443 z m 457 522 l 694 522 l 694 646 l 457 646 z "},"☹":{"ha":833,"x_min":0,"x_max":0,"o":"m 418 -17 b 711 351 606 -17 711 133 b 417 719 711 569 606 719 b 122 351 231 719 122 569 b 418 -17 122 133 231 -17 z m 224 351 b 417 624 224 524 285 624 b 610 351 550 624 610 522 b 417 79 610 181 550 79 b 224 351 285 79 224 179 z m 286 379 b 328 282 286 300 304 282 b 369 379 351 282 369 300 b 328 476 369 458 351 476 b 286 379 304 476 286 458 z m 313 183 l 372 183 b 417 219 372 204 390 219 b 461 183 443 219 461 204 l 521 183 b 417 275 521 235 475 275 b 313 183 358 275 313 235 z m 464 379 b 506 282 464 300 482 282 b 547 379 529 282 547 300 b 506 476 547 458 529 476 b 464 379 482 476 464 458 z "},"☺":{"ha":833,"x_min":0,"x_max":0,"o":"m 418 -17 b 711 351 606 -17 711 133 b 417 719 711 569 606 719 b 122 351 231 719 122 569 b 418 -17 122 133 231 -17 z m 224 351 b 417 624 224 524 285 624 b 610 351 550 624 610 522 b 417 79 610 181 550 79 b 224 351 285 79 224 179 z m 286 379 b 328 282 286 300 304 282 b 369 379 351 282 369 300 b 328 476 369 458 351 476 b 286 379 304 476 286 458 z m 313 253 b 417 161 313 201 358 161 b 521 253 475 161 521 201 l 461 253 b 417 217 461 232 443 217 b 372 253 390 217 372 232 z m 464 379 b 506 282 464 300 482 282 b 547 379 529 282 547 300 b 506 476 547 458 529 476 b 464 379 482 476 464 458 z "},"☻":{"ha":833,"x_min":0,"x_max":0,"o":"m 418 -17 b 711 351 606 -17 711 133 b 417 719 711 569 606 719 b 122 351 231 719 122 569 b 418 -17 122 133 231 -17 z m 286 379 b 328 476 286 458 304 476 b 369 379 351 476 369 458 b 328 282 369 300 351 282 b 286 379 304 282 286 300 z m 313 253 l 372 253 b 417 217 372 232 390 217 b 461 253 443 217 461 232 l 521 253 b 417 161 521 201 475 161 b 313 253 358 161 313 201 z m 464 379 b 506 476 464 458 482 476 b 547 379 529 476 547 458 b 506 282 547 300 529 282 b 464 379 482 282 464 300 z "},"@":{"ha":833,"x_min":0,"x_max":0,"o":"m 114 831 l 122 722 b 311 743 192 736 256 743 b 676 306 558 743 676 606 b 588 89 676 156 647 89 b 522 183 547 89 522 118 b 525 224 522 199 524 213 l 568 564 l 453 564 l 439 464 l 436 464 b 271 578 414 526 353 578 b 38 261 143 578 38 454 b 257 -22 38 81 129 -22 b 436 93 335 -22 396 17 b 588 -21 449 28 503 -21 b 796 329 690 -21 796 63 b 319 854 796 674 618 854 b 114 831 254 854 188 846 z m 160 261 b 293 468 160 379 207 468 b 407 299 360 468 407 417 b 272 88 407 176 357 88 b 160 261 199 88 160 154 z "},"&":{"ha":833,"x_min":0,"x_max":0,"o":"m 489 769 l 619 769 b 376 1013 619 907 531 1013 b 132 778 214 1013 132 897 b 239 532 132 700 167 633 b 24 242 119 461 24 382 b 307 -21 24 88 138 -21 b 569 89 413 -21 501 21 l 636 0 l 790 0 l 649 188 b 753 486 703 275 738 379 l 626 486 b 569 294 615 417 596 350 l 424 489 b 263 776 311 638 263 708 b 375 893 263 839 304 893 b 489 769 447 893 489 839 z m 161 258 b 300 450 161 339 217 396 b 328 413 308 438 318 425 l 499 185 b 322 107 451 136 393 107 b 161 258 225 107 161 171 z "},"¶":{"ha":833,"x_min":0,"x_max":0,"o":"m 414 0 l 521 0 l 521 879 l 633 879 l 633 0 l 740 0 l 740 993 l 347 993 b 57 725 158 993 57 892 b 347 465 57 558 158 465 l 414 465 z "},"§":{"ha":833,"x_min":0,"x_max":0,"o":"m 421 -258 b 665 -35 585 -258 665 -158 b 611 119 665 32 643 81 b 739 304 690 146 739 208 b 510 578 739 446 636 503 l 444 618 b 303 790 346 676 303 707 b 414 893 303 850 332 893 b 535 761 515 893 529 828 l 668 761 b 413 1003 661 892 588 1003 b 169 778 249 1003 169 904 b 225 625 169 713 190 664 b 96 442 143 599 96 533 b 328 167 96 318 171 271 l 393 124 b 532 -47 485 63 532 29 b 422 -149 532 -106 503 -149 b 300 -15 326 -149 300 -86 l 167 -15 b 421 -258 172 -146 246 -258 z m 229 457 b 313 551 229 504 254 544 b 361 521 328 542 344 531 l 435 475 b 606 285 538 411 606 358 b 525 193 606 242 582 201 b 478 224 510 204 493 214 l 403 269 b 229 457 286 342 229 389 z "},"©":{"ha":833,"x_min":0,"x_max":0,"o":"m 426 185 b 638 413 556 185 631 286 l 525 413 b 421 292 521 368 499 292 b 300 496 332 292 300 388 b 421 701 300 606 332 701 b 525 582 500 701 521 618 l 638 582 b 417 808 626 707 549 808 b 186 496 271 808 186 676 b 426 185 186 313 276 185 z m 15 496 b 417 -19 15 179 171 -19 b 818 496 663 -19 818 179 b 417 1013 818 814 663 1013 b 15 496 171 1013 15 814 z m 117 496 b 417 915 117 754 232 915 b 717 496 601 915 717 754 b 417 78 717 239 601 78 b 117 496 232 78 117 239 z "},"®":{"ha":833,"x_min":0,"x_max":0,"o":"m 417 343 b 749 679 601 343 749 486 b 417 1015 749 872 601 1015 b 85 679 232 1015 85 872 b 417 343 85 486 232 343 z m 150 679 b 417 958 150 842 264 958 b 683 679 569 958 683 842 b 417 400 683 517 569 400 b 150 679 264 400 150 517 z m 278 496 l 369 496 l 369 626 l 404 626 b 479 496 490 626 460 513 l 572 496 l 572 500 b 486 663 550 507 581 647 l 486 664 b 565 757 533 675 565 706 b 432 865 565 826 519 865 l 278 865 z m 369 700 l 369 796 l 407 796 b 478 749 444 796 478 789 b 407 700 478 708 444 700 z "},"™":{"ha":833,"x_min":0,"x_max":0,"o":"m 367 606 l 456 606 l 456 881 l 458 881 l 532 606 l 607 606 l 682 881 l 685 881 l 685 606 l 774 606 l 774 993 l 646 993 l 571 728 l 569 728 l 496 993 l 367 993 z m 15 907 l 122 907 l 122 606 l 215 606 l 215 907 l 322 907 l 322 993 l 15 993 z "},"°":{"ha":833,"x_min":0,"x_max":0,"o":"m 417 594 b 631 804 560 594 631 706 b 417 1013 631 901 560 1013 b 203 804 272 1013 203 901 b 417 594 203 706 272 594 z m 299 804 b 417 924 299 875 347 924 b 535 804 486 924 535 875 b 417 683 535 732 486 683 b 299 804 347 683 299 732 z "},"|":{"ha":833,"x_min":0,"x_max":0,"o":"m 361 -181 l 472 -181 l 472 1036 l 361 1036 z "},"¦":{"ha":833,"x_min":0,"x_max":0,"o":"m 361 -181 l 472 -181 l 472 340 l 361 340 z m 361 533 l 472 533 l 472 1036 l 361 1036 z "},"†":{"ha":833,"x_min":0,"x_max":0,"o":"m 342 -246 l 492 -246 l 492 582 l 757 582 l 757 711 l 492 711 l 492 993 l 342 993 l 342 711 l 76 711 l 76 582 l 342 582 z "},"‡":{"ha":833,"x_min":0,"x_max":0,"o":"m 76 138 l 342 138 l 342 -246 l 492 -246 l 492 138 l 757 138 l 757 267 l 492 267 l 492 582 l 757 582 l 757 711 l 492 711 l 492 993 l 342 993 l 342 711 l 76 711 l 76 582 l 342 582 l 342 267 l 76 267 z "},"¢":{"ha":833,"x_min":0,"x_max":0,"o":"m 392 7 l 472 7 l 472 129 b 728 410 618 146 719 260 l 590 410 b 472 240 586 338 553 260 l 472 763 b 590 599 551 743 586 665 l 728 599 b 472 874 714 743 618 857 l 472 981 l 392 981 l 392 874 b 111 501 221 854 111 708 b 392 129 111 296 221 149 z m 249 500 b 392 763 249 621 293 738 l 392 242 b 249 500 292 265 249 381 z "},"¤":{"ha":833,"x_min":0,"x_max":0,"o":"m 417 201 b 575 250 474 201 529 218 l 661 163 l 735 236 l 646 324 b 689 479 674 365 689 418 b 646 636 689 540 672 593 l 735 724 l 661 796 l 574 710 b 417 757 529 740 474 757 b 260 710 361 757 306 740 l 172 797 l 99 725 l 188 638 b 143 479 160 594 143 542 b 188 322 143 417 160 364 l 99 235 l 172 163 l 258 249 b 417 201 304 218 360 201 z m 267 479 b 417 654 267 594 328 654 b 565 479 504 654 565 594 b 417 306 565 364 504 306 b 267 479 328 306 267 364 z "},"$":{"ha":833,"x_min":0,"x_max":0,"o":"m 389 -140 l 468 -140 l 468 -19 b 772 264 663 -11 772 100 b 468 549 772 444 640 494 l 468 846 b 615 663 550 829 604 772 l 756 663 b 468 968 746 843 632 949 l 468 1069 l 389 1069 l 389 971 b 100 707 211 963 100 858 b 388 439 100 539 240 483 l 389 439 l 389 104 b 206 317 276 121 214 194 l 64 317 b 389 -17 72 115 207 3 z m 242 715 b 389 850 242 794 299 843 l 389 575 b 242 715 294 608 242 640 z m 468 100 l 468 414 b 631 251 572 379 631 343 b 468 100 631 165 582 107 z "},"€":{"ha":833,"x_min":0,"x_max":0,"o":"m 471 -19 b 781 346 671 -19 767 133 l 632 346 b 468 108 625 203 575 108 b 286 349 358 108 306 210 l 507 349 l 507 435 l 281 435 b 279 476 279 449 279 463 l 279 511 l 507 511 l 507 596 l 286 596 b 468 843 303 738 356 843 b 632 629 586 843 621 728 l 781 629 b 471 971 765 822 668 971 b 138 596 275 971 165 822 l 67 596 l 67 511 l 131 511 l 131 476 b 132 435 131 463 131 449 l 67 435 l 67 349 l 139 349 b 471 -19 167 126 276 -19 z "},"£":{"ha":833,"x_min":0,"x_max":0,"o":"m 583 -19 b 781 64 671 -19 725 19 l 721 182 b 572 121 675 146 635 121 b 363 181 492 121 457 181 b 236 140 304 181 267 156 l 235 143 b 340 372 299 194 340 275 l 340 379 l 525 379 l 525 493 l 313 493 b 254 679 288 551 254 604 b 426 843 254 775 313 843 b 601 639 551 843 601 767 l 751 639 b 425 971 751 829 658 971 b 106 692 185 971 106 808 b 160 493 106 603 136 547 l 81 493 l 81 379 l 190 379 l 190 374 b 67 110 190 257 143 158 l 142 0 b 308 64 213 44 253 64 b 583 -19 404 64 457 -19 z "},"¥":{"ha":833,"x_min":0,"x_max":0,"o":"m 342 0 l 490 0 l 490 114 l 726 114 l 726 208 l 490 208 l 490 329 l 726 329 l 726 424 l 510 424 l 804 953 l 643 953 l 419 513 l 415 513 l 192 953 l 29 953 l 322 424 l 108 424 l 108 329 l 342 329 l 342 208 l 108 208 l 108 114 l 342 114 z "},"≊":{"ha":833,"x_min":0,"x_max":0,"o":"m 139 118 l 694 118 l 694 242 l 139 242 z m 138 311 l 238 311 b 308 394 239 357 264 394 b 564 289 393 394 435 289 b 696 494 654 289 706 368 l 596 494 b 525 413 594 447 571 413 b 276 517 435 413 394 517 b 138 311 183 517 126 439 z m 138 556 l 238 556 b 297 640 239 603 253 640 b 564 535 382 640 446 535 b 696 740 654 535 706 614 l 596 740 b 536 657 594 692 582 657 b 276 761 446 657 394 761 b 138 556 183 761 126 683 z "},"≆":{"ha":833,"x_min":0,"x_max":0,"o":"m 235 39 l 356 39 l 399 118 l 694 118 l 694 242 l 464 242 l 507 321 l 694 321 l 694 443 l 572 443 l 597 489 l 476 489 l 451 443 l 139 443 l 139 321 l 386 321 l 343 242 l 139 242 l 139 118 l 278 118 z m 138 538 l 238 538 b 297 622 239 585 253 622 b 564 517 382 622 446 517 b 696 722 654 517 706 596 l 596 722 b 536 639 594 674 582 639 b 276 743 446 639 394 743 b 138 538 183 743 126 664 z "},"⊦":{"ha":833,"x_min":0,"x_max":0,"o":"m 139 157 l 246 157 l 246 317 l 694 317 l 694 447 l 246 447 l 246 607 l 139 607 z "},"∗":{"ha":833,"x_min":0,"x_max":0,"o":"m 179 363 l 232 274 l 371 365 l 361 194 l 472 194 l 463 365 l 601 274 l 654 363 l 506 440 l 654 518 l 601 607 l 461 515 l 471 685 l 361 685 l 371 515 l 232 607 l 179 517 l 328 439 z "},"∵":{"ha":833,"x_min":0,"x_max":0,"o":"m 417 357 b 328 269 367 357 328 319 b 417 182 328 221 367 182 b 504 269 465 182 504 221 b 417 357 504 319 465 357 z m 96 646 b 185 558 96 597 133 558 b 271 646 233 558 271 597 b 185 733 271 696 233 733 b 96 646 133 733 96 696 z m 563 646 b 650 558 563 597 600 558 b 738 646 700 558 738 597 b 650 733 738 696 700 733 b 563 646 600 733 563 696 z "},"∙":{"ha":833,"x_min":0,"x_max":0,"o":"m 331 296 l 503 296 l 503 467 l 331 467 z "},"≅":{"ha":833,"x_min":0,"x_max":0,"o":"m 564 517 b 696 722 654 517 706 596 l 596 722 b 536 639 594 674 582 639 b 276 743 446 639 394 743 b 138 538 183 743 126 664 l 238 538 b 297 622 239 585 253 622 b 564 517 382 622 446 517 z m 139 118 l 694 118 l 694 242 l 139 242 z m 139 321 l 694 321 l 694 443 l 139 443 z "},"≧":{"ha":833,"x_min":0,"x_max":0,"o":"m 108 361 l 725 540 l 725 685 l 108 865 l 108 736 l 610 614 l 610 611 l 108 490 z m 108 0 l 725 0 l 725 122 l 108 122 z m 108 200 l 725 200 l 725 322 l 108 322 z "},"≦":{"ha":833,"x_min":0,"x_max":0,"o":"m 725 361 l 725 490 l 224 611 l 224 614 l 725 736 l 725 865 l 108 685 l 108 540 z m 108 0 l 725 0 l 725 122 l 108 122 z m 108 200 l 725 200 l 725 322 l 108 322 z "},"+":{"ha":833,"x_min":0,"x_max":0,"o":"m 351 101 l 482 101 l 482 317 l 697 317 l 697 447 l 482 447 l 482 663 l 351 663 l 351 447 l 136 447 l 136 317 l 351 317 z "},"−":{"ha":833,"x_min":0,"x_max":0,"o":"m 136 317 l 697 317 l 697 447 l 136 447 z "},"×":{"ha":833,"x_min":0,"x_max":0,"o":"m 210 82 l 417 290 l 624 82 l 717 175 l 508 382 l 717 589 l 624 681 l 417 474 l 210 681 l 117 589 l 325 382 l 117 175 z "},"÷":{"ha":833,"x_min":0,"x_max":0,"o":"m 331 535 l 503 535 l 503 706 l 331 706 z m 136 317 l 697 317 l 697 447 l 136 447 z m 331 60 l 503 60 l 503 231 l 331 231 z "},"=":{"ha":833,"x_min":0,"x_max":0,"o":"m 136 189 l 697 189 l 697 319 l 136 319 z m 136 444 l 697 444 l 697 575 l 136 575 z "},"≠":{"ha":833,"x_min":0,"x_max":0,"o":"m 213 75 l 319 75 l 375 189 l 697 189 l 697 319 l 439 319 l 500 444 l 697 444 l 697 575 l 564 575 l 619 690 l 513 690 l 457 575 l 136 575 l 136 444 l 393 444 l 332 319 l 136 319 l 136 189 l 268 189 z "},">":{"ha":833,"x_min":0,"x_max":0,"o":"m 108 46 l 725 310 l 725 454 l 108 718 l 108 589 l 610 383 l 610 381 l 108 175 z "},"<":{"ha":833,"x_min":0,"x_max":0,"o":"m 725 46 l 725 175 l 224 381 l 224 383 l 725 589 l 725 718 l 108 454 l 108 310 z "},"≥":{"ha":833,"x_min":0,"x_max":0,"o":"m 108 182 l 725 390 l 725 535 l 108 743 l 108 614 l 610 464 l 610 461 l 108 311 z m 108 0 l 725 0 l 725 122 l 108 122 z "},"≤":{"ha":833,"x_min":0,"x_max":0,"o":"m 725 182 l 725 311 l 224 461 l 224 464 l 725 614 l 725 743 l 108 535 l 108 390 z m 108 0 l 725 0 l 725 122 l 108 122 z "},"±":{"ha":833,"x_min":0,"x_max":0,"o":"m 135 0 l 697 0 l 697 128 l 135 128 z m 135 471 l 351 471 l 351 253 l 481 253 l 481 471 l 697 471 l 697 601 l 481 601 l 481 821 l 351 821 l 351 601 l 135 601 z "},"≈":{"ha":833,"x_min":0,"x_max":0,"o":"m 88 458 l 194 458 b 268 521 194 497 211 521 b 586 458 372 521 475 458 b 746 640 708 458 746 551 l 639 640 b 565 581 639 603 622 581 b 247 640 461 581 360 640 b 88 458 125 640 88 547 z m 88 222 l 194 222 b 268 283 194 261 211 283 b 586 222 372 283 475 222 b 746 404 708 222 746 315 l 639 404 b 565 344 639 367 622 344 b 247 404 461 344 360 404 b 88 222 125 404 88 311 z "},"~":{"ha":833,"x_min":0,"x_max":0,"o":"m 88 374 l 194 374 b 279 460 200 413 221 460 b 558 350 364 460 426 350 b 746 556 701 350 751 453 l 639 556 b 554 469 633 513 613 469 b 276 579 469 469 408 579 b 88 374 132 579 82 476 z "},"¬":{"ha":833,"x_min":0,"x_max":0,"o":"m 581 197 l 728 197 l 728 563 l 78 563 l 78 433 l 581 433 z "},"^":{"ha":833,"x_min":0,"x_max":0,"o":"m 63 611 l 206 611 l 415 871 l 418 871 l 628 611 l 771 611 l 481 993 l 354 993 z "},"∅":{"ha":833,"x_min":0,"x_max":0,"o":"m 418 88 b 807 479 638 88 807 233 b 701 761 807 599 767 694 l 758 828 l 706 871 l 649 804 b 418 871 585 847 506 871 b 26 479 199 871 26 725 b 135 196 26 360 67 264 l 79 131 l 129 88 l 186 154 b 418 88 250 111 331 88 z m 103 479 b 418 794 103 681 236 794 b 600 746 488 794 550 778 l 183 254 b 103 479 133 307 103 382 z m 235 213 l 653 703 b 731 479 701 650 731 574 b 418 164 731 275 599 164 b 235 213 349 164 286 181 z "},"∞":{"ha":833,"x_min":0,"x_max":0,"o":"m 207 178 b 417 335 306 178 369 274 l 418 335 b 626 178 468 268 529 178 b 811 422 719 178 811 256 b 626 668 811 590 719 668 b 418 525 528 668 467 590 l 417 525 b 207 668 369 588 306 668 b 22 422 114 668 22 590 b 207 178 22 256 114 178 z m 133 424 b 222 549 133 506 167 549 b 361 424 283 549 326 474 b 222 300 326 374 283 300 b 133 424 167 300 133 342 z m 472 424 b 611 549 507 474 549 549 b 700 424 667 549 700 506 b 611 300 700 342 667 300 b 472 424 549 300 507 374 z "},"∫":{"ha":833,"x_min":0,"x_max":0,"o":"m 224 -243 b 490 -8 421 -243 490 -147 l 490 746 b 647 896 490 831 532 896 b 753 889 675 896 714 894 l 753 1013 b 603 1026 719 1021 658 1026 b 339 792 404 1026 339 931 l 339 38 b 186 -112 339 -57 296 -112 b 75 -106 154 -112 114 -111 l 75 -229 b 224 -243 108 -237 171 -243 z "},"Ω":{"ha":833,"x_min":0,"x_max":0,"o":"m 64 0 l 365 0 l 365 113 b 221 506 290 186 221 292 b 417 879 221 735 286 879 b 613 506 547 879 613 735 b 468 113 613 293 543 186 l 468 0 l 769 0 l 769 132 l 621 132 b 764 528 706 215 764 354 b 417 1013 764 803 635 1013 b 68 528 197 1013 68 801 b 213 132 68 351 128 214 l 64 132 z "},"∆":{"ha":833,"x_min":0,"x_max":0,"o":"m 64 0 l 769 0 l 769 131 l 501 993 l 332 993 l 64 131 z m 211 131 l 414 851 l 419 851 l 619 131 z "},"∏":{"ha":833,"x_min":0,"x_max":0,"o":"m 81 -139 l 228 -139 l 228 864 l 606 864 l 606 -139 l 753 -139 l 753 993 l 81 993 z "},"∑":{"ha":833,"x_min":0,"x_max":0,"o":"m 83 -139 l 736 -139 l 736 -10 l 250 -10 l 250 -7 l 551 406 l 551 481 l 260 861 l 260 864 l 722 864 l 722 993 l 83 993 l 83 861 l 417 440 l 417 438 l 83 -6 z "},"√":{"ha":833,"x_min":0,"x_max":0,"o":"m 293 -139 l 429 -139 l 800 993 l 651 993 l 361 46 l 358 46 l 226 451 l 32 451 l 32 322 l 131 322 z "},"µ":{"ha":833,"x_min":0,"x_max":0,"o":"m 574 0 l 710 0 l 710 708 l 574 708 l 574 274 b 392 96 574 167 500 96 b 250 256 288 96 250 161 l 250 708 l 113 708 l 113 -246 l 250 -246 l 250 19 b 371 -18 282 -6 322 -18 b 571 90 463 -18 529 28 l 574 90 z "},"∂":{"ha":833,"x_min":0,"x_max":0,"o":"m 382 -19 b 742 439 642 -19 742 206 b 260 993 742 725 593 950 l 260 875 b 601 546 440 844 560 756 b 400 654 558 618 494 654 b 90 301 219 654 90 485 b 382 -19 90 103 207 -19 z m 226 292 b 432 539 226 426 301 539 b 601 342 540 539 601 451 b 396 94 601 206 528 94 b 226 292 297 94 226 169 z "},"%":{"ha":833,"x_min":0,"x_max":0,"o":"m 49 208 l 122 135 l 786 785 l 713 860 z m 33 785 b 214 568 33 667 86 568 b 394 785 343 568 394 667 b 214 1003 394 904 343 1003 b 33 785 86 1003 33 903 z m 138 785 b 214 921 138 876 165 921 b 290 785 265 921 290 875 b 214 649 290 694 265 649 b 138 785 164 649 138 693 z m 439 208 b 619 -8 439 90 492 -8 b 800 208 749 -8 800 90 b 619 425 800 328 749 425 b 439 208 492 425 439 326 z m 543 208 b 619 344 543 300 571 344 b 696 208 671 344 696 299 b 619 72 696 118 671 72 b 543 208 569 72 543 117 z "},"‰":{"ha":833,"x_min":0,"x_max":0,"o":"m 214 596 b 383 799 343 596 383 694 b 214 1003 383 904 343 1003 b 44 799 86 1003 44 903 b 214 596 44 694 86 596 z m 76 424 l 133 339 l 768 739 l 714 826 z m 149 799 b 214 921 149 876 165 921 b 279 799 265 921 279 875 b 214 676 279 722 265 676 b 149 799 164 676 149 721 z m 201 194 b 361 -8 201 88 244 -8 b 489 58 425 -8 465 21 b 618 -8 514 21 553 -8 b 775 194 733 -8 775 86 b 618 397 775 303 733 397 b 489 331 554 397 514 368 b 361 397 465 368 426 397 b 201 194 244 397 201 301 z m 306 194 b 372 317 306 272 322 317 b 436 194 424 317 436 271 b 371 72 436 118 424 72 b 306 194 321 72 306 117 z m 540 194 b 607 317 540 272 557 317 b 672 194 658 317 672 271 b 607 72 672 118 658 72 b 540 194 556 72 540 117 z "},"∴":{"ha":833,"x_min":0,"x_max":0,"o":"m 417 556 b 504 643 465 556 504 593 b 417 731 504 692 465 731 b 328 643 367 731 328 692 b 417 556 328 593 367 556 z m 96 267 b 185 179 96 217 133 179 b 271 267 233 179 271 217 b 185 354 271 315 233 354 b 96 267 133 354 96 315 z m 563 267 b 650 179 563 217 600 179 b 738 267 700 179 738 217 b 650 354 738 315 700 354 b 563 267 600 354 563 315 z "},"↑":{"ha":833,"x_min":0,"x_max":0,"o":"m 415 753 l 101 513 l 167 428 l 351 571 l 351 11 l 482 11 l 482 571 l 667 428 l 732 513 z "},"↗":{"ha":833,"x_min":0,"x_max":0,"o":"m 668 646 l 275 697 l 261 592 l 494 563 l 97 165 l 189 74 l 586 469 l 615 238 l 721 251 z "},"→":{"ha":833,"x_min":0,"x_max":0,"o":"m 39 317 l 599 317 l 456 132 l 540 67 l 781 383 l 540 697 l 456 632 l 599 447 l 39 447 z "},"↘":{"ha":833,"x_min":0,"x_max":0,"o":"m 668 125 l 721 519 l 615 533 l 586 301 l 189 697 l 97 606 l 494 208 l 261 179 l 275 74 z "},"↓":{"ha":833,"x_min":0,"x_max":0,"o":"m 415 11 l 732 251 l 667 336 l 482 193 l 482 753 l 351 753 l 351 193 l 167 336 l 101 251 z "},"↙":{"ha":833,"x_min":0,"x_max":0,"o":"m 165 125 l 558 74 l 572 179 l 339 208 l 736 606 l 644 697 l 247 301 l 218 533 l 113 519 z "},"←":{"ha":833,"x_min":0,"x_max":0,"o":"m 53 383 l 293 67 l 378 132 l 235 317 l 794 317 l 794 447 l 235 447 l 378 632 l 293 697 z "},"↖":{"ha":833,"x_min":0,"x_max":0,"o":"m 165 646 l 113 251 l 218 238 l 247 469 l 644 74 l 736 165 l 339 563 l 572 592 l 558 697 z "},"↔":{"ha":833,"x_min":0,"x_max":0,"o":"m -29 383 l 211 67 l 296 132 l 153 317 l 679 317 l 536 132 l 621 67 l 861 383 l 621 697 l 536 632 l 679 447 l 153 447 l 296 632 l 211 697 z "},"↕":{"ha":833,"x_min":0,"x_max":0,"o":"m 418 11 l 732 251 l 667 336 l 482 193 l 482 710 l 667 567 l 732 651 l 415 892 l 101 651 l 167 567 l 351 710 l 351 193 l 167 336 l 101 251 z "},"⬎":{"ha":833,"x_min":0,"x_max":0,"o":"m 415 11 l 732 251 l 667 336 l 482 193 l 482 753 l 13 753 l 13 640 l 351 640 l 351 193 l 167 336 l 101 251 z "},"⬏":{"ha":833,"x_min":0,"x_max":0,"o":"m 415 753 l 101 513 l 167 428 l 351 571 l 351 124 l 13 124 l 13 11 l 482 11 l 482 571 l 667 428 l 732 513 z "},"⬐":{"ha":833,"x_min":0,"x_max":0,"o":"m 418 11 l 732 251 l 667 336 l 482 193 l 482 640 l 822 640 l 822 753 l 351 753 l 351 193 l 167 336 l 101 251 z "},"⬑":{"ha":833,"x_min":0,"x_max":0,"o":"m 418 753 l 101 513 l 167 428 l 351 571 l 351 11 l 821 11 l 821 124 l 482 124 l 482 571 l 667 428 l 732 513 z "},"⟰":{"ha":833,"x_min":0,"x_max":0,"o":"m 417 567 l 453 513 l 453 0 l 560 0 l 560 396 b 618 349 578 379 597 364 l 618 0 l 725 0 l 725 289 b 794 264 747 279 771 271 l 817 378 b 417 753 615 443 482 604 b 17 378 351 604 218 443 l 39 264 b 110 289 64 271 88 279 l 110 0 l 217 0 l 217 350 b 275 397 238 365 257 381 l 275 0 l 382 0 l 382 515 b 417 567 396 533 407 551 z "},"⟱":{"ha":833,"x_min":0,"x_max":0,"o":"m 417 142 b 382 193 407 157 396 175 l 382 708 l 275 708 l 275 311 b 217 358 257 328 238 343 l 217 708 l 110 708 l 110 419 b 39 444 88 429 64 438 l 17 331 b 417 -44 218 265 351 104 b 817 331 482 104 615 265 l 794 444 b 725 419 771 438 747 429 l 725 708 l 618 708 l 618 360 b 560 313 597 344 578 329 l 560 708 l 453 708 l 453 196 z "},"⟴":{"ha":833,"x_min":0,"x_max":0,"o":"m 318 99 b 592 317 453 99 564 190 l 699 317 l 556 132 l 639 67 l 881 382 l 639 697 l 556 632 l 699 447 l 590 447 b 318 661 561 571 451 661 b 44 447 183 661 74 571 l -14 447 l -14 317 l 43 317 b 318 99 71 190 182 99 z m 149 317 l 265 317 l 265 204 b 149 317 208 219 167 260 z m 150 447 b 265 556 168 503 208 542 l 265 447 z m 371 204 l 371 317 l 486 317 b 371 204 468 260 428 219 z m 371 447 l 371 556 b 485 447 426 542 467 503 z "},"⟵":{"ha":833,"x_min":0,"x_max":0,"o":"m 194 67 l 278 132 l 135 317 l 847 317 l 847 447 l 135 447 l 278 632 l 194 697 l -47 382 z "},"⟶":{"ha":833,"x_min":0,"x_max":0,"o":"m 639 67 l 881 382 l 639 697 l 556 632 l 699 447 l -14 447 l -14 317 l 699 317 l 556 132 z "},"⟷":{"ha":833,"x_min":0,"x_max":0,"o":"m 639 67 l 881 382 l 639 697 l 556 632 l 699 447 l 135 447 l 278 632 l 194 697 l -47 382 l 194 67 l 278 132 l 135 317 l 699 317 l 556 132 z "},"⟸":{"ha":833,"x_min":0,"x_max":0,"o":"m 194 67 l 278 132 l 235 189 l 847 189 l 847 318 l 135 318 l 86 382 l 135 446 l 847 446 l 847 575 l 233 575 l 278 632 l 194 697 l -47 382 z "},"⟹":{"ha":833,"x_min":0,"x_max":0,"o":"m 639 67 l 881 382 l 639 697 l 556 632 l 600 575 l -14 575 l -14 446 l 699 446 l 747 382 l 699 318 l -14 318 l -14 189 l 599 189 l 556 132 z "},"⟺":{"ha":833,"x_min":0,"x_max":0,"o":"m 194 67 l 278 132 l 235 189 l 599 189 l 556 132 l 639 67 l 881 382 l 639 697 l 556 632 l 600 575 l 233 575 l 278 632 l 194 697 l -47 382 z m 86 382 l 135 446 l 699 446 l 747 382 l 699 318 l 135 318 z "},"⟻":{"ha":833,"x_min":0,"x_max":0,"o":"m 764 -100 l 764 864 l 654 864 l 654 447 l 135 447 l 278 632 l 194 697 l -47 382 l 194 67 l 278 132 l 135 317 l 654 317 l 654 -100 z "},"⟼":{"ha":833,"x_min":0,"x_max":0,"o":"m 69 -100 l 179 -100 l 179 317 l 699 317 l 556 132 l 639 67 l 881 382 l 639 697 l 556 632 l 699 447 l 179 447 l 179 864 l 69 864 z "},"⟽":{"ha":833,"x_min":0,"x_max":0,"o":"m 194 67 l 278 132 l 235 189 l 654 189 l 654 -100 l 764 -100 l 764 864 l 654 864 l 654 575 l 233 575 l 278 632 l 194 697 l -47 382 z m 86 382 l 135 446 l 654 446 l 654 318 l 135 318 z "},"⟾":{"ha":833,"x_min":0,"x_max":0,"o":"m 639 67 l 881 382 l 639 697 l 556 632 l 600 575 l 179 575 l 179 864 l 69 864 l 69 -100 l 179 -100 l 179 189 l 599 189 l 556 132 z m 179 318 l 179 446 l 699 446 l 747 382 l 699 318 z "},"⟿":{"ha":833,"x_min":0,"x_max":0,"o":"m 379 249 l 563 365 l 658 317 l 699 317 l 556 132 l 639 67 l 881 382 l 639 697 l 556 632 l 699 447 l 665 447 l 563 497 l 379 381 l 172 514 l 26 447 l -14 447 l -14 317 l 26 317 l 165 385 z "},"⮠":{"ha":833,"x_min":0,"x_max":0,"o":"m 53 383 l 293 67 l 378 132 l 235 317 l 794 317 l 794 786 l 682 786 l 682 447 l 235 447 l 378 632 l 293 697 z "},"⮡":{"ha":833,"x_min":0,"x_max":0,"o":"m 781 383 l 540 697 l 456 632 l 599 447 l 151 447 l 151 786 l 39 786 l 39 317 l 599 317 l 456 132 l 540 67 z "},"⮦":{"ha":833,"x_min":0,"x_max":0,"o":"m 418 11 l 732 251 l 667 336 l 482 193 l 482 640 l 821 640 l 821 753 l 351 753 l 351 193 l 167 336 l 101 251 z "},"⮤":{"ha":833,"x_min":0,"x_max":0,"o":"m 418 753 l 101 513 l 167 428 l 351 571 l 351 11 l 821 11 l 821 124 l 482 124 l 482 571 l 667 428 l 732 513 z "},"⮧":{"ha":833,"x_min":0,"x_max":0,"o":"m 415 11 l 732 251 l 667 336 l 482 193 l 482 753 l 13 753 l 13 640 l 351 640 l 351 193 l 167 336 l 101 251 z "},"⮥":{"ha":833,"x_min":0,"x_max":0,"o":"m 415 753 l 101 513 l 167 428 l 351 571 l 351 124 l 13 124 l 13 11 l 482 11 l 482 571 l 667 428 l 732 513 z "},"⮢":{"ha":833,"x_min":0,"x_max":0,"o":"m 53 381 l 293 67 l 378 132 l 235 317 l 682 317 l 682 -22 l 794 -22 l 794 447 l 235 447 l 378 632 l 293 697 z "},"⮣":{"ha":833,"x_min":0,"x_max":0,"o":"m 781 381 l 540 697 l 456 632 l 599 447 l 39 447 l 39 -22 l 151 -22 l 151 317 l 599 317 l 456 132 l 540 67 z "},"▄":{"ha":833,"x_min":0,"x_max":0,"o":"m 833 -336 l 833 497 l 0 497 l 0 -336 z "},"█":{"ha":833,"x_min":0,"x_max":0,"o":"m 833 -336 l 833 1331 l 0 1331 l 0 -336 z "},"▀":{"ha":833,"x_min":0,"x_max":0,"o":"m 833 497 l 833 1331 l 0 1331 l 0 497 z "},"▌":{"ha":833,"x_min":0,"x_max":0,"o":"m 417 -336 l 417 1331 l 0 1331 l 0 -336 z "},"▐":{"ha":833,"x_min":0,"x_max":0,"o":"m 833 -336 l 833 1331 l 417 1331 l 417 -336 z "},"░":{"ha":833,"x_min":0,"x_max":0,"o":"m 138 983 l 138 1053 l 68 1053 l 68 983 z m 68 -129 l 138 -129 l 138 -60 l 68 -60 z m 68 149 l 138 149 l 138 218 l 68 218 z m 68 426 l 138 426 l 138 496 l 68 496 z m 68 704 l 138 704 l 138 774 l 68 774 z m 68 1261 l 138 1261 l 138 1331 l 68 1331 z m 207 -267 l 276 -267 l 276 -197 l 207 -197 z m 207 10 l 276 10 l 276 79 l 207 79 z m 207 288 l 276 288 l 276 357 l 207 357 z m 207 565 l 276 565 l 276 635 l 207 635 z m 207 844 l 276 844 l 276 914 l 207 914 z m 207 1122 l 276 1122 l 276 1192 l 207 1192 z m 346 -129 l 415 -129 l 415 -60 l 346 -60 z m 346 149 l 415 149 l 415 218 l 346 218 z m 346 426 l 415 426 l 415 496 l 346 496 z m 346 704 l 415 704 l 415 774 l 346 774 z m 346 983 l 415 983 l 415 1053 l 346 1053 z m 346 1261 l 415 1261 l 415 1331 l 346 1331 z m 486 -267 l 556 -267 l 556 -197 l 486 -197 z m 486 10 l 556 10 l 556 79 l 486 79 z m 486 288 l 556 288 l 556 357 l 486 357 z m 486 565 l 556 565 l 556 635 l 486 635 z m 486 844 l 556 844 l 556 914 l 486 914 z m 486 1122 l 556 1122 l 556 1192 l 486 1192 z m 626 -129 l 694 -129 l 694 -60 l 626 -60 z m 626 149 l 694 149 l 694 218 l 626 218 z m 626 426 l 694 426 l 694 496 l 626 496 z m 626 704 l 694 704 l 694 774 l 626 774 z m 626 983 l 694 983 l 694 1053 l 626 1053 z m 626 1261 l 694 1261 l 694 1331 l 626 1331 z m 765 -267 l 833 -267 l 833 -197 l 765 -197 z m 765 10 l 833 10 l 833 79 l 765 79 z m 765 288 l 833 288 l 833 357 l 765 357 z m 765 565 l 833 565 l 833 635 l 765 635 z m 765 844 l 833 844 l 833 914 l 765 914 z m 765 1122 l 833 1122 l 833 1192 l 765 1192 z "},"▒":{"ha":833,"x_min":0,"x_max":0,"o":"m 68 10 l 68 78 l 0 78 l 0 10 z m 0 -274 l 68 -274 l 68 -204 l 0 -204 z m 0 288 l 68 288 l 68 356 l 0 356 z m 0 565 l 68 565 l 68 633 l 0 633 z m 0 844 l 68 844 l 68 913 l 0 913 z m 0 1119 l 68 1119 l 68 1190 l 0 1190 z m 68 -132 l 138 -132 l 138 -61 l 68 -61 z m 68 147 l 138 147 l 138 219 l 68 219 z m 68 426 l 138 426 l 138 496 l 68 496 z m 68 706 l 138 706 l 138 775 l 68 775 z m 68 983 l 138 983 l 138 1053 l 68 1053 z m 68 1261 l 138 1261 l 138 1331 l 68 1331 z m 138 -274 l 207 -274 l 207 -204 l 138 -204 z m 138 10 l 207 10 l 207 78 l 138 78 z m 138 288 l 207 288 l 207 356 l 138 356 z m 138 565 l 207 565 l 207 633 l 138 633 z m 138 844 l 207 844 l 207 913 l 138 913 z m 138 1119 l 207 1119 l 207 1190 l 138 1190 z m 207 -132 l 276 -132 l 276 -61 l 207 -61 z m 207 147 l 276 147 l 276 219 l 207 219 z m 207 426 l 276 426 l 276 496 l 207 496 z m 207 706 l 276 706 l 276 775 l 207 775 z m 207 983 l 276 983 l 276 1053 l 207 1053 z m 207 1261 l 276 1261 l 276 1331 l 207 1331 z m 276 -274 l 346 -274 l 346 -204 l 276 -204 z m 276 10 l 346 10 l 346 78 l 276 78 z m 276 288 l 346 288 l 346 356 l 276 356 z m 276 565 l 346 565 l 346 633 l 276 633 z m 276 844 l 346 844 l 346 913 l 276 913 z m 276 1119 l 346 1119 l 346 1190 l 276 1190 z m 346 -132 l 415 -132 l 415 -61 l 346 -61 z m 346 147 l 415 147 l 415 219 l 346 219 z m 346 426 l 415 426 l 415 496 l 346 496 z m 346 706 l 415 706 l 415 775 l 346 775 z m 346 983 l 415 983 l 415 1053 l 346 1053 z m 346 1261 l 415 1261 l 415 1331 l 346 1331 z m 415 -274 l 486 -274 l 486 -204 l 415 -204 z m 415 10 l 486 10 l 486 78 l 415 78 z m 415 288 l 486 288 l 486 356 l 415 356 z m 415 565 l 486 565 l 486 633 l 415 633 z m 415 844 l 486 844 l 486 913 l 415 913 z m 415 1119 l 486 1119 l 486 1190 l 415 1190 z m 486 -132 l 556 -132 l 556 -61 l 486 -61 z m 486 147 l 556 147 l 556 219 l 486 219 z m 486 426 l 556 426 l 556 496 l 486 496 z m 486 706 l 556 706 l 556 775 l 486 775 z m 486 983 l 556 983 l 556 1053 l 486 1053 z m 486 1261 l 556 1261 l 556 1331 l 486 1331 z m 556 -274 l 626 -274 l 626 -204 l 556 -204 z m 556 10 l 626 10 l 626 78 l 556 78 z m 556 288 l 626 288 l 626 356 l 556 356 z m 556 565 l 626 565 l 626 633 l 556 633 z m 556 844 l 626 844 l 626 913 l 556 913 z m 556 1119 l 626 1119 l 626 1190 l 556 1190 z m 626 -132 l 694 -132 l 694 -61 l 626 -61 z m 626 147 l 694 147 l 694 219 l 626 219 z m 626 426 l 694 426 l 694 496 l 626 496 z m 626 706 l 694 706 l 694 775 l 626 775 z m 626 983 l 694 983 l 694 1053 l 626 1053 z m 626 1261 l 694 1261 l 694 1331 l 626 1331 z m 694 -274 l 765 -274 l 765 -204 l 694 -204 z m 694 10 l 765 10 l 765 78 l 694 78 z m 694 288 l 765 288 l 765 356 l 694 356 z m 694 565 l 765 565 l 765 633 l 694 633 z m 694 844 l 765 844 l 765 913 l 694 913 z m 694 1119 l 765 1119 l 765 1190 l 694 1190 z m 765 -132 l 833 -132 l 833 -61 l 765 -61 z m 765 147 l 833 147 l 833 219 l 765 219 z m 765 426 l 833 426 l 833 496 l 765 496 z m 765 706 l 833 706 l 833 775 l 765 775 z m 765 983 l 833 983 l 833 1053 l 765 1053 z m 765 1261 l 833 1261 l 833 1331 l 765 1331 z "},"▓":{"ha":833,"x_min":0,"x_max":0,"o":"m 833 -336 l 0 -336 l 0 -274 l 68 -274 l 68 -204 l 0 -204 l 0 10 l 68 10 l 68 78 l 0 78 l 0 288 l 68 288 l 68 356 l 0 356 l 0 565 l 68 565 l 68 633 l 0 633 l 0 844 l 68 844 l 68 913 l 0 913 l 0 1119 l 68 1119 l 68 1190 l 0 1190 l 0 1261 l 833 1261 l 833 1053 l 765 1053 l 765 983 l 833 983 l 833 775 l 765 775 l 765 706 l 833 706 l 833 496 l 765 496 l 765 426 l 833 426 l 833 219 l 765 219 l 765 147 l 833 147 l 833 -61 l 765 -61 l 765 -132 l 833 -132 z m 0 1261 l 69 1261 l 69 1331 l 0 1331 z m 68 -132 l 138 -132 l 138 -61 l 68 -61 z m 68 147 l 138 147 l 138 219 l 68 219 z m 68 426 l 138 426 l 138 496 l 68 496 z m 68 706 l 138 706 l 138 775 l 68 775 z m 68 983 l 138 983 l 138 1053 l 68 1053 z m 138 -274 l 207 -274 l 207 -204 l 138 -204 z m 138 10 l 207 10 l 207 78 l 138 78 z m 138 288 l 207 288 l 207 356 l 138 356 z m 138 565 l 207 565 l 207 633 l 138 633 z m 138 844 l 207 844 l 207 913 l 138 913 z m 138 1119 l 207 1119 l 207 1190 l 138 1190 z m 139 1261 l 208 1261 l 208 1331 l 139 1331 z m 207 -132 l 276 -132 l 276 -61 l 207 -61 z m 207 147 l 276 147 l 276 219 l 207 219 z m 207 426 l 276 426 l 276 496 l 207 496 z m 207 706 l 276 706 l 276 775 l 207 775 z m 207 983 l 276 983 l 276 1053 l 207 1053 z m 276 -274 l 346 -274 l 346 -204 l 276 -204 z m 276 10 l 346 10 l 346 78 l 276 78 z m 276 288 l 346 288 l 346 356 l 276 356 z m 276 565 l 346 565 l 346 633 l 276 633 z m 276 844 l 346 844 l 346 913 l 276 913 z m 276 1119 l 346 1119 l 346 1190 l 276 1190 z m 278 1261 l 347 1261 l 347 1331 l 278 1331 z m 346 -132 l 415 -132 l 415 -61 l 346 -61 z m 346 147 l 415 147 l 415 219 l 346 219 z m 346 426 l 415 426 l 415 496 l 346 496 z m 346 706 l 415 706 l 415 775 l 346 775 z m 346 983 l 415 983 l 415 1053 l 346 1053 z m 415 -274 l 486 -274 l 486 -204 l 415 -204 z m 415 10 l 486 10 l 486 78 l 415 78 z m 415 288 l 486 288 l 486 356 l 415 356 z m 415 565 l 486 565 l 486 633 l 415 633 z m 415 844 l 486 844 l 486 913 l 415 913 z m 415 1119 l 486 1119 l 486 1190 l 415 1190 z m 418 1261 l 488 1261 l 488 1331 l 418 1331 z m 486 -132 l 556 -132 l 556 -61 l 486 -61 z m 486 147 l 556 147 l 556 219 l 486 219 z m 486 426 l 556 426 l 556 496 l 486 496 z m 486 706 l 556 706 l 556 775 l 486 775 z m 486 983 l 556 983 l 556 1053 l 486 1053 z m 556 -274 l 626 -274 l 626 -204 l 556 -204 z m 556 10 l 626 10 l 626 78 l 556 78 z m 556 288 l 626 288 l 626 356 l 556 356 z m 556 565 l 626 565 l 626 633 l 556 633 z m 556 844 l 626 844 l 626 913 l 556 913 z m 556 1119 l 626 1119 l 626 1190 l 556 1190 z m 558 1261 l 626 1261 l 626 1331 l 558 1331 z m 626 -132 l 694 -132 l 694 -61 l 626 -61 z m 626 147 l 694 147 l 694 219 l 626 219 z m 626 426 l 694 426 l 694 496 l 626 496 z m 626 706 l 694 706 l 694 775 l 626 775 z m 626 983 l 694 983 l 694 1053 l 626 1053 z m 694 -274 l 765 -274 l 765 -204 l 694 -204 z m 694 10 l 765 10 l 765 78 l 694 78 z m 694 288 l 765 288 l 765 356 l 694 356 z m 694 565 l 765 565 l 765 633 l 694 633 z m 694 844 l 765 844 l 765 913 l 694 913 z m 694 1119 l 765 1119 l 765 1190 l 694 1190 z m 697 1261 l 765 1261 l 765 1331 l 697 1331 z "},"●":{"ha":833,"x_min":0,"x_max":0,"o":"m 417 -19 b 818 496 663 -19 818 179 b 417 1013 818 814 663 1013 b 15 496 171 1013 15 814 b 417 -19 15 179 171 -19 z "},"○":{"ha":833,"x_min":0,"x_max":0,"o":"m 417 -19 b 818 496 663 -19 818 179 b 417 1013 818 814 663 1013 b 15 496 171 1013 15 814 b 417 -19 15 179 171 -19 z m 117 496 b 417 915 117 754 232 915 b 717 496 601 915 717 754 b 417 78 717 239 601 78 b 117 496 232 78 117 239 z "},"◊":{"ha":833,"x_min":0,"x_max":0,"o":"m 343 0 l 490 0 l 776 496 l 490 993 l 343 993 l 57 497 z m 207 499 l 414 864 l 417 864 l 626 493 l 419 129 l 417 129 z "},"■":{"ha":833,"x_min":0,"x_max":0,"o":"m 114 196 l 719 196 l 719 801 l 114 801 z "},"□":{"ha":833,"x_min":0,"x_max":0,"o":"m 114 194 l 719 194 l 719 800 l 114 800 z m 158 236 l 158 758 l 675 758 l 675 236 z "},"▪":{"ha":833,"x_min":0,"x_max":0,"o":"m 264 292 l 569 292 l 569 597 l 264 597 z "},"▫":{"ha":833,"x_min":0,"x_max":0,"o":"m 264 292 l 569 292 l 569 597 l 264 597 z m 306 333 l 306 556 l 528 556 l 528 333 z "},"▲":{"ha":833,"x_min":0,"x_max":0,"o":"m 72 189 l 761 189 l 417 806 z "},"▼":{"ha":833,"x_min":0,"x_max":0,"o":"m 72 806 l 417 189 l 761 806 z "},"►":{"ha":833,"x_min":0,"x_max":0,"o":"m 111 153 l 728 497 l 111 842 z "},"◄":{"ha":833,"x_min":0,"x_max":0,"o":"m 722 153 l 722 842 l 106 497 z "},"─":{"ha":833,"x_min":0,"x_max":0,"o":"m 842 447 l 842 547 l -8 547 l -8 447 z "},"│":{"ha":833,"x_min":0,"x_max":0,"o":"m 467 -336 l 467 1331 l 367 1331 l 367 -336 z "},"┌":{"ha":833,"x_min":0,"x_max":0,"o":"m 467 -336 l 467 447 l 842 447 l 842 547 l 367 547 l 367 -336 z "},"┐":{"ha":833,"x_min":0,"x_max":0,"o":"m 367 -336 l 467 -336 l 467 547 l -8 547 l -8 447 l 367 447 z "},"└":{"ha":833,"x_min":0,"x_max":0,"o":"m 467 1331 l 367 1331 l 367 447 l 842 447 l 842 547 l 467 547 z "},"┘":{"ha":833,"x_min":0,"x_max":0,"o":"m 367 1331 l 367 547 l -8 547 l -8 447 l 467 447 l 467 1331 z "},"├":{"ha":833,"x_min":0,"x_max":0,"o":"m 467 -336 l 467 447 l 842 447 l 842 547 l 467 547 l 467 1331 l 367 1331 l 367 -336 z "},"┤":{"ha":833,"x_min":0,"x_max":0,"o":"m 367 -336 l 467 -336 l 467 1331 l 367 1331 l 367 547 l -8 547 l -8 447 l 367 447 z "},"┬":{"ha":833,"x_min":0,"x_max":0,"o":"m 467 -336 l 467 447 l 842 447 l 842 547 l -8 547 l -8 447 l 367 447 l 367 -336 z "},"┴":{"ha":833,"x_min":0,"x_max":0,"o":"m 467 1331 l 367 1331 l 367 547 l -8 547 l -8 447 l 842 447 l 842 547 l 467 547 z "},"┼":{"ha":833,"x_min":0,"x_max":0,"o":"m -8 447 l 367 447 l 367 -336 l 467 -336 l 467 447 l 842 447 l 842 547 l 467 547 l 467 1331 l 367 1331 l 367 547 l -8 547 z "},"═":{"ha":833,"x_min":0,"x_max":0,"o":"m 842 569 l 842 669 l -8 669 l -8 569 z m -8 325 l 842 325 l 842 425 l -8 425 z "},"║":{"ha":833,"x_min":0,"x_max":0,"o":"m 589 -336 l 589 1331 l 489 1331 l 489 -336 z m 244 -336 l 344 -336 l 344 1331 l 244 1331 z "},"╒":{"ha":833,"x_min":0,"x_max":0,"o":"m 367 -336 l 467 -336 l 467 325 l 842 325 l 842 425 l 467 425 l 467 569 l 842 569 l 842 669 l 367 669 z "},"╓":{"ha":833,"x_min":0,"x_max":0,"o":"m 244 -336 l 344 -336 l 344 447 l 489 447 l 489 -336 l 589 -336 l 589 447 l 842 447 l 842 547 l 244 547 z "},"╔":{"ha":833,"x_min":0,"x_max":0,"o":"m 344 -336 l 344 569 l 842 569 l 842 669 l 244 669 l 244 -336 z m 489 -336 l 589 -336 l 589 325 l 842 325 l 842 425 l 489 425 z "},"╕":{"ha":833,"x_min":0,"x_max":0,"o":"m 467 -336 l 467 669 l -8 669 l -8 569 l 367 569 l 367 425 l -8 425 l -8 325 l 367 325 l 367 -336 z "},"╖":{"ha":833,"x_min":0,"x_max":0,"o":"m 589 -336 l 589 547 l -8 547 l -8 447 l 244 447 l 244 -336 l 344 -336 l 344 447 l 489 447 l 489 -336 z "},"╗":{"ha":833,"x_min":0,"x_max":0,"o":"m 489 -336 l 589 -336 l 589 669 l -8 669 l -8 569 l 489 569 z m -8 325 l 244 325 l 244 -336 l 344 -336 l 344 425 l -8 425 z "},"╘":{"ha":833,"x_min":0,"x_max":0,"o":"m 367 1331 l 367 325 l 842 325 l 842 425 l 467 425 l 467 569 l 842 569 l 842 669 l 467 669 l 467 1331 z "},"╙":{"ha":833,"x_min":0,"x_max":0,"o":"m 244 1331 l 244 447 l 842 447 l 842 547 l 589 547 l 589 1331 l 489 1331 l 489 547 l 344 547 l 344 1331 z "},"╚":{"ha":833,"x_min":0,"x_max":0,"o":"m 344 1331 l 244 1331 l 244 325 l 842 325 l 842 425 l 344 425 z m 489 569 l 842 569 l 842 669 l 589 669 l 589 1331 l 489 1331 z "},"╛":{"ha":833,"x_min":0,"x_max":0,"o":"m 467 1331 l 367 1331 l 367 669 l -8 669 l -8 569 l 367 569 l 367 425 l -8 425 l -8 325 l 467 325 z "},"╜":{"ha":833,"x_min":0,"x_max":0,"o":"m 589 1331 l 489 1331 l 489 547 l 344 547 l 344 1331 l 244 1331 l 244 547 l -8 547 l -8 447 l 589 447 z "},"╝":{"ha":833,"x_min":0,"x_max":0,"o":"m 489 1331 l 489 425 l -8 425 l -8 325 l 589 325 l 589 1331 z m -8 569 l 344 569 l 344 1331 l 244 1331 l 244 669 l -8 669 z "},"╞":{"ha":833,"x_min":0,"x_max":0,"o":"m 367 -336 l 467 -336 l 467 325 l 842 325 l 842 425 l 467 425 l 467 569 l 842 569 l 842 669 l 467 669 l 467 1331 l 367 1331 z "},"╟":{"ha":833,"x_min":0,"x_max":0,"o":"m 589 -336 l 589 447 l 842 447 l 842 547 l 589 547 l 589 1331 l 489 1331 l 489 -336 z m 244 -336 l 344 -336 l 344 1331 l 244 1331 z "},"╠":{"ha":833,"x_min":0,"x_max":0,"o":"m 344 -336 l 344 1331 l 244 1331 l 244 -336 z m 489 -336 l 589 -336 l 589 325 l 842 325 l 842 425 l 489 425 z m 489 569 l 842 569 l 842 669 l 589 669 l 589 1331 l 489 1331 z "},"╡":{"ha":833,"x_min":0,"x_max":0,"o":"m 467 -336 l 467 1331 l 367 1331 l 367 669 l -8 669 l -8 569 l 367 569 l 367 425 l -8 425 l -8 325 l 367 325 l 367 -336 z "},"╢":{"ha":833,"x_min":0,"x_max":0,"o":"m 244 -336 l 344 -336 l 344 1331 l 244 1331 l 244 547 l -8 547 l -8 447 l 244 447 z m 489 -336 l 589 -336 l 589 1331 l 489 1331 z "},"╣":{"ha":833,"x_min":0,"x_max":0,"o":"m 489 -336 l 589 -336 l 589 1331 l 489 1331 z m -8 325 l 244 325 l 244 -336 l 344 -336 l 344 425 l -8 425 z m -8 569 l 344 569 l 344 1331 l 244 1331 l 244 669 l -8 669 z "},"╤":{"ha":833,"x_min":0,"x_max":0,"o":"m -8 325 l 367 325 l 367 -336 l 467 -336 l 467 325 l 842 325 l 842 425 l -8 425 z m -8 569 l 842 569 l 842 669 l -8 669 z "},"╥":{"ha":833,"x_min":0,"x_max":0,"o":"m -8 447 l 244 447 l 244 -336 l 344 -336 l 344 447 l 489 447 l 489 -336 l 589 -336 l 589 447 l 842 447 l 842 547 l -8 547 z "},"╦":{"ha":833,"x_min":0,"x_max":0,"o":"m 842 569 l 842 669 l -8 669 l -8 569 z m -8 325 l 244 325 l 244 -336 l 344 -336 l 344 425 l -8 425 z m 489 -336 l 589 -336 l 589 325 l 842 325 l 842 425 l 489 425 z "},"╧":{"ha":833,"x_min":0,"x_max":0,"o":"m -8 325 l 842 325 l 842 425 l -8 425 z m -8 569 l 842 569 l 842 669 l 467 669 l 467 1331 l 367 1331 l 367 669 l -8 669 z "},"╨":{"ha":833,"x_min":0,"x_max":0,"o":"m -8 447 l 842 447 l 842 547 l 589 547 l 589 1331 l 489 1331 l 489 547 l 344 547 l 344 1331 l 244 1331 l 244 547 l -8 547 z "},"╩":{"ha":833,"x_min":0,"x_max":0,"o":"m 589 1331 l 489 1331 l 489 569 l 842 569 l 842 669 l 589 669 z m -8 325 l 842 325 l 842 425 l -8 425 z m -8 569 l 344 569 l 344 1331 l 244 1331 l 244 669 l -8 669 z "},"╪":{"ha":833,"x_min":0,"x_max":0,"o":"m -8 325 l 367 325 l 367 -336 l 467 -336 l 467 325 l 842 325 l 842 425 l 467 425 l 467 569 l 842 569 l 842 669 l 467 669 l 467 1331 l 367 1331 l 367 669 l -8 669 l -8 569 l 367 569 l 367 425 l -8 425 z "},"╫":{"ha":833,"x_min":0,"x_max":0,"o":"m -8 447 l 244 447 l 244 -336 l 344 -336 l 344 447 l 489 447 l 489 -336 l 589 -336 l 589 447 l 842 447 l 842 547 l 589 547 l 589 1331 l 489 1331 l 489 547 l 344 547 l 344 1331 l 244 1331 l 244 547 l -8 547 z "},"╬":{"ha":833,"x_min":0,"x_max":0,"o":"m 589 1331 l 489 1331 l 489 569 l 842 569 l 842 669 l 589 669 z m -8 325 l 244 325 l 244 -336 l 344 -336 l 344 425 l -8 425 z m -8 569 l 344 569 l 344 1331 l 244 1331 l 244 669 l -8 669 z m 489 -336 l 589 -336 l 589 325 l 842 325 l 842 425 l 489 425 z "},"̈":{"ha":0,"x_min":0,"x_max":0,"o":"m 292 835 l 446 835 l 446 982 l 292 982 z m 58 835 l 213 835 l 213 982 l 58 982 z "},"̇":{"ha":0,"x_min":0,"x_max":0,"o":"m 40 835 l 225 835 l 225 1010 l 40 1010 z "},"̀":{"ha":0,"x_min":0,"x_max":0,"o":"m 167 815 l 274 815 l 203 1007 l 50 1007 z "},"́":{"ha":0,"x_min":0,"x_max":0,"o":"m 44 815 l 153 815 l 286 1007 l 126 1007 z "},"̋":{"ha":0,"x_min":0,"x_max":0,"o":"m 261 815 l 367 815 l 503 1007 l 351 1007 z m 53 815 l 158 815 l 289 1007 l 138 1007 z "},"̂":{"ha":0,"x_min":0,"x_max":0,"o":"m 56 815 l 185 815 l 260 939 l 263 939 l 336 815 l 467 815 l 335 1007 l 188 1007 z "},"̌":{"ha":0,"x_min":0,"x_max":0,"o":"m 188 815 l 335 815 l 467 1007 l 336 1007 l 263 883 l 260 883 l 185 1007 l 56 1007 z "},"̆":{"ha":0,"x_min":0,"x_max":0,"o":"m 243 801 b 429 993 350 801 424 869 l 336 993 b 243 897 332 926 303 897 b 149 993 183 897 153 926 l 56 993 b 243 801 60 865 138 801 z "},"̊":{"ha":0,"x_min":0,"x_max":0,"o":"m 181 771 b 310 899 256 771 310 822 b 181 1026 310 975 256 1026 b 53 899 108 1026 53 975 b 181 771 53 822 108 771 z m 118 899 b 181 965 118 938 144 965 b 246 899 219 965 246 938 b 181 832 246 858 219 832 b 118 899 144 832 118 858 z "},"̃":{"ha":0,"x_min":0,"x_max":0,"o":"m 56 824 l 147 824 b 183 872 147 842 151 872 b 357 821 224 872 288 821 b 464 968 414 821 464 861 l 372 968 b 338 919 372 947 368 919 b 163 971 296 919 233 971 b 56 824 106 971 56 928 z "},"̄":{"ha":0,"x_min":0,"x_max":0,"o":"m 56 835 l 422 835 l 422 942 l 56 942 z "},"̒":{"ha":0,"x_min":0,"x_max":0,"o":"m 171 1076 l 60 815 l 211 815 l 263 1076 z "},"̦":{"ha":0,"x_min":0,"x_max":0,"o":"m 97 -331 l 208 -68 l 57 -68 l 6 -331 z "},"̧":{"ha":0,"x_min":0,"x_max":0,"o":"m 210 -275 b 363 -167 288 -275 363 -243 b 225 -76 363 -90 285 -68 l 225 -74 l 288 0 l 211 0 l 125 -103 l 146 -133 b 201 -124 160 -128 185 -124 b 254 -165 235 -124 254 -135 b 186 -214 254 -194 231 -214 b 92 -193 150 -214 122 -206 l 60 -232 b 210 -275 97 -256 150 -275 z "},"̨":{"ha":0,"x_min":0,"x_max":0,"o":"m 189 -246 b 285 -232 222 -246 257 -240 l 285 -139 b 219 -151 265 -146 244 -151 b 169 -111 192 -151 169 -137 b 256 0 169 -82 201 -43 l 160 0 b 56 -140 111 -24 56 -75 b 189 -246 56 -204 101 -246 z "},"̵":{"ha":0,"x_min":0,"x_max":0,"o":"m 56 463 l 635 463 l 635 565 l 56 565 z "},"̶":{"ha":0,"x_min":0,"x_max":0,"o":"m 56 428 l 763 428 l 763 571 l 56 571 z "},"̷":{"ha":0,"x_min":0,"x_max":0,"o":"m 106 -14 l 792 674 l 740 725 l 56 38 z "},"̸":{"ha":0,"x_min":0,"x_max":0,"o":"m 106 -14 l 792 674 l 740 725 l 56 38 z "},"¨":{"ha":833,"x_min":0,"x_max":0,"o":"m 456 835 l 610 835 l 610 982 l 456 982 z m 222 835 l 376 835 l 376 982 l 222 982 z "},"˙":{"ha":833,"x_min":0,"x_max":0,"o":"m 325 835 l 510 835 l 510 1010 l 325 1010 z "},"`":{"ha":779,"x_min":0,"x_max":0,"o":"m 394 815 l 501 815 l 431 1007 l 278 1007 z "},"´":{"ha":886,"x_min":0,"x_max":0,"o":"m 322 815 l 431 815 l 564 1007 l 404 1007 z "},"˝":{"ha":833,"x_min":0,"x_max":0,"o":"m 400 815 l 506 815 l 642 1007 l 490 1007 z m 192 815 l 297 815 l 428 1007 l 276 1007 z "},"ˆ":{"ha":833,"x_min":0,"x_max":0,"o":"m 211 815 l 340 815 l 415 939 l 418 939 l 492 815 l 622 815 l 490 1007 l 343 1007 z "},"ˇ":{"ha":833,"x_min":0,"x_max":0,"o":"m 343 815 l 490 815 l 622 1007 l 492 1007 l 418 883 l 415 883 l 340 1007 l 211 1007 z "},"˘":{"ha":833,"x_min":0,"x_max":0,"o":"m 417 801 b 603 993 524 801 597 869 l 510 993 b 417 897 506 926 476 897 b 322 993 357 897 326 926 l 229 993 b 417 801 233 865 311 801 z "},"˚":{"ha":832,"x_min":0,"x_max":0,"o":"m 415 771 b 544 899 490 771 544 822 b 415 1026 544 975 490 1026 b 288 899 343 1026 288 975 b 415 771 288 822 343 771 z m 353 899 b 415 965 353 938 379 965 b 481 899 454 965 481 938 b 415 832 481 858 454 832 b 353 899 379 832 353 858 z "},"˜":{"ha":832,"x_min":0,"x_max":0,"o":"m 211 824 l 303 824 b 339 872 303 842 307 872 b 513 821 379 872 443 821 b 619 968 569 821 619 861 l 528 968 b 493 919 528 947 524 919 b 318 971 451 919 389 971 b 211 824 261 971 211 928 z "},"¯":{"ha":833,"x_min":0,"x_max":0,"o":"m 233 835 l 600 835 l 600 942 l 233 942 z "},"¸":{"ha":764,"x_min":0,"x_max":0,"o":"m 381 -275 b 533 -167 458 -275 533 -243 b 396 -76 533 -90 456 -68 l 396 -74 l 458 0 l 382 0 l 296 -103 l 317 -133 b 372 -124 331 -128 356 -124 b 425 -165 406 -124 425 -135 b 357 -214 425 -194 401 -214 b 263 -193 321 -214 293 -206 l 231 -232 b 381 -275 268 -256 321 -275 z "},"˛":{"ha":783,"x_min":0,"x_max":0,"o":"m 410 -246 b 506 -232 443 -246 478 -240 l 506 -139 b 440 -151 486 -146 465 -151 b 390 -111 413 -151 390 -137 b 476 0 390 -82 422 -43 l 381 0 b 276 -140 332 -24 276 -75 b 410 -246 276 -204 322 -246 z "},"":{"ha":833,"x_min":0,"x_max":0,"o":"m 63 0 l 847 0 l 847 118 l 186 118 l 186 875 l 847 875 l 847 993 l 63 993 z "},"":{"ha":833,"x_min":0,"x_max":0,"o":"m -14 875 l 847 875 l 847 993 l -14 993 z m -14 0 l 847 0 l 847 118 l -14 118 z "},"":{"ha":833,"x_min":0,"x_max":0,"o":"m 771 0 l 771 993 l -14 993 l -14 875 l 647 875 l 647 118 l -14 118 l -14 0 z "},"":{"ha":833,"x_min":0,"x_max":0,"o":"m 63 0 l 847 0 l 847 118 l 186 118 l 186 875 l 847 875 l 847 993 l 63 993 z m 269 190 l 847 190 l 847 803 l 269 803 z "},"":{"ha":833,"x_min":0,"x_max":0,"o":"m -14 190 l 847 190 l 847 803 l -14 803 z m -14 0 l 847 0 l 847 118 l -14 118 z m -14 875 l 847 875 l 847 993 l -14 993 z "},"":{"ha":833,"x_min":0,"x_max":0,"o":"m 771 0 l 771 993 l -14 993 l -14 875 l 647 875 l 647 118 l -14 118 l -14 0 z m -14 190 l 564 190 l 564 803 l -14 803 z "},"":{"ha":833,"x_min":0,"x_max":0,"o":"m 547 486 l 617 554 b 417 636 565 606 496 636 b 219 556 339 636 269 606 l 286 486 b 417 540 319 521 365 540 b 547 486 468 540 514 521 z "},"":{"ha":833,"x_min":0,"x_max":0,"o":"m 417 636 l 417 540 b 601 356 521 540 601 460 b 567 246 601 314 589 276 l 638 181 b 697 356 675 228 697 289 b 417 636 697 513 574 636 z "},"":{"ha":833,"x_min":0,"x_max":0,"o":"m 417 75 b 697 356 574 75 697 199 b 615 556 697 435 667 504 l 549 486 b 601 356 581 454 601 407 b 417 171 601 251 521 171 b 346 185 392 171 368 176 l 297 101 b 417 75 333 85 374 75 z "},"":{"ha":833,"x_min":0,"x_max":0,"o":"m 417 75 b 697 356 574 75 697 199 l 601 356 b 417 171 601 251 521 171 b 232 356 313 171 232 251 l 136 356 b 417 75 136 199 260 75 z "},"":{"ha":833,"x_min":0,"x_max":0,"o":"m 417 75 b 536 101 460 75 500 85 l 488 185 b 417 171 465 176 442 171 b 232 356 313 171 232 251 b 285 486 232 407 253 454 l 218 556 b 136 356 167 504 136 435 b 417 75 136 199 260 75 z "},"":{"ha":833,"x_min":0,"x_max":0,"o":"m 417 540 l 417 636 b 136 356 260 636 136 513 b 196 181 136 289 158 228 l 267 246 b 232 356 244 276 232 314 b 417 540 232 460 313 540 z "}}}
